<?xml version="1.0" encoding="UTF-8"?>
<!DOCTYPE svg PUBLIC "-//W3C//DTD SVG 1.1//EN" "http://www.w3.org/Graphics/SVG/1.1/DTD/svg11.dtd"><svg xmlns="http://www.w3.org/2000/svg" xmlns:xlink="http://www.w3.org/1999/xlink">

    <symbol id="logo" viewBox="0 0 150 40">
        <path d="M24.06,33.14l-2.05,4.79-17.61-.02-2.26-4.75c-.12-.26.07-.55.36-.55h2c-.7-.94-1.71-2.29-1.88-2.56-.05-.09-.07-.19-.04-.29.58-1.51,1.17-3,1.75-4.52.17-.42.33-.86.5-1.31-.99.89-2.76.6-3.78-.26-.94-.84-1.28-2.15-.86-3.33.11.28.4.83.41.84.53.85,1.66,1.12,2.52.59.19-.12.34-.3.42-.5-1.62.09-2.55-.49-2.81-1.73-.2-.82.18-1.67.91-2.1-.02.21-.07.43-.08.64-.04.35.12.71.41.93.4.3.91.4,1.4.27.26-.04.44-.28.41-.55-.02-.25-.07-.49-.14-.73-.13-.46-.3-.91-.41-1.37-.2-.64.41-1.87.4-1.89-.44.08-.84.33-1.1.69-.24.38-.28.85-.1,1.27-.02-.01-.04-.03-.05-.04-.96-.64-1.22-1.92-.57-2.86.2-.27.42-.52.65-.76.49-.49.73-1.16.67-1.84-.03-.31-.07-.63-.07-.94-.09-.86.15-1.72.67-2.42.5-.58,1.17-1,1.92-1.22.14-.03.27-.08.4-.15.4-.23.41-.57.01-.81-.12-.07-1.01-.16-1.29-.01-.46.24-.85.6-1.12,1.04-.05.08-.1.17-.18.28,0-.21,0-.38,0-.53.01-1.24.7-2.37,1.79-2.98.85-.46,1.83-.66,2.8-.55.07.01.12.01.2.02-.99-.88-1.14-2.43-.3-2.9,0,.13-.02.26-.02.39-.02.43.26.82.69.94.44.17.93.15,1.36-.03.25-.12.48-.23.72-.37.5-.32,1.05-.56,1.62-.73.99-.3,2.05-.29,3.04.03.82.24,1.33,1.05,1.17,1.88,0,.1-.03.19-.04.26.24-.13.5-.26.76-.38.55-.21.97-.64,1.14-1.18.05-.16.1-.36.31-.34.2.02.26.23.27.39.09.74.17,1.49.24,2.23.04.31-.03.62-.2.88s-.46.43-.77.46c.1.1.2.21.27.33.2.33.46.62.77.86.33.27.67.55.98.85.31.26.43.67.31,1.05-.14.38-.06.82.23,1.11.57.66,1.14,1.31,1.73,1.94.24.23.5.45.77.66.27.39.36.87.25,1.34-.04.12-.07.24-.07.36-.03.33-.01.68-.08,1.02-.05.35-.37.59-.73.55,0,0-.22,0-.24,0-.41-.02-.76.29-.79.69-.06.3-.16.38-.47.37-.22,0-.45-.03-.67-.03-.5.08-1.03-.01-1.47-.26-.1-.05-.18-.13-.26-.22-.12-.19-.22-.4-.28-.62-.14-.43-.37-.83-.67-1.17-.23-.22-.53-.38-.85-.43-.18-.07-.32.03-.47.1-.06.03-.12.04-.18.05-.35.06-.7.03-1.02-.1-.28-.11-.56-.23-.82-.34-.05.34-.13.67-.18,1.02-.08.47.08.95.43,1.28.24.23.49.46.75.68,1.24,1.09,2.5,2.19,3.74,3.27.71.6,1.23,1.39,1.49,2.28.14.48.29.94.42,1.42l1.93,7.5c.01.09,0,.18-.05.26-.29.44-1.05,1.53-1.66,2.37h2.33c.28,0,.47.28.37.53Z" />
        <path d="M41.1,26.42c-.53-1.3-.56-2.69-.67-4.06-.23-2.42-.37-3.58-3.18-3.58h-3.57v7.65h-2.18V9.92h5.98c2.74,0,5.63.82,5.63,4.06,0,2.19-1.32,3.36-3.34,3.9,2.13.46,2.67,1.64,2.85,3.42.12,1.1.14,2.26.37,3.51.12.62.25,1.16.56,1.6h-2.46ZM37,11.56h-3.31v5.59h2.71c2.11,0,4.5-.32,4.5-2.92,0-2.3-1.97-2.67-3.89-2.67Z" />
        <path d="M50.51,26.67c-3.73,0-5.77-2.58-5.77-6.07s2.16-5.96,5.8-5.96,5.73,2.44,5.73,5.96-2.11,6.07-5.75,6.07ZM50.51,16.08c-2.62,0-3.62,2.26-3.62,4.52s.97,4.7,3.62,4.7,3.62-2.51,3.62-4.7-1-4.52-3.62-4.52Z" />
        <path d="M66.04,26.42l-.09-1.83c-.97,1.32-2.09,1.96-3.78,1.96-3.08,0-4.2-1.64-4.2-4.5v-7.17h2.04v6.39c0,2.01.23,3.74,2.71,3.74s3.22-1.94,3.22-4.04v-6.09h2.04v5.59c0,1.96,0,3.95.05,5.93h-1.99Z" />
        <path d="M78.58,26.42v-6.39c0-2.01-.23-3.74-2.71-3.74s-3.22,2.26-3.22,4.38v5.75h-2.04v-8.56c0-.98-.05-2.31-.07-2.97h2.02l.07,1.85c.95-1.32,2.13-1.99,3.82-1.99,3.06,0,4.17,1.67,4.17,4.5v7.17h-2.04Z" />
        <path d="M91.33,26.42l-.12-1.76c-1,1.35-2.02,1.96-3.76,1.96-3.55,0-5.12-2.92-5.12-6.05s1.6-5.91,5.05-5.91c1.76,0,2.92.59,3.83,2.05v-6.8h2.04v13.15c0,1.1,0,2.24.07,3.35h-1.99ZM87.71,16.08c-2.53,0-3.25,2.46-3.25,4.54,0,2.24.86,4.54,3.5,4.54s3.27-2.42,3.27-4.5c0-2.19-.93-4.59-3.52-4.59Z" />
        <path d="M107.21,11.61v14.81h-2.16v-14.81h-5.33v-1.69h12.84v1.69h-5.35Z" />
        <path d="M118.73,26.42c-.09-.48-.19-1.14-.21-1.62-.97,1.39-2.27,1.87-3.96,1.87-2.18,0-4.1-1.07-4.1-3.42,0-3.45,3.85-3.86,6.7-3.86.42,0,.83.02,1.16.05v-.68c0-1.78-.65-2.78-2.57-2.78-1.44,0-2.29.52-2.43,2.03h-1.99c.12-2.51,2.18-3.33,4.38-3.33,2.99,0,4.45,1.12,4.45,4.13v4.24c0,1.51.21,2.85.37,3.38h-1.78ZM117.27,20.6c-1.81,0-4.78.21-4.78,2.56,0,1.42,1.23,2.17,2.57,2.17,2.94,0,3.25-2.35,3.25-4.68-.49-.05-.72-.05-1.04-.05Z" />
        <path d="M128.58,26.63c-1.67,0-2.71-.66-3.66-1.96l-.12,1.76h-1.99c.07-1.12.07-2.24.07-3.35v-13.15h2.04v6.92c.9-1.46,2.2-2.17,3.94-2.17,3.45,0,4.94,2.78,4.94,5.82s-1.67,6.14-5.22,6.14ZM128.42,16.08c-2.6,0-3.52,2.37-3.52,4.59,0,2.08.74,4.5,3.27,4.5s3.5-2.31,3.5-4.54c0-2.05-.74-4.54-3.25-4.54Z" />
        <path d="M135.58,26.42V9.92h2.04v16.5h-2.04Z" />
        <path d="M141.45,21.04v.23c0,2.12,1.16,4.06,3.52,4.06,1.67,0,2.76-1,3.01-2.62h1.95c-.46,2.72-2.46,3.97-5.12,3.97-3.64,0-5.4-2.4-5.4-5.82s1.76-6.16,5.56-6.16,5.03,2.99,5.03,6.34h-8.55ZM144.9,16.06c-2.16,0-3.22,1.73-3.41,3.65h6.49c.02-1.89-.95-3.65-3.08-3.65Z" />
        <path d="M53.66,37.97c-.78,0-1.26-.31-1.7-.91l-.05.82h-.93c.03-.52.03-1.04.03-1.56v-6.1h.95v3.21c.42-.68,1.02-1.01,1.83-1.01,1.6,0,2.29,1.29,2.29,2.7s-.78,2.85-2.42,2.85ZM53.58,33.07c-1.21,0-1.64,1.1-1.64,2.13,0,.96.34,2.09,1.52,2.09s1.63-1.07,1.63-2.11c0-.95-.34-2.11-1.51-2.11Z" />
        <path d="M59.61,33.35c-1.12,0-1.49.63-1.49,1.64v2.88h-.95v-3.78c0-.52-.01-1.05-.03-1.57h.93l.04.86c.39-.63.91-.89,1.66-.89.1,0,.21.01.3.02v.88c-.14-.02-.31-.04-.46-.04Z" />
        <path d="M64.26,37.87c-.04-.22-.09-.53-.1-.75-.45.65-1.05.87-1.84.87-1.01,0-1.91-.5-1.91-1.59,0-1.6,1.79-1.79,3.11-1.79.19,0,.39.01.54.02v-.32c0-.83-.3-1.29-1.19-1.29-.67,0-1.07.24-1.13.94h-.93c.05-1.17,1.01-1.55,2.03-1.55,1.39,0,2.07.52,2.07,1.92v1.97c0,.7.1,1.32.17,1.57h-.83ZM63.58,35.17c-.84,0-2.22.1-2.22,1.19,0,.66.57,1.01,1.19,1.01,1.37,0,1.51-1.09,1.51-2.17-.23-.02-.33-.02-.48-.02Z" />
        <path d="M70.15,37.87v-2.97c0-.93-.11-1.74-1.26-1.74s-1.5,1.05-1.5,2.03v2.67h-.95v-3.97c0-.46-.02-1.07-.03-1.38h.94l.03.86c.44-.61.99-.92,1.78-.92,1.42,0,1.94.77,1.94,2.09v3.33h-.95Z" />
        <path d="M76.34,37.87l-.05-.82c-.46.63-.94.91-1.74.91-1.65,0-2.38-1.36-2.38-2.81s.74-2.74,2.35-2.74c.82,0,1.36.28,1.78.95v-3.16h.95v6.1c0,.51,0,1.04.03,1.56h-.93ZM74.66,33.07c-1.17,0-1.51,1.14-1.51,2.11,0,1.04.4,2.11,1.63,2.11s1.52-1.12,1.52-2.09c0-1.02-.43-2.13-1.64-2.13Z" />
        <path d="M78.68,31.15v-.94h1.05v.94h-1.05ZM78.73,37.87v-5.35h.95v5.35h-.95Z" />
        <path d="M84.88,37.87v-2.97c0-.93-.11-1.74-1.26-1.74s-1.5,1.05-1.5,2.03v2.67h-.95v-3.97c0-.46-.02-1.07-.03-1.38h.94l.03.86c.44-.61.99-.92,1.78-.92,1.42,0,1.94.77,1.94,2.09v3.33h-.95Z" />
        <path d="M92.02,34.37v1.98c0,2.06-.1,3.65-2.56,3.65-1.1,0-2.25-.33-2.25-1.63h.93c0,.76.65,1,1.31,1,1.14,0,1.52-.63,1.6-1.61.02-.29.02-.58.02-.88-.42.64-1.02.94-1.8.94-1.63,0-2.39-1.22-2.39-2.69s.8-2.7,2.38-2.7c.81,0,1.43.32,1.84,1.01v-.91h.96c-.04.61-.04,1.24-.04,1.85ZM89.5,33.07c-1.19,0-1.6,1.08-1.6,2.09s.43,2.03,1.59,2.03,1.59-1.1,1.59-2.12c0-.94-.48-2-1.58-2Z" />
        <path d="M99.81,37.87c-.04-.22-.09-.53-.1-.75-.45.65-1.05.87-1.84.87-1.01,0-1.91-.5-1.91-1.59,0-1.6,1.79-1.79,3.11-1.79.19,0,.39.01.54.02v-.32c0-.83-.3-1.29-1.19-1.29-.67,0-1.07.24-1.13.94h-.93c.05-1.17,1.01-1.55,2.03-1.55,1.39,0,2.07.52,2.07,1.92v1.97c0,.7.1,1.32.17,1.57h-.83ZM99.13,35.17c-.84,0-2.22.1-2.22,1.19,0,.66.57,1.01,1.19,1.01,1.37,0,1.51-1.09,1.51-2.17-.23-.02-.33-.02-.48-.02Z" />
        <path d="M106.74,34.37v1.98c0,2.06-.1,3.65-2.56,3.65-1.1,0-2.25-.33-2.25-1.63h.93c0,.76.65,1,1.31,1,1.14,0,1.52-.63,1.6-1.61.02-.29.02-.58.02-.88-.42.64-1.02.94-1.8.94-1.63,0-2.39-1.22-2.39-2.69s.8-2.7,2.38-2.7c.81,0,1.43.32,1.84,1.01v-.91h.96c-.04.61-.04,1.24-.04,1.85ZM104.22,33.07c-1.19,0-1.6,1.08-1.6,2.09s.43,2.03,1.59,2.03,1.59-1.1,1.59-2.12c0-.94-.48-2-1.58-2Z" />
        <path d="M108.79,35.37v.11c0,.99.54,1.89,1.64,1.89.78,0,1.28-.47,1.4-1.22h.9c-.22,1.26-1.14,1.84-2.38,1.84-1.69,0-2.51-1.11-2.51-2.7s.82-2.86,2.58-2.86,2.34,1.39,2.34,2.95h-3.97ZM110.39,33.06c-1,0-1.5.81-1.58,1.7h3.01c.01-.88-.44-1.7-1.43-1.7Z" />
        <path d="M117.56,37.87v-2.97c0-.93-.11-1.74-1.26-1.74s-1.5,1.05-1.5,2.03v2.67h-.95v-3.97c0-.46-.02-1.07-.03-1.38h.94l.03.86c.44-.61.99-.92,1.78-.92,1.42,0,1.94.77,1.94,2.09v3.33h-.95Z" />
        <path d="M122.21,37.99c-1.71,0-2.64-1.11-2.64-2.73s.93-2.88,2.69-2.88c1.23,0,2.11.61,2.22,1.88h-.93c-.05-.76-.52-1.22-1.29-1.22-1.28,0-1.69,1.1-1.69,2.18,0,1.02.44,2.14,1.65,2.14.8,0,1.3-.51,1.36-1.28h.93c-.1,1.29-1.05,1.92-2.29,1.92Z" />
        <path d="M126.96,39.88h-.95l.89-2.02-2.31-5.34h1.08l1.71,4.38,1.7-4.38h.96l-3.08,7.36Z" />
    </symbol>
    <symbol id="logo-small" viewBox="0 0 20 32">
        <path d="M19.98,27.96l-1.7,4.04-14.62-.02-1.88-4.01c-.1-.22.06-.47.3-.47h1.66c-.58-.79-1.42-1.94-1.56-2.16-.04-.08-.05-.16-.03-.25.48-1.28.97-2.54,1.45-3.81.14-.35.28-.72.42-1.1-.82.75-2.3.5-3.14-.22-.78-.71-1.06-1.81-.72-2.81.09.23.33.7.34.71.44.72,1.38.94,2.09.5.16-.1.28-.25.35-.42-1.35.08-2.12-.41-2.33-1.46-.16-.7.15-1.41.76-1.77-.02.17-.05.36-.07.54-.03.3.1.6.34.78.33.26.76.34,1.16.23.22-.03.37-.24.34-.46-.02-.21-.06-.41-.11-.61-.11-.38-.25-.77-.34-1.16-.17-.54.34-1.58.33-1.6-.37.07-.7.28-.92.58-.2.32-.23.72-.08,1.07-.02-.01-.03-.02-.04-.03-.8-.54-1.01-1.62-.47-2.41.17-.23.35-.44.54-.64.41-.41.61-.98.55-1.55-.03-.27-.05-.53-.06-.8-.08-.73.12-1.46.56-2.04.42-.49.97-.85,1.59-1.03.12-.03.23-.07.33-.13.33-.19.34-.48.01-.68-.1-.06-.84-.14-1.07-.01-.39.2-.71.5-.93.87-.04.07-.09.14-.15.24,0-.18,0-.32,0-.45.01-1.04.58-2,1.49-2.51.71-.39,1.52-.55,2.32-.46.05.01.1.01.17.02-.82-.74-.94-2.05-.25-2.45,0,.11-.02.22-.02.33-.02.36.22.7.57.79.36.14.77.13,1.13-.03.21-.1.4-.2.6-.31.42-.27.87-.47,1.35-.62.82-.25,1.7-.24,2.52.02.68.21,1.1.89.97,1.59,0,.08-.03.16-.03.22.2-.11.42-.22.63-.32.46-.17.8-.54.95-1,.04-.14.08-.3.26-.29.17.02.21.19.23.33.08.62.14,1.25.2,1.88.03.26-.02.52-.16.74s-.38.36-.64.39c.09.08.16.17.22.28.17.28.38.52.64.72.28.23.55.46.81.72.25.22.36.56.25.88-.12.32-.05.69.19.94.47.55.94,1.11,1.43,1.64.2.2.42.38.64.55.22.33.3.74.21,1.13-.03.1-.05.2-.06.3-.03.28-.01.57-.07.86-.04.29-.31.5-.6.46,0,0-.18,0-.2,0-.34-.02-.63.24-.66.59-.05.25-.13.32-.39.31-.18,0-.37-.03-.56-.03-.42.07-.85-.01-1.22-.22-.08-.04-.15-.11-.21-.18-.1-.16-.18-.34-.23-.53-.11-.36-.3-.7-.56-.99-.19-.19-.44-.32-.71-.36-.15-.06-.27.03-.39.08-.05.02-.1.03-.15.04-.29.05-.58.02-.85-.09-.23-.09-.47-.2-.68-.29-.04.29-.11.57-.15.86-.07.4.07.8.36,1.08.2.2.41.39.62.58,1.03.92,2.07,1.85,3.11,2.76.59.51,1.02,1.17,1.24,1.92.12.4.24.79.35,1.19l1.61,6.33c0,.08,0,.15-.04.22-.24.37-.87,1.29-1.38,2h1.94c.23,0,.39.23.31.45Z" />
    </symbol>
    <symbol id="icon-plus" viewBox="0 0 32 32">
        <path d="M32 15.059h-15.059v-15.059h-1.882v15.059h-15.059v1.882h15.059v15.059h1.882v-15.059h15.059v-1.882z"></path>
    </symbol>
    <symbol id="icon-minus" viewBox="0 0 32 32">
        <path d="M29.333 14.667h-26.667v2h26.667v-2z"></path>
    </symbol>
    <symbol id="icon-external-link" viewBox="0 0 32 32">
        <path d="M4.667 2.667h-2v26.667h26.667v-2h-24.667v-24.667z"></path>
        <path d="M14.014 19.401l13.32-13.32v9.785h2v-13.2h-13.199v2h9.784l-13.32 13.321 1.415 1.413z"></path>
    </symbol>
    <symbol id="icon-download" viewBox="0 0 32 32">
        <path d="M29.333 27.333h-26.667v2h26.667v-2z"></path>
        <path d="M25.333 16l-1.415-1.415-6.919 6.92v-18.839h-2v18.839l-6.919-6.92-1.415 1.415 9.333 9.333 9.333-9.333z"></path>
    </symbol>
    <symbol id="icon-play" viewBox="0 0 32 32">
        <path d="M8 25.333l17.333-9.333-17.333-9.333v18.667z"></path>
    </symbol>
    <symbol id="icon-pause" viewBox="0 0 32 32">
        <path d="M13.333 6.667h-5.333v18.667h5.333v-18.667z"></path>
        <path d="M24 6.667h-5.333v18.667h5.333v-18.667z"></path>
    </symbol>
    <symbol id="icon-arrow-right" viewBox="0 0 32 32">
        <path d="M16 0l-1.331 1.331 13.728 13.728h-28.397v1.882h28.397l-13.728 13.728 1.331 1.331 16-16-16-16z"></path>
    </symbol>
    <symbol id="icon-close" viewBox="0 0 32 32">
        <path d="M32 30.669l-14.669-14.669 14.669-14.669-1.331-1.331-14.669 14.669-14.669-14.669-1.331 1.331 14.669 14.669-14.669 14.669 1.331 1.331 14.669-14.669 14.669 14.669 1.331-1.331z"></path>
    </symbol>
    <symbol id="behance" viewBox="0 0 12 12">
        <path d="M9.75,4.165H7.125v-0.75H9.75V4.165z M10.397,7.915C10.231,8.401,9.636,9.04,8.484,9.04c-1.153,0-2.086-0.648-2.086-2.128
	c0-1.466,0.872-2.22,2.05-2.22c1.156,0,1.861,0.668,2.016,1.66c0.029,0.19,0.041,0.445,0.036,0.802h-3.01
	c0.049,1.204,1.306,1.242,1.72,0.761C9.209,7.915,10.397,7.915,10.397,7.915z M7.515,6.415h1.862
	c-0.039-0.58-0.426-0.832-0.929-0.832C7.898,5.582,7.594,5.87,7.515,6.415z M3.925,9.035H1.5V3.422h2.607
	c2.053,0.03,2.092,2.041,1.02,2.59C6.425,6.485,6.469,9.035,3.925,9.035z M2.625,5.665h1.344c0.94,0,1.09-1.125-0.117-1.125H2.625
	C2.625,4.54,2.625,5.665,2.625,5.665z M3.897,6.79H2.625v1.131h1.253C5.023,7.921,4.953,6.79,3.897,6.79z"/>
    </symbol>
    <symbol id="linkedin" viewBox="0 0 12 12">
        <path d="M2.771,4.782h1.368v4.444H2.771C2.771,9.226,2.771,4.782,2.771,4.782z M3.47,2.586c0.441,0,0.798,0.365,0.798,0.798
	S3.903,4.182,3.47,4.182S2.672,3.817,2.672,3.384C2.672,2.921,3.037,2.586,3.47,2.586 M5.02,4.782h1.314v0.593h0.023
	C6.539,5.01,7.003,4.653,7.671,4.653c1.398,0,1.656,0.927,1.656,2.12v2.431H7.96V7.031c0-0.517,0-1.185-0.722-1.185
	S6.41,6.415,6.41,6.985v2.196H5.043V4.789H5.02V4.782z" />
    </symbol>
    <symbol id="message" viewBox="0 0 240 90">
        <path d="M2.5,7v12.9H10v2.4H0V7H2.5z" />
        <path d="M85.2,7v2.4h-7.7v4.1h6.8v2.4h-6.8v4.2h8v2.4H75V7H85.2z" />
        <path d="M160.7,7v2.4h-3.9v12.9h-2.4V9.4h-3.8V7H160.7z" />
        <path d="m235.5 9.1c-0.8 0-1.4 0.2-1.8 0.5s-0.7 0.8-0.7 1.4 0.3 1.1 0.8 1.4 1.3 0.8 2.3 1.1c0.8 0.3 1.4 0.6 1.9 0.9s1 0.8 1.3 1.4 0.5 1.3 0.5 2.2c0 0.8-0.2 1.5-0.6 2.2s-1 1.2-1.8 1.6-1.7 0.6-2.7 0.6c-0.9 0-1.8-0.1-2.7-0.4s-1.7-0.7-2.4-1.2l1.1-1.9c0.5 0.4 1.1 0.7 1.8 1s1.4 0.4 2 0.4c0.7 0 1.4-0.2 2-0.5 0.6-0.4 0.8-0.9 0.8-1.6 0-0.6-0.2-1.1-0.7-1.5s-1.1-0.7-2-1.1c-0.9-0.3-1.6-0.6-2.2-1-0.6-0.3-1.1-0.8-1.5-1.3-0.4-0.6-0.6-1.3-0.6-2.1 0-1.2 0.4-2.3 1.3-3 0.8-0.8 2-1.2 3.3-1.2 1 0 1.9 0.1 2.7 0.3s1.5 0.6 2.1 1l-0.9 1.9c-1.1-0.8-2.3-1.1-3.3-1.1z" />
        <path d="M10.2,67.4v2.4H6.3v12.9H3.8V69.8H0v-2.4H10.2z" />
        <path d="m84.4 79.1h-5.6l-1.5 3.6h-2.3l6.8-15.9h0.1l6.8 15.9h-2.8l-1.5-3.6zm-0.8-2.1-1.9-4.8-2 4.8h3.9z" />
        <path d="m155.8 67.4v12.9h7.5v2.4h-10v-15.3h2.5z" />
        <path d="m230.5 74.1 0.3-0.5 5.8-6.2h3.1l-6.3 6.7 6.6 8.6h-3.1l-5.2-7.1-1.1 1.1v6h-2.5v-15.3h2.5v5.9l-0.1 0.8z" />
    </symbol>
    <symbol id="brands" viewBox="0 0 1600 1600">
        <path d="M309.8,671.54c14.36,0,27.69-.26,41.15,0,21.92.64,43.84.77,65.5,2.95,16.28,1.54,31.02,8.59,42.17,20.89,23.46,25.77,16.79,65.25-13.46,82.55-6.54,3.72-13.46,6.92-22.05,11.41,6.28,1.28,10.77,1.67,15,3.2,10.38,3.59,21.15,6.67,30.89,11.79,42.3,22.3,35.51,78.32,8.84,100.75-19.23,16.02-41.4,22.18-65.89,22.56-31.79.51-63.45,1.03-95.24,1.41-1.92,0-3.97-.77-6.28-1.15.51-1.54.64-2.95,1.15-3.08,13.46-2.18,14.36-12.05,14.36-22.82v-204.58c0-9.74,1.15-20.64-13.46-21.92-.77,0-1.41-2.18-2.44-4.1l-.26.13ZM354.28,794.34v129.72c15.25,0,29.74.77,44.1-.26,11.02-.77,21.92-3.08,32.69-5.51,24.74-5.51,38.71-21.15,42.56-46.28,5.64-35.76-5.13-57.56-37.05-69.22-26.41-9.74-54.22-10.25-82.42-8.46h.13ZM354.15,787.8c23.46,1.41,46.15,0,67.04-10.38,19.23-9.49,29.61-25.77,29.61-47.56s-7.69-37.81-27.69-46.15c-22.05-9.23-45.89-5.38-69.09-7.82v112.03l.13-.13Z" />
        <path d="M780.11,885.61c7.82-10.25,15.64-20.51,23.59-30.64,7.95-10.25,10.9-21.92,10.77-34.61v-25c0-15.25,0-15.38-14.23-19.74,10-7.18,22.43-5.38,34.74-8.72v30.89c.64.38,1.28.64,2.05,1.03,2.05-2.44,3.97-4.74,6.02-7.18,20.89-25.25,53.2-32.43,79.6-17.43,16.79,9.61,27.82,24.1,29.1,43.58,1.67,24.87,1.28,49.86,2.05,74.86.38,12.56-4.87,27.18,10.64,36.02h-41.92c14.1-9.23,9.1-22.95,9.1-34.87,0-25.64-.26-51.27-2.31-76.66-.77-10.38-5-21.02-10-30.25-6.92-12.82-21.66-17.69-35.89-14.49-18.72,4.23-32.69,15-42.94,31.02-17.18,26.92-33.58,54.61-52.68,80.24-15.25,20.51-34.48,38.33-61.27,43.33-19.61,3.59-39.1,4.23-54.35-11.92-22.18-23.33-12.82-62.94,17.69-75.12,18.59-7.43,38.2-9.1,58.2-7.43,2.69.26,5.38.51,9.49.77-1.67-15.13-2.56-29.48-5.13-43.58-2.44-13.59-11.79-19.74-25.64-17.82-21.02,2.82-36.02,14.74-46.53,32.82-1.79,3.08-3.46,6.15-5.77,10.38-3.2-15.51,3.2-30.64,14.74-36.92,15.9-8.59,32.69-12.31,50.76-10,23.59,2.95,37.69,18.33,37.94,42.17.26,21.92,0,43.84,0,65.76v8.84c.77.26,1.54.38,2.31.64h-.13ZM757.42,837.41c-14.1,0-25.77-.64-37.43.26-11.15.77-20.38,6.28-27.43,15.25-11.41,14.36-13.33,41.02-3.97,56.79,4.49,7.56,11.02,12.31,20,13.07,16.66,1.54,31.66-3.08,44.87-13.2,1.92-1.54,3.85-4.49,3.85-6.67.26-21.54.13-42.94.13-65.37v-.13Z" />
        <path d="M1111.98,790.36v-93.19c0-8.72-.26-16.41-12.05-16.15-.64,0-1.41-1.67-3.97-4.49,13.2-2.18,24.74-3.97,37.43-6.15v229.84c0,11.79,5.3,20.72,15.9,26.79-13.2,3.46-24.74,1.15-37.43,1.79v-22.69c-21.66,19.1-44.74,26.15-70.89,21.41-17.95-3.33-32.69-12.69-44.1-26.79-25.25-31.66-23.2-80.37,4.23-109.6,14.61-15.64,32.69-24.1,54.09-23.97,21.41,0,39.1,9.23,54.09,24.48.77-.38,1.54-.77,2.31-1.15l.38-.13ZM1111.98,849.07h0c0-9.61-1.03-19.23.26-28.71,2.44-17.43-6.41-28.33-19.36-36.92-28.71-18.84-77.17-20-87.29,32.17-3.2,16.41-3.97,33.71-2.95,50.38,1.03,16.79,5.64,33.58,18.84,46.02,20.77,19.23,59.61,15.13,81.91-8.2,5.9-6.15,9.1-12.69,8.72-21.41-.51-11.02,0-22.18,0-33.33h-.13Z" />
        <path d="M1279.14,814.21c-1.67-2.95-3.46-6.02-5-8.97-14.61-29.1-49.61-41.4-77.68-27.3-2.69,1.41-5.38,3.08-7.69,5-10.51,8.97-10.13,18.72,2.31,24.74,17.95,8.72,36.66,15.9,54.86,24.1,9.23,4.23,18.72,8.33,26.66,14.36,24.1,18.07,23.2,51.66-1.15,69.35-27.18,19.74-71.66,18.72-97.93-2.44-1.67-1.28-3.72-2.95-4.1-4.74-1.92-8.59-3.33-17.18-4.87-25.77.77-.26,1.41-.64,2.18-.9,2.56,3.97,5.13,7.95,7.56,11.92,20.13,32.3,59.86,40.63,88.7,18.59,8.2-6.28,12.95-14.61,14.1-25,1.15-10.9-3.59-20.25-14.74-25.25-23.33-10.38-47.04-20.13-70.5-30.12-15.64-6.67-22.95-16.54-22.18-30.51.77-15.25,9.87-23.84,23.46-28.84,25-9.1,48.97-6.54,72.04,6.28,9.1,5,13.84,12.82,14.49,23.2.26,3.85.9,7.69,1.28,11.54-.64.26-1.15.51-1.79.77h0Z" />
        <path d="M560.4,928.55h-42.94c2.69-2.95,4.23-4.23,5.26-5.77,2.31-3.97,6.28-7.95,6.41-12.05.51-40.12.26-80.12.38-120.24,0-9.61-4.87-13.97-15-14.1,10.64-8.72,23.33-6.02,35.76-10v30.76c.64.51,1.15,1.15,1.79,1.67,19.36-30.12,44.35-39.48,77.68-25.25,18.84,7.95,21.66,22.69,21.66,40.25-1.67-2.95-3.2-6.02-5-8.97-9.36-16.28-20.77-30.38-40.76-32.94-6.92-.9-15.77-.38-21.41,3.08-18.72,11.92-34.74,26.28-34.1,51.79.64,20-.38,40.12.26,60.12.51,14.23-6.02,30.64,9.87,41.53l.13.13Z" />
    </symbol>
    <symbol id="copywriting" viewBox="0 0 1600 1600">
        <path d="M457.55,462.73h33.7l17.44,85.08h.71l20.74-85.08h27.34l20.74,85.08h.71l17.44-85.08h33.7l-33.7,128.68h-32.29l-20.5-77.3h-.71l-20.27,77.3h-32.29l-33.7-128.68h.94Z" />
        <path d="M627.48,542.87h0c0-31.35,18.62-50.67,48.32-50.67s47.84,19.09,47.84,48.55v9.19h-65.28c.47,13.2,7.54,20.74,19.09,20.74s15.79-5.89,17.2-9.9v-.47h28.52v1.18c-3.3,13.43-15.32,31.58-46.43,31.58s-49.26-19.09-49.26-50.44v.24ZM658.83,531.32h35.12c-1.65-10.84-8.25-16.73-17.44-16.73s-16.03,6.13-17.68,16.73Z" />
        <path d="M461.32,675.32h31.58v17.44h.71c3.77-11.78,14.14-19.56,27.34-19.56s23.8,7.54,26.4,20.74h.71c3.77-12.49,15.56-20.74,29.93-20.74s31.82,13.43,31.82,33v65.99h-31.58v-57.98c0-10.13-4.71-15.32-13.67-15.32s-13.91,6.13-13.91,15.79v57.51h-30.17v-58.21c0-9.9-4.71-15.08-13.43-15.08s-14.14,6.36-14.14,16.03v57.51h-31.58v-97.1h0Z" />
        <path d="M621.12,744.38h0c0-18.38,14.14-28.52,39.12-30.4l22.15-1.41v-4.71c0-7.07-4.48-11.31-13.43-11.31s-13.43,4.01-14.61,8.96v.94h-28.52v-1.18c1.65-18.85,17.68-31.82,44.78-31.82s43.37,13.2,43.37,33v66.23h-31.58v-13.67h-.71c-5.42,9.43-15.08,15.08-27.81,15.08-19.56,0-32.76-12.49-32.76-29.22v-.47ZM664.95,751.92c10.13,0,17.44-6.13,17.44-14.38v-6.6l-16.97,1.18c-8.72.47-13.2,4.24-13.2,9.9h0c0,6.13,5.19,9.66,12.73,9.66v.24Z" />
        <path d="M729.77,643.74h31.58v68.35h.71l27.81-36.77h35.12l-34.17,41.48,36.3,55.62h-36.3l-23.57-36.77-5.66,6.83v29.93h-31.58v-128.68h-.24Z" />
        <path d="M824.75,723.87h0c0-31.35,18.62-50.67,48.32-50.67s47.84,19.09,47.84,48.55v9.19h-65.28c.47,13.2,7.54,20.74,19.09,20.74s15.79-5.89,17.2-9.9v-.47h28.52v1.18c-3.3,13.43-15.32,31.58-46.43,31.58s-49.26-19.09-49.26-50.44v.24ZM856.09,712.56h35.12c-1.65-10.84-8.25-16.73-17.44-16.73s-16.03,6.13-17.68,16.73Z" />
        <path d="M461.32,856.56h31.58v17.21h.71c4.95-12.02,15.32-19.33,28.99-19.33,24.51,0,38.89,18.38,38.89,50.44h0c0,32.05-14.14,50.67-38.42,50.67s-24.75-7.07-29.46-18.62h-.71v47.84h-31.58v-128.21ZM529.43,905.12h0c0-15.56-7.07-24.98-18.38-24.98s-18.38,9.43-18.38,24.98h0c0,15.32,7.31,24.98,18.38,24.98s18.38-9.43,18.38-24.98Z" />
        <path d="M571.15,905.12h0c0-31.35,18.62-50.67,48.32-50.67s47.84,19.09,47.84,48.55v9.19h-65.28c.47,13.2,7.54,20.74,19.09,20.74s15.79-5.89,17.2-9.9v-.47h28.52v1.18c-3.3,13.43-15.32,31.58-46.43,31.58s-49.26-19.09-49.26-50.44v.24ZM602.5,893.8h35.12c-1.65-10.84-8.25-16.73-17.44-16.73s-16.03,6.13-17.68,16.73Z" />
        <path d="M676.5,905.12h0c0-31.58,19.56-50.67,49.73-50.67s49.73,18.85,49.73,50.44h0c0,32.29-19.09,50.67-49.73,50.67s-49.73-18.62-49.73-50.44ZM743.67,905.12h0c0-16.97-7.07-26.63-17.68-26.63s-17.68,9.66-17.68,26.4h0c0,17.21,6.6,26.63,17.68,26.63s17.68-9.43,17.68-26.63v.24Z" />
        <path d="M787.98,856.56h31.58v17.21h.71c4.95-12.02,15.32-19.33,28.99-19.33,24.51,0,38.89,18.38,38.89,50.44h0c0,32.05-14.14,50.67-38.42,50.67s-24.75-7.07-29.46-18.62h-.71v47.84h-31.58v-128.21ZM856.09,905.12h0c0-15.56-7.07-24.98-18.38-24.98s-18.38,9.43-18.38,24.98h0c0,15.32,7.31,24.98,18.38,24.98s18.38-9.43,18.38-24.98Z" />
        <path d="M901.11,824.98h31.58v128.68h-31.58v-128.68Z" />
        <path d="M945.42,905.12h0c0-31.35,18.62-50.67,48.32-50.67s47.84,19.09,47.84,48.55v9.19h-65.28c.47,13.2,7.54,20.74,19.09,20.74s15.79-5.89,17.2-9.9v-.47h28.52v1.18c-3.3,13.43-15.32,31.58-46.43,31.58s-49.26-19.09-49.26-50.44v.24ZM976.76,893.8h35.12c-1.65-10.84-8.25-16.73-17.44-16.73s-16.03,6.13-17.68,16.73Z" />
        <path d="M458.49,1086.36h0c0-31.35,18.85-50.44,49.02-50.44s45.49,16.5,45.72,39.6v.71h-28.99v-.94c-1.41-8.96-7.07-15.32-16.26-15.32s-17.68,9.66-17.68,26.63h0c0,17.2,6.36,26.63,17.68,26.63s14.85-5.89,16.03-15.32v-.94h29.22v.71c-.71,22.63-17.68,39.6-45.72,39.6s-49.49-19.09-49.49-50.67l.47-.24Z" style="fill: #f04f3a;" />
        <path d="M564.55,1100.26v-62.46h31.58v55.62c0,11.08,5.19,17.68,15.56,17.68s16.26-7.54,16.26-18.38v-55.15h31.58v97.1h-31.58v-17.2h-.71c-4.95,12.26-14.85,19.09-29.46,19.09-21.21,0-33.47-13.67-33.47-36.53l.24.24Z" style="fill: #f04f3a;" />
        <path d="M675.09,1037.81h31.58v17.2h.71c2.59-12.26,10.37-19.33,21.68-19.33s5.89.47,8.25,1.18v27.1c-2.59-1.18-6.36-1.89-10.13-1.89-13.2,0-20.5,7.31-20.5,21.21v51.61h-31.58v-97.1h0Z" style="fill: #f04f3a;" />
        <path d="M746.74,1011.88c0-8.48,7.07-15.56,16.03-15.56s16.03,7.07,16.03,15.56-6.83,15.56-16.03,15.56-16.03-7.07-16.03-15.56ZM746.97,1037.81h31.58v97.1h-31.58v-97.1Z" style="fill: #f04f3a;" />
        <path d="M791.04,1086.36h0c0-31.58,19.56-50.67,49.73-50.67s49.73,18.85,49.73,50.44h0c0,32.29-19.09,50.67-49.73,50.67s-49.73-18.62-49.73-50.44ZM858.21,1086.36h0c0-16.97-7.07-26.63-17.68-26.63s-17.68,9.66-17.68,26.4h0c0,17.2,6.6,26.63,17.68,26.63s17.68-9.43,17.68-26.63v.24Z" style="fill: #f04f3a;" />
        <path d="M902.05,1100.26v-62.46h31.58v55.62c0,11.08,5.19,17.68,15.56,17.68s16.26-7.54,16.26-18.38v-55.15h31.58v97.1h-31.58v-17.2h-.71c-4.95,12.26-14.85,19.09-29.46,19.09-21.21,0-33.47-13.67-33.47-36.53l.24.24Z" style="fill: #f04f3a;" />
        <path d="M1008.58,1105.45v-.71h30.64v.71c1.65,6.6,6.6,10.37,16.03,10.37s13.43-3.06,13.43-8.01h0c0-4.48-3.06-6.83-11.78-8.72l-17.2-3.3c-19.09-3.77-28.99-13.43-28.99-28.28h0c0-19.33,16.5-31.58,43.13-31.58s42.89,14.38,43.13,31.82v.71h-28.75v-.71c-.71-5.66-5.66-10.37-14.38-10.37s-12.73,3.3-12.73,8.25h0c0,4.24,2.83,6.83,12.02,8.72l17.2,3.3c20.5,4.01,29.46,12.02,29.46,26.63h0c0,20.03-18.15,33-44.78,33s-44.31-12.73-46.43-31.58v-.24Z" style="fill: #f04f3a;" />
        <path d="M1109.93,1119.82c0-9.19,7.31-16.73,16.73-16.73s16.73,7.31,16.73,16.73-7.31,16.73-16.73,16.73-16.73-7.31-16.73-16.73Z" style="fill: #f04f3a;" />
    </symbol>
    <symbol id="logo-design" viewBox="0 0 1600 1600">
        <path d="M809.59,953.88c-57.19-1.87-114.38-3.97-173.43-5.84,8.4-18.44,15.87-35.48,23.81-52.29.7-1.63,3.97-3.03,6.07-3.27,49.02-3.97,98.27-7.7,147.29-11.67,35.25-2.8,70.49-5.84,105.74-9.34,6.3-.7,10.04.47,13.07,6.54,6.07,13.31,13.07,26.38,20.31,41.08-63.26,1.4-124.88,3.03-186.27,4.44v1.4c18.21.7,36.65,1.4,54.85,2.1,44.12,1.87,88.23,3.5,132.35,5.37,1.87,0,4.9,1.4,5.37,3.03,4.9,13.77,9.34,27.78,14.47,43.42-71.89,2.57-141.69,5.14-211.48,7.7v.93c70.73,1.63,141.45,3.27,213.35,4.9v46.22c-14.24-.93-27.31-1.4-40.38-2.33-47.15-3.03-94.07-6.07-141.22-9.1-53.45-3.5-107.14-7-160.6-10.04-6.3-.47-8.87-2.33-7.7-8.64,2.33-13.77,4.44-27.78,6.77-41.55.7-3.97,2.33-5.6,6.77-5.6,49.49-1.4,98.97-3.27,148.22-4.9,7.7-.23,15.17-.93,22.88-1.4v-1.17h-.23Z" />
        <path d="M626.12,1040.94h346.87c-1.4,14.01-6.77,26.38-12.84,38.51-11.44,22.88-25.21,43.65-48.79,55.79-8.87,4.67-18.21,7.47-28.48,7.47h-167.83c-14.94,0-27.31-7-38.51-15.64-28.24-21.71-41.08-52.52-50.42-86.13ZM922.57,1086.93h-243.69c1.4,7.24,5.84,9.8,12.37,9.8h219.18c6.54,0,10.27-2.8,12.14-9.8Z" />
        <path d="M800.25,867.51h-85.9c-3.03,0-6.07,0-9.1-.23-11.2-1.17-16.81-7.24-15.87-18.44.47-4.9,1.4-10.27,3.5-14.71,9.34-21.24,20.54-41.32,35.48-59.29,7.94-9.57,17.27-14.71,30.58-14.47,27.08.7,54.15.7,81.23,0,12.37-.23,21.94,4.2,30.58,12.14,3.27,3.03,6.54,6.07,8.64,9.8,9.8,17.27,20.54,34.08,28.71,52.05,10.27,22.41,2.8,32.91-21.47,32.91h-86.37v.23ZM725.09,818.49h150.79c-.47-6.54-3.03-9.57-9.1-9.57h-132.58c-6.07,0-8.64,3.03-9.1,9.57h0Z" />
        <path d="M796.29,596.74v46.45h-33.85c-2.33,0-4.67-2.8-6.3-4.9-2.33-2.8-3.97-6.07-5.84-9.34-12.6-22.18-25.44-44.58-38.05-66.76-3.03-5.37-8.4-10.97-4.9-17.74,3.73-6.77,10.97-4.44,17.04-4.44h155.46c12.6,0,15.41,3.97,10.27,15.64-2.33,5.14-5.14,9.8-7.94,14.71-10.97,20.07-21.94,39.92-32.68,60.22-4.67,9.1-10.04,14.94-21.47,13.54-6.54-.93-13.31,0-20.07,0v-46.68h36.18c6.07,0,8.87-2.33,9.34-8.87h-106.91c.23,6.3,3.03,8.87,9.1,8.87h40.15l.47-.7h0Z" />
        <path d="M795.35,697.81h-43.42v-47.85h96.4c0,7-.93,14.01,0,20.77,3.03,21.24,7,42.25,10.5,63.26,0,.93.47,1.87.7,2.57,2.8,14.24.7,16.81-13.77,16.81s-14.71-.47-22.18,0c-9.34.7-16.57-1.4-18.91-13.77-1.17,3.27-1.63,4.44-2.1,5.6-1.63,6.54-5.37,9.1-12.6,8.87-19.14-.47-38.28,0-56.49,0,4.44-13.77,9.1-28.24,13.54-42.72,1.17-4.2,3.5-5.37,7.47-5.14h33.85c5.84,0,8.17-1.63,6.3-8.64h.7v.23ZM808.19,697.81c-.47.7-.93,1.17-1.4,1.87,1.63,2.1,3.03,6.07,4.9,6.07,9.57.7,19.14.23,28.71.23.47-.7.93-1.4,1.4-2.1-1.63-2.1-3.03-5.84-4.9-6.07-9.57-.7-19.14,0-28.71,0h0Z" />
        <path d="M884.99,457.39c14.94,0,29.41-.23,43.88,0,3.73,0,10.27,1.87,10.74,3.97,1.4,5.84,3.27,12.6-2.33,17.97,3.97,3.97,4.2,5.6,3.03,26.14h-22.41c-1.17,0-3.03-2.57-3.27-4.2-.47-4.2,0-8.4,0-12.37s-.47-3.5-.93-5.37h-2.33v21.71h-26.38v-47.85h0ZM914.16,461.82c-5.37,5.14-4.9,13.54,0,15.41v-15.41Z" />
        <path d="M776.21,457.85v41.08c0,1.63-2.33,4.2-4.2,4.67-15.87,3.97-31.98,3.97-47.85,0-1.87-.47-4.44-3.97-4.44-6.3-.47-12.84,0-25.91,0-39.45h25.91v25.91c0,3.5-.23,7,0,10.27,0,1.87,1.63,3.73,2.57,5.37.93-1.87,2.33-3.73,2.33-5.6v-36.41h25.91v.47h-.23Z" />
        <path d="M659.03,485.4h24.98v11.67c0,1.17,1.4,2.33,2.33,3.5.93-1.17,2.57-2.33,2.8-3.73,1.17-9.34.7-10.27-8.17-12.6-5.14-1.4-10.27-3.03-15.17-4.44-8.17-2.33-5.14-9.1-5.84-14.47-.47-5.14,3.03-6.77,6.77-6.77,14.01-.23,28.01-.23,42.02,0,4.67,0,7,3.03,6.54,7.94v8.87h-24.98v-10.04c0-.93-1.63-1.87-2.33-2.8-.93.93-2.1,1.63-2.33,2.8-1.87,7,0,10.27,7.24,11.9,3.73.93,7.7,1.87,11.44,2.8,12.6,3.03,13.31,3.97,12.14,17.04-.23,2.57-2.8,6.3-4.9,6.77-15.64,3.97-31.51,3.73-47.38.47-1.87-.47-4.2-3.5-4.67-5.6-.7-3.97,0-8.17,0-13.07h-.47v-.23Z" />
        <path d="M780.41,457.62c15.41,0,29.41-.23,43.42,0,9.8.23,10.5,1.4,10.5,10.97,0,15.41-.93,16.34-16.81,16.34h-12.84v20.31h-24.51v-47.85h.23v.23ZM805.16,479.33h3.97v-14.47c0-.7-.93-1.63-1.63-1.87-.7,0-2.1.7-2.1.93v15.41h-.23Z" />
        <path d="M863.74,476.99h14.01c.23,3.03-4.44,5.37-14.24,7.24v15.17h17.04c.47.7.93,1.4,1.4,2.1-1.4,1.4-2.8,4.2-4.2,4.44h-38.98v-48.55h39.45c1.17,0,2.33,2.57,3.5,3.97-.23.47-.7,1.17-.93,1.63h-16.81v13.77h0l-.23.23Z" />
    </symbol>
    <symbol id="website-design" viewBox="0 0 1600 1600">
        <rect class="cls-1" x="544.2" y="544.2" width="511.61" height="511.61" rx="34.9" ry="34.9" />
        <path class="cls-2" d="M785.48,623.83v1.19c-28.85,13.83-48.81,43.28-48.81,77.46v273.69h-66.2v-237.33c0-63.43,51.58-115.01,115.01-115.01h0Z" style="fill: #fff;" />
        <path class="cls-2" d="M929.93,738.84v66.79h-66.2v-103.15c0-34.19-19.96-63.63-48.81-77.46v-1.19c63.63,0,115.01,51.58,115.01,115.01h0Z" style="fill: #fff;" />
        <polygon class="cls-2" points="929.93 841.99 929.93 976.17 863.73 976.17 863.73 874.2 751.68 874.2 751.68 841.99 929.93 841.99" style="fill: #fff;" />
    </symbol>
    <symbol id="digital-design" viewBox="0 0 1600 1600">
        <path d="M1285.9,1034.7h0c-1.5-3-3.1-6.6-4.6-10-5.4-12.5-8.3-22.4-9.4-32.1-.7-6.7,0-13.1.9-19.7.1-1.3.3-2.5.4-3.6.4-3.1.7-6,.7-11.7s-1-16.1-3.1-25.2c-1.9-8.4-4.4-16.4-7.4-23.8-8.3-20.8-20.6-41.7-36.7-62.1-8.4-10.9-18.6-22.3-30.2-33.9-1.4-1.3-2.9-2.7-4.3-4-1.4-1.3-2.8-2.7-4.3-4-28.6-26.6-59.7-48.1-92.5-63.9-5.7-2.7-12.5-5.8-19.2-8.3-20.4-8.1-40.5-13.1-59.9-14.7-5.7-.4-11.5-.4-17.1-.4h-8.2c-5.4-.2-11.6-.5-18.2-2.4h-.5c-9.3-.4-21-.7-27.8-.7s-13.1,0-19.2.2c-36,1.1-65.1,5.9-86.4,14.2-10.3,4-18.5,8.6-24.9,14-8.8,7.3-14.4,16.2-16.7,26.5-2.6,12-.9,27.1,5.2,46,4.6,14.5,11.8,28,21.4,40.3,13.5,17,31.8,32,54.5,44.5,21,11.5,42.4,19.1,56.6,23.8l15.5,5c22.9,7.6,44,14.5,64.1,20.8,0,0,.2,0,.3,0,.5.2,1,.3,1.5.5,0,0,.2,0,.3,0,.2,0,.4.1.6.2,0,0,.2,0,.2,0,.1,0,.2,0,.3,0h.2c0,.1.2.1.3.2,0,0,.2,0,.2,0,.3,0,.5.2.8.2,0,0,.2,0,.2,0,.1,0,.3,0,.4.1,0,0,0,0,.1,0,0,0,0,0,0,0,0,0,0,0,.1,0,.4.1.7.2,1.1.3h0c0,0,.1,0,.2,0h0c.2,0,.5.1.7.2,0,0,.2,0,.2,0,0,0,.2,0,.2,0,.4.1.9.3,1.3.4,0,0,.2,0,.2,0,.2,0,.4.1.7.2,0,0,.2,0,.3,0,0,0,.2,0,.2,0-2.1,1.3-4,3-5.8,4.6-1.1,1-2.2,2.1-3.2,3.1-.7.7-1.4,1.4-2.1,2.1-4.5,4.5-10.4,9.5-20.6,13.5,0,0-.2,0-.3.1-1.3.5-2.6,1-4.1,1.4-.1,0-.2,0-.3,0-1.3.4-2.6.8-4.1,1.2-.1,0-.2,0-.3,0-1.1.3-2.2.5-3.3.8-.1,0-.2,0-.3,0-1.3.3-2.6.5-3.9.8-.1,0-.2,0-.3,0-1.1.2-2.2.4-3.4.6-.1,0-.2,0-.3,0-1.5.2-3.1.4-4.8.6-.1,0-.2,0-.4,0-1.2.1-2.5.3-3.8.4-.1,0-.2,0-.4,0-1.5.1-3.1.3-4.8.4-.1,0-.2,0-.4,0-1.4,0-2.9.2-4.4.2-.1,0-.2,0-.4,0-1.5,0-3.1.1-4.7.2h-.4c-1.2,0-2.4,0-3.7,0h-.4c-1,0-2,0-3,0h-12.4l6.6,4.4c3,2,6.5,4.2,10.1,6.3,4.6,2.9,8.7,5.3,13.3,7.9,13.1,7.2,24.4,11.4,35.5,13.1,3.3.6,7.1.9,11.4.9h2.2c32.4-.9,61.2-20.7,82.7-37.8,2.1-1.5,4.3-3.2,6.3-5,28.6,9,81.2,38.8,116,58.6,40.3,22.8,63.5,35.6,70.9,35.6s.5,0,.7-.1c.2,0,.4,0,.7-.1,1.8-.5,3.3-1.1,4.5-2,1.2-.9,2.1-2,2.6-3.3,2.6-5.8-1-14.1-7.2-27.2Z" style="fill:#f0f0f0" />
        <path d="M972.1,717.6c-47.9-13.5-115-68.9-157.6-62.7-6.8,1.1,54.4,44.4,20.8,62.3-76.1,40-379.5,165.3-403.1,268.2-25.4-12.2-73.2-10.1-126.1,10.7,38.7,5.9,72.8,23,89.6,42.4,21.6,4.4,22.7-.7,48.3,55.5,55.7-60.3,9.8-96.2,9.8-96.2,193.7-162,318.1-129.4,482.2-75.9-50.1-16.4-130.9-50.9-137.1-138.8-4.8-64.7,111.9-68.2,173.1-65.6h0Z" />
        <path d="M933.2,1006.8h16l-31.3,154.3-60.8-249.2c6.6,2.2,13.3,3.5,19.7,3.9l40.9,166.8,15.5-75.9h0Z" />
        <path d="M1058.5,438.9l-50.3,260.6h-15.7l40-202.2-116.7,62.5-117,62.5,24,88.8c-6.6.4-12.9,1.5-19,3.7l-31.3-112.8,143-81.5,143-81.5h0Z" />
        <path d="M1236.6,955.9c-.9-2.6-.4-2.6,1.5-2.2,26,7,10.3,35.4-1.5,2.2Z" />

    </symbol>
    <symbol id="yakushev" viewBox="0 0 1600 1600">
        <rect width="1600" height="1600" style="fill: #eee;" />
        <polygon points="1026.48 788.79 1057.75 788.79 1057.75 924.26 1026.54 924.26 1026.54 870.04 974.11 870.04 974.11 924.29 942.74 924.29 942.74 788.79 973.94 788.79 973.94 841.78 1026.48 841.78 1026.48 788.79 1026.48 788.79" />
        <path d="M682.38,788.77h31.43v2.37c0,24.96,0,49.92,0,74.88,0,6.23.61,12.36,3.12,18.16,3.15,7.28,8.5,11.8,16.42,13.2,6.04,1.07,12,.92,17.76-1.28,6.76-2.59,10.53-7.94,12.81-14.52,1.77-5.11,2.15-10.44,2.16-15.77.04-24.84.02-49.67.02-74.51v-2.48h31.17c.05.4.16.86.16,1.32,0,27.05.04,54.09-.07,81.13-.04,9.08-1.55,17.94-5.21,26.33-4.06,9.33-10.64,16.4-19.51,21.31-13.43,7.45-27.97,8.53-42.89,7.17-6.26-.57-12.36-1.92-18.18-4.37-13.02-5.48-21.52-15.06-25.81-28.44-2.59-8.08-3.38-16.42-3.39-24.85-.02-25.88,0-51.76,0-77.64v-2.02h0Z" />
        <path d="M600.8,853.32c19.6,23.69,39.07,47.21,58.72,70.96-.77.06-1.27.13-1.78.13-11.48,0-22.96-.01-34.44.03-1.18,0-1.88-.37-2.6-1.29-15.92-20.33-31.87-40.63-47.82-60.93-.26-.33-.53-.66-1.13-1.4v63.48h-31.36v-135.49h31.25v58.48c.13.05.25.11.38.16,2.14-2.63,4.29-5.26,6.42-7.9,13.37-16.56,26.74-33.12,40.14-49.65.47-.58,1.35-1.16,2.05-1.16,11.6-.07,23.21-.05,34.81-.05.22,0,.45.04,1.04.1-18.66,21.62-37.11,43-55.68,64.52h0Z" />
        <path d="M1174.26,841.89v27.31h-49.51v26.53h54.33v28.53h-85.64v-135.42h85.68c.04.53.13,1.11.13,1.69,0,8.34-.03,16.68.04,25.02.01,1.57-.52,1.93-2,1.93-16.7-.05-33.4-.03-50.1-.03h-2.44v24.43h49.52,0Z" />
        <path d="M912.06,796.93c-2.65,9.43-5.25,18.72-7.8,27.79-4.37-2.2-8.6-4.56-13.02-6.5-6.16-2.71-12.56-4.65-19.42-4.17-3.64.25-7.25.79-10.13,3.32-5.23,4.58-5.08,12.66.61,16.76,3.35,2.41,7.12,4.31,10.87,6.09,8.03,3.8,16.38,6.93,23.86,11.86,7.26,4.79,13.14,10.68,15.89,19.13,2.24,6.89,2.58,13.96,1.14,21.06-3.69,18.24-15.45,28.58-32.99,32.79-13.33,3.2-26.46,1.3-39.35-2.73-6.87-2.15-13.49-4.89-19.6-8.77-.91-.58-1.29-1.06-.94-2.18,2.68-8.65,5.3-17.31,7.94-25.97.08-.28.21-.54.33-.86,3.49,1.98,6.81,4.05,10.29,5.8,8.59,4.33,17.67,6.99,27.37,7.06,2.2.02,4.43-.21,6.58-.63,4.63-.91,7.77-3.71,8.81-8.32,1.15-5.05-.18-9.48-4.3-12.86-4.71-3.86-10.2-6.31-15.76-8.63-6.29-2.62-12.57-5.27-18.21-9.15-8.3-5.71-14.45-12.97-16.87-23.02-3.93-16.33,3.5-33.18,18.33-41.47,11.33-6.33,23.54-7.73,36.18-6.34,9.15,1.01,17.91,3.53,26.17,7.66,1.36.68,2.65,1.5,4.02,2.28h0Z" />
        <path d="M521.55,924.41c-10.76,0-21.19.02-31.63-.06-.54,0-1.32-.75-1.56-1.33-3.06-7.21-6.07-14.44-9-21.7-.49-1.21-1.11-1.6-2.41-1.6-14.55.05-29.1.05-43.65,0-1.35,0-1.9.48-2.37,1.65-2.93,7.26-5.94,14.49-8.91,21.74-.31.76-.54,1.34-1.61,1.33-10.19-.05-20.38-.03-30.81-.03.23-.61.38-1.1.6-1.56,20.87-44.66,41.77-89.31,62.59-133.99.8-1.71,2.01-1.09,3.17-1.29,1.36-.23,1.9.49,2.42,1.6,20.39,43.67,40.8,87.32,61.21,130.98.62,1.32,1.22,2.65,1.97,4.26h0ZM455.25,842.98c-4.62,11.11-9.08,21.83-13.58,32.67h26.97c-4.45-10.87-8.83-21.54-13.39-32.67" />
        <path d="M1196.14,788.69c11.85,0,23.45-.02,35.05.07.56,0,1.34.89,1.62,1.54,3.76,8.78,7.44,17.58,11.15,26.38,6.04,14.33,12.09,28.66,18.15,42.99.26.62.55,1.22,1,2.18.43-.87.77-1.46,1.04-2.09,9.74-23.07,19.49-46.13,29.18-69.22.58-1.38,1.24-1.9,2.78-1.89,10.44.08,33.3.04,33.3.04,0,0-42.95,90.71-64,135.16-.57,1.2-1.17,1.74-2.57,1.73-1.34-.02-2.04-.37-2.63-1.63-21.09-44.56-42.23-89.1-63.35-133.65-.21-.43-.39-.88-.7-1.6" />
        <path d="M270.6,788.69h16.12c6.08,0,12.16.04,18.24-.03,1.3-.02,1.92.43,2.52,1.55,8.62,16.23,17.3,32.44,25.97,48.65.32.59.64,1.17,1.06,1.93,2.58-4.83,5.09-9.51,7.6-14.2,6.47-12.11,12.96-24.2,19.38-36.33.63-1.19,1.32-1.61,2.67-1.61,11.05.06,22.1.03,33.46.03-.4.73-.69,1.3-1.01,1.84-15.2,26.04-30.39,52.09-45.61,78.12-.84,1.43-1.23,2.83-1.23,4.5.05,16.25.03,32.51.03,48.76v2.35h-31.33v-2.13c0-16.56.02-33.12-.04-49.68,0-1.15-.34-2.44-.92-3.43-15.12-25.95-30.29-51.86-45.45-77.79-.43-.73-.84-1.48-1.44-2.54h0Z" />
        <path d="M593.71,675.58l33.76,47.07-22.72-10.59c-10.26-3.98-21.65-3.98-31.91,0l-22.72,10.59,33.76-47.07c2.8-2.51,7.03-2.51,9.83,0M570.64,704.93h35.84l-17.85-25.27-17.99,25.27Z" />
        <path d="M724.36,709.3v-33.45s5.54,7.09,6.8,23.32c.65,8.36,1.15,17.09.44,23.33l-.02.15-59.37-32.09v32.09s-4.05-9.48-5.89-23.4c-1.11-8.39-2.48-17.16-1.26-23.4l59.31,33.45h0Z" />
        <path d="M1046.67,709.3v-33.45s5.54,7.09,6.8,23.32c.65,8.36,1.15,17.09.44,23.33l-.02.15-59.37-32.09v32.09s-4.05-9.48-5.89-23.4c-1.11-8.39-2.48-17.16-1.26-23.4l59.31,33.45h0Z" />
        <path d="M839.73,681.87h-31.29v40.79h-7.29v-40.79h-31.29v-6.02l2.86-.38c21.29-2.85,42.86-2.85,64.14,0l2.86.38v6.02Z" />
        <path d="M939.63,682.8c4.08,4.08,6.02,9.49,6.02,16.45s-1.94,12.3-6.08,16.38c-4.41,4.48-13.24,8.36-30.69,8.36s-26.21-3.88-30.62-8.29c-4.15-4.15-6.08-9.56-6.08-16.45s1.94-12.3,6.08-16.45c4.48-4.48,13.24-8.29,30.62-8.29s26.28,3.81,30.76,8.29M884.01,686.68c-3.01,3.01-4.55,6.69-4.55,12.57s1.6,9.49,4.61,12.5c3.41,3.41,10.9,6.42,24.81,6.42s21.4-2.88,24.94-6.42c2.88-2.88,4.55-6.62,4.55-12.5s-1.67-9.56-4.61-12.5c-3.54-3.54-10.9-6.42-24.87-6.42s-21.33,2.81-24.87,6.35" />
    </symbol>
    <symbol id="harness" viewBox="0 0 1600 1600">
        <rect width="1600" height="1600" style="fill: #eee;" />
        <path d="M1040.07,413.29l-160.56,159.94h160.56v160.1h159.94v-320.04h-159.94ZM720.03,413.29l-160.1,159.94h160.1v160.1h159.48v-320.04h-159.48ZM559.93,866.67h-159.94v320.04h159.94l160.1-159.94h-160.1v-160.1ZM879.97,866.67h-159.94v320.04h159.48l160.56-159.94h-160.56l.46-160.1Z" />
    </symbol>
    <symbol id="last-slice" viewBox="0 0 1600 1600">
        <rect width="1600" height="1600" style="fill: #eee;" />
        <path d="M544.08,947.72c-13.48-22.69-26.97-45.27-37.45-69.54-11.02-25.62-18.4-52.05-15.57-80.36,2.49-25.25,14.49-44.49,37.08-56.46,12.06-6.14,25.18-9.89,38.66-11.06,7.15-.78,14.33-1.04,21.34-1.52v-43.55c-28.18.37-55.38,3.98-80.9,16.08-27.42,12.22-48.11,35.85-56.6,64.65-6.92,23.45-8.06,48.22-3.3,72.2,5.76,29.15,15.91,57.25,30.1,83.36,13.82,26.56,28.72,52.58,43.05,78.88,8.29,14.93,16.62,29.9,21.78,46.55,7.28,23.9-1.21,42.94-23.6,51.88-6.44,2.75-13.26,4.5-20.22,5.19-14.8,1.04-29.66.94-44.49,1.28h-5.06v42.98c1.28,0,2.22.24,3.2.24h42.98c15.01.23,29.96-2.05,44.22-6.74,25.65-8.87,42.47-25.99,48.67-52.75,5.73-24.74,1.69-48.47-7.42-71.7-9.61-24.61-23.19-47.02-36.47-69.61ZM1086.17,1045.64v-52.42h62.83v-34.99h-62.83v-168.54h62.83v-34.96h-105.44v325.79h111.98v-34.89h-69.37ZM730.66,744.49c.77-.04,1.53-.13,2.29-.27v-37.08h-62.6v-263.36h-37.42v300.61h1.38c32.13.11,64.25.15,96.34.1ZM912.24,605.75c11.12,17.63,23.09,34.72,34.28,52.31,4.34,6.83,8.02,14.05,10.99,21.57,3.2,8.12.2,15.61-6.91,20.73-6.38,4.53-13.9,7.18-21.71,7.65-10.85.81-21.74.74-32.63,1.01h-4.11v28.79c.71,0,1.25.2,1.79.2,12.64,0,25.28,0,37.92-.17,10.1-.2,20.1-1.97,29.66-5.22,24.91-8.7,37.08-29.39,32.22-55.38-2.93-13.15-8.52-25.56-16.42-36.47-11.49-17.29-23.6-34.11-34.92-51.51-9.24-13.18-15.15-28.4-17.22-44.36-1.69-16.48,3.37-30.13,17.9-38.9,5.29-3.33,11.1-5.76,17.19-7.18,9.81-2.06,19.89-2.7,29.87-3.94,1.35,0,3.37.64,3.37-1.85v-27.24c-.49-.16-1-.27-1.52-.34-18.22-.34-36.37,2.3-53.73,7.82-13.89,4.09-26.26,12.2-35.56,23.29-13.48,17.22-16.11,37.08-12.17,57.91,3.93,18.31,11.3,35.7,21.71,51.27ZM1071.11,737.75h35.76v-242.93h40.11v-29.16h-116.23v29.29h40.45l-.1,242.8ZM1006.05,749.88c-32.66,12.24-61.92,28.45-86.36,52.55-55.26,53.36-65.23,138.28-23.83,202.99,25.15,39.88,61.96,64.65,106.08,79.38.67.15,1.37.22,2.06.2.2-.4.33-.84.4-1.28v-35.39c0-1.28-1.72-2.9-3.03-3.71-10.42-6.74-21.47-12.34-31.25-19.75-32.7-24.91-52.96-57.3-55.31-99.07-2.68-34.8,9.2-69.14,32.8-94.85,15.19-16.48,33.76-29.5,54.44-38.16,2.81-.81,4.58-3.58,4.15-6.47-.2-10.55,0-21.1,0-31.65l-.13-4.79ZM737.36,1044.49h-62.22v-289.89h-42.2v325.79h104.49l-.07-35.9ZM791.3,1080.66h42.1v-325.86h-42.27l.17,325.86ZM870.48,718.91c-10,2.88-20.44-2.89-23.32-12.89-2.88-10,2.89-20.44,12.89-23.32,2.6-.75,5.33-.93,8-.53l-7.89-118.82c-9.59,4.08-20.68-.38-24.76-9.98-4.08-9.59.38-20.68,9.98-24.76,3.93-1.67,8.31-1.96,12.43-.82l-4.18-63.37s-48.74,117.91-82.15,199.32c5.25-1.54,10.86-1.31,15.98.64,13.1,4.95,19.7,19.58,14.75,32.68-4.95,13.1-19.58,19.7-32.68,14.75-5.61-2.09-10.28-6.12-13.18-11.36-9.13,22.18-15.27,37.08-15.88,38.76l130.85-10.11-.84-10.18ZM822.38,643.27c-13.09-4.96-19.68-19.6-14.71-32.69,4.96-13.09,19.6-19.68,32.69-14.71,13.08,4.96,19.67,19.59,14.72,32.67-4.97,13.09-19.6,19.68-32.7,14.73ZM721.89,1121.92v1.92c0,1.92,4.01,1.89,4.01,0v-1.92c0-1.96-4.01-1.96-4.01-.03v.03ZM725.87,1128.36c0-.81-.91-1.45-1.96-1.45s-1.99.64-1.99,1.45v20.22c.14,2.18-1.26,4.17-3.37,4.75-2.33.98-.94,3.37,1.55,2.7,3.95-1.04,6.42-4.96,5.66-8.97l.1-18.71ZM755.94,1126.91c-1.21,0-1.92.64-1.92,1.52v1.62c-2.21-2.32-5.33-3.55-8.53-3.37-1.95-.08-3.91.19-5.76.81h0c-4.61,1.07-7.99,5.02-8.33,9.74-.14,4.22,2.23,8.12,6.03,9.94,2.41,1.22,5.08,1.85,7.79,1.82,3.34.1,6.54-1.32,8.73-3.84v2.02c0,.91.71,1.52,1.92,1.52s1.99-.61,1.99-1.52v-18.78c.13-.88-.74-1.52-1.92-1.52v.03ZM754.02,1139.52c-.27,4.21-4.15,6.74-9.1,6.74-1.96-.09-3.86-.64-5.56-1.62-3.61-2.05-4.98-6.57-3.13-10.28,2.02-3.06,5.54-4.79,9.2-4.52,4.85.17,8.6,2.33,8.6,6.51v3.17ZM630.91,1145.52c-.81.3-1.67.45-2.53.47-3.67,0-4.15-2.56-4.15-4.96v-11.39h5.87c2.43,0,2.43-2.66,0-2.66h-5.87v-4.92c0-1.96-3.88-2.02-3.88,0v4.92h-3.57c-2.36,0-2.53,2.66,0,2.66h3.57v11.39c0,4.01,1.55,7.72,8.02,7.72,1.42.06,2.83-.18,4.15-.71,2.43-1.04.74-3.54-1.62-2.53ZM653.19,1126.61c-3.84-.3-7.6,1.26-10.11,4.18v-8.9c0-1.75-3.98-1.79-3.98,0v25.31c0,.91.81,1.52,2.06,1.52s1.92-.61,1.92-1.52v-10.52c0-4.35,4.92-7.21,10.11-7.21,4.17-.43,7.9,2.58,8.36,6.74v11.16c0,.91.81,1.52,1.99,1.52s1.96-.61,1.96-1.52v-11.16c-.07-6.24-6.07-9.61-12.3-9.61h0ZM690.27,1127.04h0c-2.66-.56-5.4-.56-8.06,0-10.11,2.19-12.57,11.93-6.74,17.9,3.04,2.59,6.94,3.93,10.92,3.78,3.39.17,6.74-.71,9.61-2.53,2.09-1.69-.71-3.37-2.6-2.09-2.18,1.23-4.65,1.85-7.15,1.79-4.37.48-8.49-2.16-9.88-6.34h21.3c2.16,0,2.73-.98,2.63-1.92-.27-5.53-4.54-10.02-10.04-10.58ZM676.15,1137.16c.47-3.75,3.43-6.7,7.18-7.15,1.91-.39,3.88-.39,5.8,0h0c3.81.44,6.84,3.39,7.38,7.18l-20.36-.03ZM1058.67,1128.53v19.01c0,1.82,3.91,1.85,3.91,0v-19.05c0-1.99-3.91-1.96-3.91-.13v.17ZM786.95,1145.75h-17.29l18.47-16.01h0c1.31-1.11.4-2.7-1.55-2.7h-19.99c-2.43,0-2.56,2.93,0,2.93h16.15l-18.2,15.98c-1.35.98-.81,2.6,1.38,2.6h21.1c2.73-.1,2.53-2.97-.07-2.97v.17ZM1006.62,1122.16c-5.02-3.03-13.21-.67-13.21,4.72v.94h-2.83c-2.09,0-2.16,2.56,0,2.56h2.9v17.22c0,1.89,3.94,1.89,3.94,0v-17.22h5.16c.71,0,1.28-.57,1.29-1.28s-.57-1.28-1.28-1.29h-5.27v-.88c0-3.37,4.85-4.25,7.04-2.63,1.65.74,4.15-1.21,2.26-2.49v.34ZM1058.6,1122.16v1.92c0,1.92,4.04,1.89,4.04,0v-1.92c0-2.19-4.05-2.19-4.05-.27v.27ZM1119.11,1145.75h-17.33l18.51-16.01h0c1.28-1.11.37-2.7-1.58-2.7h-19.99c-2.43,0-2.53,2.93,0,2.93h16.18l-18.24,15.98c-1.35.98-.81,2.6,1.42,2.6h21.07c2.9-.1,2.53-2.97-.03-2.97v.17ZM1148.74,1127.04c-1.21,0-1.92.64-1.92,1.52v1.62c-2.21-2.32-5.33-3.55-8.53-3.37-1.95-.08-3.91.19-5.76.81h0c-5.65,1.19-9.26,6.73-8.08,12.37.67,3.21,2.82,5.92,5.79,7.31,2.41,1.22,5.08,1.85,7.79,1.82,3.34.1,6.54-1.32,8.73-3.84v2.02c0,.91.71,1.52,1.92,1.52s1.99-.61,1.99-1.52v-18.91c.07-.88-.74-1.52-1.92-1.52v.17ZM1146.81,1139.65c-.27,4.21-4.15,6.74-9.13,6.74-1.94-.09-3.84-.65-5.53-1.62-3.61-2.05-4.98-6.57-3.13-10.28,2.02-3.06,5.54-4.79,9.2-4.52,4.85.17,8.6,2.33,8.6,6.51v3.17ZM975.61,1127.18c-1.31-.27-2.64-.39-3.98-.37-1.38-.03-2.76.1-4.11.37-5.2.68-9.33,4.72-10.11,9.91-.21,3.09,1.04,6.09,3.37,8.12,2.98,2.6,6.84,3.96,10.79,3.81,3.95.13,7.8-1.23,10.79-3.81,2.34-2.03,3.59-5.04,3.37-8.12-.74-5.24-4.87-9.36-10.11-10.08v.17ZM979.39,1143.36c-2.18,1.81-4.92,2.8-7.75,2.8-2.83.05-5.58-.95-7.72-2.8-1.51-1.38-2.36-3.32-2.36-5.36.07-4.08,3.11-7.49,7.15-8.02.94-.19,1.9-.3,2.87-.3,1,.01,1.99.11,2.97.3,4.08.53,7.15,3.98,7.21,8.09-.1,1.95-.94,3.78-2.36,5.12v.17ZM1090.62,1145.75h-17.29l18.51-16.01h0c1.28-1.11.37-2.7-1.58-2.7h-19.99c-2.43,0-2.53,2.93,0,2.93h16.18l-18.34,15.88c-1.35.98-.81,2.6,1.42,2.6h21.07c2.76,0,2.56-2.87-.03-2.87l.07.17ZM1043.43,1127.62h0c-1.68-.53-3.43-.8-5.19-.81-3.36-.18-6.61,1.19-8.83,3.71v-1.99c0-.91-.57-1.45-1.82-1.45s-1.99.54-1.99,1.45v26.22c0,1.96,3.91,1.96,3.91,0v-9.07c2.26,2.38,5.46,3.61,8.73,3.37,8.09,0,13.48-4.52,13.82-10.52.14-5.28-3.47-9.93-8.63-11.09v.17ZM1047.38,1141.67c-2.06,3.02-5.55,4.74-9.2,4.52-4.92-.17-8.6-2.8-8.6-6.51v-3.37c0-4.15,4.18-6.57,9.07-6.57,1.96.05,3.87.6,5.56,1.58,2.54,1.49,4.06,4.24,3.98,7.18-.08,1.05-.36,2.08-.81,3.03v.13ZM866.53,1128.53v19.01c0,1.82,3.94,1.85,3.94,0v-19.05c0-1.99-3.94-1.96-3.94-.13v.17ZM848.46,1136.21c-4.31-.24-8.29-.2-8.29-2.9s4.69-3.67,7.82-3.67c2.43,0,6.94.17,8.12,2.6.71,1.62,4.45.81,3.67-1.08-1.89-3.81-7.65-4.35-11.8-4.35-5.19,0-11.76,1.92-11.76,6.47,0,5.19,6.27,5.56,12.1,5.97,4.35.27,8.46.4,8.46,3.1s-5.66,3.84-8.33,3.84c-3.91,0-8.12-.98-8.66-2.87-.54-1.89-4.42-1.25-3.78.54,1.08,4.21,7.99,5.12,12.44,5.12s12.24-1.31,12.24-6.74-6.3-5.76-12.24-6.2v.17ZM815.46,1145.75h-17.29l18.47-16.01h0c1.31-1.11.4-2.7-1.55-2.7h-20.02c-2.43,0-2.53,2.93,0,2.93h16.18l-18.24,15.98c-1.35.98-.81,2.6,1.42,2.6h21.07c2.76-.1,2.56-2.97-.03-2.97v.17ZM866.5,1122.16v1.92c0,1.92,4.04,1.89,4.04,0v-1.92c0-2.19-4.04-2.19-4.04-.27v.27ZM927.61,1127.31h0c-2.67-.56-5.42-.56-8.09,0-10.11,2.19-12.57,11.93-6.74,17.9,3.05,2.59,6.96,3.94,10.96,3.78,3.38.18,6.72-.71,9.57-2.53,2.12-1.69-.67-3.37-2.56-2.09-2.19,1.23-4.67,1.84-7.18,1.79-4.37.48-8.49-2.16-9.88-6.34h21.3c2.19,0,2.73-.98,2.63-1.92-.12-5.62-4.41-10.28-10.01-10.85v.27ZM913.49,1137.43c.47-3.75,3.43-6.7,7.18-7.15,1.92-.39,3.91-.39,5.83,0h0c3.81.44,6.84,3.39,7.38,7.18l-20.39-.03ZM898.82,1122.19v8.39c-2.25-2.38-5.46-3.62-8.73-3.37-8.09,0-13.48,4.52-13.79,10.52-.09,5.26,3.53,9.85,8.66,10.99h0c1.67.53,3.41.8,5.16.81,3.37.19,6.63-1.19,8.83-3.74v1.99c0,.94.61,1.48,1.85,1.48s1.99-.54,1.99-1.48v-25.48c.13-2.49-3.98-2.49-3.98-.54v.44ZM898.82,1139.92c0,4.11-4.15,6.74-9.03,6.74-1.96-.07-3.87-.63-5.56-1.62-3.62-2.04-5.01-6.56-3.17-10.28,2.02-3.06,5.54-4.79,9.2-4.52,4.89.17,8.56,2.76,8.56,6.51v3.17Z" />
    </symbol>
    <symbol id="brown-lodge" viewBox="0 0 1600 1600">
        <rect width="1600" height="1600" style="fill: #eee;" />
        <path d="M490.87,1146.08h112.31V453.95h-112.31v-14.16h325.81v14.16h-112.31v692.09h180.11c59.36,0,105.89-18.56,139.63-55.64,33.71-37.08,58.34-87.68,73.87-151.79h11.14v221.59H490.87v-14.13Z" />
        <path d="M1049.41,879.96c-12.81-22.25-29.52-40.98-50.1-56.17-20.58-15.19-43.5-26.94-68.8-35.38-25.3-8.44-50.1-13.66-74.34-15.71v-2.02c23.6-2.7,46.17-8.41,67.78-17.21,21.58-8.77,40.63-20.23,57.16-34.42,16.53-14.19,29.7-30.69,39.49-49.6,9.76-18.85,14.66-39.46,14.66-61.71,0-16.18-3.4-34.24-10.11-54.14-6.77-19.88-19.26-38.43-37.44-55.64-18.23-17.21-43.21-31.72-74.87-43.5-17.59-6.54-37.87-11.26-60.83-14.16v23.6c8.06,3.52,15.68,7.97,22.89,13.34,14.48,10.76,26.27,26.82,35.38,48.05,9.12,21.25,13.66,49.45,13.66,84.49,0,31.04-3.05,56.69-9.12,76.89-6.07,20.23-14.66,36.26-25.8,48.08-11.17,11.84-24.48,20.11-39.99,24.8-15.54,4.72-32.74,7.09-51.59,7.09h-57.75v14.16h75.98c45.17,0,79.24,15.51,102.19,46.52,22.92,31.04,34.42,73.55,34.42,127.52,0,37.79-3.4,69.15-10.14,94.1-6.74,24.98-17.35,45.03-31.87,60.21-.06.06-.12.12-.18.18,36.88-4.31,65.78-18.38,87.89-42.68,29.52-32.51,50.33-56.99,64.38-114.97l.59-5.39c2.43-22.81-1.91-46.02-13.28-65.93-.12-.12-.18-.26-.26-.38Z" />
    </symbol>
    <symbol id="stern" viewBox="0 0 1600 1600">
        <rect width="1600" height="1600" style="fill: #eee;" />
        <path d="M718.52,644.09l-124.73,175.02-22.13,30.18-144.85-205.2h0v303.77h38.22v-185.08l106.62,148.87h0l22.13-30.18,86.51-122.72v191.12h38.22v-305.79h0Z" />
        <path d="M963.96,823.14c-6.04-12.07-16.09-20.12-26.15-26.15-10.06-6.04-24.14-12.07-38.22-18.11-20.12-8.05-36.21-16.09-46.27-22.13-12.07-8.05-16.09-18.11-16.09-30.18s4.02-22.13,14.08-30.18c10.06-8.05,22.13-10.06,38.22-10.06,10.06,0,22.13,2.01,34.2,6.04,12.07,4.02,24.14,8.05,34.2,14.08l16.09-30.18c-26.15-16.09-56.33-24.14-88.52-24.14-26.15,0-46.27,8.05-62.36,22.13-16.09,14.08-24.14,32.19-24.14,56.33,0,16.09,4.02,28.16,12.07,40.24,8.05,10.06,18.11,18.11,28.16,24.14,12.07,6.04,24.14,12.07,42.25,18.11,18.11,8.05,32.19,14.08,42.25,22.13,10.06,8.05,14.08,18.11,14.08,32.19,0,16.09-6.04,28.16-18.11,36.21-12.07,8.05-26.15,12.07-40.24,12.07-12.07,0-26.15-2.01-40.24-8.05-14.08-6.04-26.15-12.07-36.21-20.12l-18.11,32.19c12.07,10.06,28.16,16.09,44.26,22.13,16.09,6.04,34.2,8.05,52.31,8.05,20.12,0,36.21-4.02,50.29-10.06,14.08-8.05,26.15-18.11,34.2-30.18,8.05-12.07,12.07-26.15,12.07-42.25-4.02-18.11-8.05-32.19-14.08-44.26Z" />
        <path d="M424.81,424.81v185.08h38.22v-146.86h673.94v673.94H463.03v-146.86h-38.22v185.08h750.38V424.81H424.81Z" />
    </symbol>
    <symbol id="jojos" viewBox="0 0 1600 1600">
        <rect width="1600" height="1600" style="fill: #eee;" />
        <path d="M1240.81,907.56c-4.41.54-12.27.53-16.7,0-12.26-1.46-53.15-14.99-53.18-28.92-.39-6.57,9.5-17.37,15.71-18.01,21.45,7.15,44.64,27.38,65.01,6.54,5.53-17.05-27.65-19.94-38.64-24.4-15.63-6.33-33.14-14.8-36.02-33.21-5.28-33.67,23.63-50.53,54.04-51.01,14.71-.23,61.17,9.13,52.23,29.74-11.46,26.41-31.04-1.79-49.46-1.53-7.89.11-19.09,5.24-18.17,14.57,1.72,17.65,59.8,15.49,71.63,45.07,13.58,33.94-14.79,57.27-46.45,61.15Z" />
        <path d="M586.2,693.38c147.73-15.27,163.31,199.4,24.23,211.38-146.18,12.6-159.93-197.36-24.23-211.38ZM583.28,742.84c-8.03,1.64-21.34,11.41-26.65,17.71-38.81,46.01,10.93,119.64,68.87,90.24,55.36-28.09,29.78-122.65-42.22-107.95Z" />
        <path d="M989.09,693.38c147.73-15.27,163.31,199.4,24.23,211.38-146.18,12.6-159.93-197.36-24.23-211.38ZM986.18,742.84c-8.03,1.64-21.34,11.41-26.65,17.71-38.81,46.01,10.93,119.64,68.87,90.24,55.36-28.09,29.78-122.65-42.22-107.95Z" />
        <path d="M812.9,696.02c6.08-6.02,48.66-5.45,51.83,3.86-4.31,82.86,33.11,226.48-102.74,203.7-39.25-6.58-67.53-35.31-22.88-61.78,13.62-3.68,27.79,26.64,55.61,11.2,8.8-4.89,13.61-14.12,14.8-23.91,2.53-20.89-4.83-124.93,3.38-133.06Z" />
        <path d="M458.15,696.02c3.15,4.29,3.13,9.36,3.56,14.39,2.93,34.48,2.96,113.96-5.84,146.01-11.87,43.22-57.2,53.42-97.38,47.15-12.78-2-53.56-17.96-48.84-34.67,1.05-3.72,20.73-24.6,23.99-26.12,12.11-5.61,22.97,15.24,40.3,15.23,24.53-.02,30.5-19.55,32.1-39.91,1.53-19.49-3.74-111.61,1.26-120,4.67-7.83,45.3-7.57,50.86-2.07Z" />
        <path d="M1140.62,791.8c15.5-16.61-4.74-29.62-2.35-42.02,2.5-12.96,19.38-17.57,27.1-5.88,11.52,17.46-19.33,52.29-24.75,47.9Z" />
    </symbol>
    <symbol id="aplaw" viewBox="0 0 1600 1600">
        <rect width="1600" height="1600" style="fill:#eee;" />
        <rect x="635.01" y="545.48" width="600.45" height="600.45" style="fill:#6f6f73;" />
        <rect x="364.54" y="454.06" width="600.45" height="600.45" />
        <path d="M1172.17,541.16l-168.24,143.35s-12.44-33-34.08-28.67l129.29-114.68h11.9l-3.79,7.03-85.47,71.41,104.94-78.44h45.44Z" style="fill:#fff;" />
        <path class="cls-2" d="M969.86,665.03s22.72-4.87,24.34,22.18l-30.83,34.08-7.57,15.69-21.64,5.95-23.8,7.03h-21.64l-19.47,15.69-4.33-10.28,38.41-34.08,20.56.54,1.62-14.61,44.36-42.19Z" style="fill:#fff;" />
        <polygon class="cls-2" points="868.7 675.31 910.89 520.06 868.7 535.21 616.08 794.86 603.64 801.35 574.97 805.14 574.97 813.79 678.29 813.79 678.29 802.98 652.32 802.98 653.4 787.83 740.5 696.95 828.13 690.46 802.16 795.94 835.16 795.94 863.29 686.13 926.58 681.26 926.58 675.31 868.7 675.31" style="fill:#fff;" />
        <polygon points="760.51 675.31 834.62 675.31 866 566.04 760.51 675.31" />
        <path class="cls-2" d="M510.05,924.69s98.45-84.93,360.81-129.83c0,0,216.38-35.16,348.91-17.85v6.49l-136.32,9.2,84.93,102.78-1.62,14.61s-17.85,28.67-82.22,29.75c0,0-63.29-4.33-87.63-37.87l163.91-1.08-84.93-107.11-83.85,7.03-75.73,254.25-1.08,23.26h28.67l-1.08,15.15h-106.57v-15.15l28.67-1.08,12.44-9.74,85.47-261.28s-113.6,12.44-127.12,24.34l-68.7,220.71v25.97l25.42,2.7v13.52h-103.86v-15.15l22.72-2.7,9.74-3.79,77.36-233.69s-144.97,38.95-164.99,57.88l76.81,93.58-1.08,11.9s-28.13,31.38-85.47,29.75c0,0-60.59,1.62-85.47-37.87l160.12-1.62-73.03-93.04s-40.57,15.15-52.47,29.75l-62.75-3.79Z" style="fill:#fff;" />
    </symbol>
    <symbol id="sotiriou" viewBox="0 0 1600 1600">
        <rect width="1600" height="1600" style="fill: #eee;" />
        <path d="M841.28,1207.74c11.42-14.27,31.39-37.1,51.37-59.93,37.1-48.52,57.08-99.89,54.22-162.67-2.85-39.95-22.83-71.35-45.66-102.74-42.81-57.08-91.32-108.45-145.55-151.26-28.54-22.83-51.37-42.81-74.2-68.49-45.66-54.22-45.66-151.26-2.85-208.33,2.85-2.85,8.56-8.56,14.27-14.27v11.42c-14.27,51.37-5.71,97.03,28.54,136.99,22.83,28.54,51.37,54.22,79.91,77.05,62.79,51.37,122.72,108.45,171.23,174.09,59.93,85.62,62.79,188.36,8.56,268.27-37.1,57.08-94.18,82.76-139.84,99.89Z" />
        <path d="M615.83,588.45c-19.98,65.64,8.56,111.3,54.22,151.26,37.1,31.39,74.2,65.64,111.3,97.03,48.52,42.81,54.22,94.18,37.1,151.26,0,2.85-2.85,5.71-2.85,8.56-31.39-71.35-85.62-119.86-139.84-165.53-22.83-19.98-42.81-37.1-62.79-59.93-39.95-45.66-42.81-122.72-11.42-168.38,2.85-5.71,8.56-11.42,14.27-14.27Z" />
        <path d="M975.42,582.74c-28.54-102.74-77.05-182.65-202.63-185.5,31.39-8.56,82.76-5.71,128.42,5.71q71.35,17.12,74.2,91.32c2.85,22.83,2.85,45.66,2.85,68.49v14.27c2.85,2.85,0,2.85-2.85,5.71Z" />
        <ellipse class="cls-1" cx="952.52" cy="451.89" rx="5.71" ry="8.56" transform="translate(-101.63 467.89) rotate(-26.25)" style="fill:#fff" />
    </symbol>
    <symbol id="morse" viewBox="0 0 1600 1600">
        <rect width="1600" height="1600" style="fill: #eee;" />
        <path d="M303.99,676.82h-1.26v271.86h-3.83v-296.42h46.99l132.1,248.55,135.49-248.55h43.16v296.42h-49.12v-276.94l-153.21,282.03h-2.52l-147.8-276.94ZM708.55,876.03c0-54.97,44.25-85.5,89.05-85.5,38.56,0,71.44,29.87,71.44,76.52,0,54.97-44.25,85.17-89.05,85.17-38.84,0-71.44-29.87-71.44-76.2ZM798.8,945.39c22.1,0,42.17-15.86,42.17-45.46,0-65.75-30.8-102.51-62.19-102.51-22.43,0-42.45,16.46-42.45,45.73,0,65.15,31.07,102.23,62.47,102.23ZM903.72,794.15h31.67v46.33l5.96-9.24c15.86-24.83,32.6-40.64,47.53-40.64,8.04,0,14.33,3.61,14.33,12.25,0,10.17-7.17,20.29-16.74,20.29-3.88,0-17.61-1.48-25.98-1.48-7.17,0-13.13,3.88-18.82,12.85l-6.29,9.85v104.31h-31.67s0-154.53,0-154.53ZM1013.72,921.16c0-8.1,6.29-13.46,13.73-13.46,2.08,0,25.38,38.84,59.18,38.84,13.73,0,23.63-7.77,23.63-22.43,0-11.65-8.37-18.82-16.74-24.23l-50.21-36.16c-12.53-8.37-22.43-15.53-22.43-30.8,0-23.3,24.83-42.45,59.51-42.45,27.79,0,51.09,13.13,51.09,31.4,0,7.49-4.49,13.46-12.85,13.46-2.41,0-19.75-38.84-53.22-38.84-13.46,0-23.03,5.96-23.03,16.14,0,11.05,7.77,17.61,16.74,23.63l50.21,35.55c16.74,11.38,23.63,19.14,23.63,33.48,0,21.5-20.62,46.93-64.55,46.93-28.06,0-54.7-13.13-54.7-31.07ZM1155.06,873.35c0-46.6,34.08-82.81,77.73-82.81,35.55,0,56.78,20.9,56.5,55.3h-111.48c.27,49.61,28.72,82.21,72.91,82.21,24.83,0,42.12-13.46,49.34-36.48l1.48.6c-6.89,32.27-31.4,60.06-72.04,60.06s-74.45-31.67-74.45-78.88ZM1236.34,843.16c12.25,0,19.42-6.56,19.42-17.61,0-15.53-15.26-28.99-35.55-28.99-24.51,0-41.57,17.01-42.45,46.6,0,0,58.58,0,58.58,0ZM813.63,677.42c-9.46,0-16.36,2.52-22.21,7.71v40.37h-16.08v-36.27c0-8.37-6.89-11.82-15.92-11.82s-16.36,2.52-22.04,7.6v40.48h-16.19v-54.64h16.19v13.02c8.1-7.28,20.02-14.28,33.37-14.28,10.99,0,19.91,4.65,20.68,14.28,8.1-7.28,20.02-14.28,33.37-14.28,11.6,0,20.79,4.98,20.79,15.43v40.48h-16.19v-36.27c0-8.37-6.89-11.82-15.75-11.82ZM862.8,698.86c0-16.46,17.45-29.26,39.77-29.26,18.21,0,29.05,7.38,28.94,19.53h-57.05c.16,17.56,14.71,29.05,37.3,29.05,12.69,0,21.55-4.76,25.27-12.91l.77.22c-3.5,11.43-16.08,21.22-36.87,21.22s-38.07-11.21-38.07-27.9l-.05.05ZM904.43,688.19c6.29,0,9.96-2.3,9.96-6.24,0-5.47-7.82-10.23-18.21-10.23-12.53,0-21.28,6.02-21.72,16.46h29.98ZM952.73,646.24h16.19v79.26h-16.19v-79.26ZM1003.54,646.35c5.63,0,10.12,3.06,10.12,7s-4.43,6.95-10.12,6.95-9.79-3.06-9.79-6.95,4.16-7,9.79-7ZM995.28,670.85h16.19v54.64h-16.19v-54.64ZM1077.28,677.42c-9.46,0-17.72,2.52-23.74,7.71v40.37h-16.19v-54.64h16.19v13.02c8.26-7.28,21.72-14.28,35.06-14.28,11.49,0,20.68,4.98,20.68,15.43v40.48h-16.19v-36.27c0-8.37-6.73-11.82-15.75-11.82h-.05ZM1126.56,703.51c0-20.18,25.54-33.91,44.36-33.91,6.73,0,12.25,1.91,16.52,3.99v-27.35h16.19v69.85c0,3.17,1.7,4.98,5.8,6.13l-12.53,4.54c-5.8-1.37-9.63-4.32-9.63-8.48v-2.95c-9.96,7-20.95,11.43-31.23,11.43-13.62,0-29.54-7.6-29.54-23.25h.05ZM1168.63,721.07c5.8,0,13.78-3.39,18.65-7.06v-28.66c-6.13-5.2-17.72-10.99-28.77-10.99-9.96,0-20.35,4.98-20.35,18.6,0,19.86,17.89,28.12,30.47,28.12ZM1224.2,714.07c0-12.14,20.51-21.33,37.47-21.33,4.76,0,8.7.93,11.6,2.02v-15.32c0-5.69-5.36-8.59-13.46-8.59-17.01,0-23.41,17.56-24.61,17.56-7.82,0-10.23-2.41-10.23-5.42,0-7.28,20.95-13.4,37.31-13.4s26.75,5.91,26.75,14.28v31.89c0,2.84,1.97,4.32,5.96,5.47l-11.92,5.47c-5.96-1.15-9.46-4.1-9.46-8.48v-3.17h-.33c-7.66,6.67-19.25,11.6-30.14,11.6-11.92,0-18.98-5.69-18.98-12.69l.05.11ZM1254.67,720.52c8.26,0,15.15-3.5,18.98-6.89v-8.75c-6.89-5.42-16.08-8.15-23.74-8.15-10.99,0-17.12,4.65-17.12,10.45,0,7.93,11.16,13.29,21.88,13.29v.05Z" />
    </symbol>
    <symbol id="cx" viewBox="0 0 1600 1600">
        <rect width="1600" height="1600" style="fill: #eee;" />
        <path d="M581.97,1138.36c-206.27,0-296.74-142.94-296.74-332.93s94.99-343.78,296.74-343.78c118.51,0,239.74,56.09,243.36,192.7h-115.8c-7.24-70.57-62.42-104.94-128.47-104.94-137.51,0-179.13,140.23-179.13,256.03s44.33,247.89,181.84,247.89c66.04,0,131.18-37.09,134.8-114.9h117.61c-12.67,144.75-131.18,199.94-254.22,199.94Z" />
        <path d="M1184.49,1127.5l-118.51-177.32-115.8,177.32h-113.99l173.7-235.22-164.65-220.75h130.28l104.04,159.23,106.75-159.23h113.09l-161.04,220.75,176.42,235.22h-130.28Z" />
    </symbol>
    <symbol id="br" viewBox="0 0 1600 1600">
        <rect width="1600" height="1600" style="fill: #eee;" />
        <path d="M629.92,1127.05h-244.27V472.95h247.89c109.47,0,218.03,33.47,218.03,164.65,0,80.52-47.95,127.56-121.23,148.37,85.95,15.38,145.66,65.14,145.66,158.32,0,144.75-128.47,182.75-246.08,182.75ZM616.35,555.28h-121.23v196.32h112.18c69.66,0,131.18-22.62,131.18-101.33,0-71.47-57.9-94.99-122.13-94.99ZM621.78,829.4h-126.66v215.32h107.66c77.8,0,158.32-12.67,158.32-106.75,0-86.85-62.42-108.56-139.32-108.56Z" />
        <path d="M1174.54,759.74c-89.56,0-121.23,50.66-121.23,134.8v232.51h-104.94v-321.17c0-31.66-.9-94.09-2.71-134.8h102.23l2.71,75.09c30.76-53.38,75.99-78.71,139.32-78.71,7.24,0,15.38.9,24.43,1.81v94.09c-14.48-1.81-27.14-3.62-39.81-3.62Z" />
    </symbol>
    <symbol id="me" viewBox="0 0 1600 1600">
        <rect width="1600" height="1600" style="fill: #eee;" />
        <path d="M806.79,1122.07v-573.58l-213.51,573.58h-100.42l-213.51-573.58v573.58h-99.52V467.98h173.7l194.51,533.77,189.08-533.77h173.7v654.09h-104.04Z" />
        <path d="M1088.14,914.9v7.24c0,75.99,38.9,143.85,122.13,143.85,58.8,0,98.61-34.38,106.75-94.09h101.33c-17.19,113.09-106.75,160.13-211.7,160.13-145.66,0-221.65-91.37-221.65-230.7s75.09-246.08,227.08-246.08c162.84,0,208.08,117.61,208.08,259.65h-332.02ZM1210.27,722.2c-75.09,0-113.09,59.71-119.42,128.47h227.08c0-67.85-32.57-128.47-107.66-128.47Z" />
    </symbol>
    <symbol id="sg" viewBox="0 0 1600 1600">
        <rect width="1600" height="1600" style="fill: #eee;" />
        <path d="M545.79,1051.96c-125.75,0-237.93-50.66-245.17-192.7h112.18c6.33,75.99,65.14,109.47,135.7,109.47,65.14,0,139.32-30.76,139.32-104.95,0-54.28-47.95-79.61-115.8-100.42l-65.14-19.9c-102.23-31.66-189.99-77.8-189.99-180.03,0-136.61,126.66-186.37,244.27-186.37s225.27,41.62,226.17,177.32h-112.18c-6.33-71.47-52.47-97.71-119.42-97.71-60.61,0-124.85,28.95-124.85,96.8,0,52.47,53.38,80.52,123.94,101.33l55.19,16.29c124.85,37.09,193.6,86.85,193.6,182.75,0,142.94-133.89,198.13-257.84,198.13Z" />
        <path d="M1296.67,747.98v183.65c0,184.56-28.04,291.31-227.98,291.31-94.09,0-201.75-27.14-201.75-144.75h100.42c0,59.71,48.85,78.71,100.42,78.71,117.61,0,123.94-89.56,123.94-183.65v-13.57c-35.28,51.57-85.95,75.99-149.27,75.99-136.61,0-201.75-103.13-201.75-228.89s66.95-229.79,201.75-229.79c66.04,0,117.61,25.33,151.99,80.52l.9-71.47h104.04c-1.81,69.66-2.71,109.47-2.71,161.94ZM1072.31,643.94c-91.37,0-121.23,86.85-121.23,164.65s30.76,159.23,120.32,159.23,120.32-86.85,120.32-165.56c0-73.28-34.38-158.32-119.42-158.32Z" />
    </symbol>
    <symbol id="cw" viewBox="0 0 1600 1600">
        <rect width="1600" height="1600" style="fill: #eee;" />
        <path d="M427.72,1138.36c-206.27,0-296.74-142.94-296.74-332.93s94.99-343.78,296.74-343.78c118.51,0,239.74,56.09,243.36,192.7h-115.8c-7.24-70.57-62.42-104.94-128.47-104.94-137.51,0-179.13,140.23-179.13,256.03s44.33,247.89,181.84,247.89c66.04,0,131.18-37.09,134.8-114.9h117.61c-12.67,144.75-131.18,199.94-254.22,199.94Z" />
        <path d="M1307.08,1127.5h-108.56l-118.51-358.26-122.13,358.26h-108.56l-162.84-455.97h114.9l107.66,356.45,116.71-356.45h119.42l115.8,352.83,106.75-352.83h101.33l-161.94,455.97Z" />
    </symbol>
    <symbol id="ct" viewBox="0 0 1600 1600">
        <rect width="1600" height="1600" style="fill: #eee;" />
        <path d="M669.73,1138.36c-206.27,0-296.74-142.94-296.74-332.93s94.99-343.78,296.74-343.78c118.51,0,239.74,56.09,243.36,192.7h-115.8c-7.24-70.57-62.42-104.94-128.47-104.94-137.51,0-179.13,140.23-179.13,256.03s44.33,247.89,181.84,247.89c66.04,0,131.18-37.09,134.8-114.9h117.61c-12.67,144.75-131.18,199.94-254.22,199.94Z" />
        <path d="M1143.78,1132.93c-81.42,0-127.56-26.24-127.56-113.09v-277.74h-87.76v-71.47h87.76v-82.33l104.94-42.52v124.85h104.04v71.47h-104.04v238.84c0,52.47,4.52,76,62.42,76,14.48,0,27.14-1.81,43.43-4.52v74.18c-28.95,3.62-56.09,6.33-83.23,6.33Z" />
    </symbol>
    <symbol id="ce" viewBox="0 0 1600 1600">
        <rect width="1600" height="1600" style="fill: #eee;" />
        <path d="M588.3,1138.36c-206.27,0-296.74-142.94-296.74-332.93s94.99-343.78,296.74-343.78c118.51,0,239.74,56.09,243.36,192.7h-115.8c-7.24-70.57-62.42-104.94-128.47-104.94-137.51,0-179.13,140.23-179.13,256.03s44.33,247.89,181.84,247.89c66.04,0,131.18-37.09,134.8-114.9h117.61c-12.67,144.75-131.18,199.94-254.22,199.94Z" />
        <path d="M976.41,920.32v7.24c0,76,38.9,143.85,122.13,143.85,58.8,0,98.61-34.38,106.75-94.09h101.32c-17.19,113.09-106.75,160.13-211.7,160.13-145.66,0-221.65-91.37-221.65-230.7s75.09-246.08,227.08-246.08c162.85,0,208.08,117.61,208.08,259.65h-332.02ZM1098.55,727.62c-75.09,0-113.09,59.71-119.42,128.47h227.08c0-67.85-32.57-128.47-107.66-128.47Z" />
    </symbol>
    <symbol id="cc" viewBox="0 0 1600 1600">
        <rect width="1600" height="1600" style="fill: #eee;" />
        <path d="M588.31,1137.9c-206.27,0-296.74-142.94-296.74-332.93s94.99-343.78,296.74-343.78c118.51,0,239.74,56.09,243.36,192.7h-115.8c-7.24-70.57-62.42-104.94-128.47-104.94-137.51,0-179.13,140.23-179.13,256.03s44.33,247.89,181.84,247.89c66.04,0,131.18-37.09,134.8-114.9h117.61c-12.67,144.75-131.18,199.94-254.22,199.94Z" />
        <path d="M1101.26,1138.81c-149.27,0-227.98-94.99-227.98-236.12s84.14-245.17,234.32-245.17c107.66,0,189.08,50.66,199.03,165.56h-103.13c-3.62-58.8-36.19-97.71-95.9-97.71-96.8,0-124.85,91.37-124.85,172.8,0,76.9,28.95,171.89,121.23,171.89,63.33,0,96.8-43.42,99.52-104.94h104.94c-2.71,112.18-91.37,173.7-207.17,173.7Z" />
    </symbol>
    <symbol id="cp" viewBox="0 0 1600 1600">
        <rect width="1600" height="1600" style="fill: #eee;" />
        <path d="M564.33,1137.9c-206.27,0-296.74-142.94-296.74-332.93s94.99-343.78,296.74-343.78c118.51,0,239.74,56.09,243.36,192.7h-115.8c-7.24-70.57-62.42-104.94-128.47-104.94-137.51,0-179.13,140.23-179.13,256.03s44.33,247.89,181.84,247.89c66.04,0,131.18-37.09,134.8-114.9h117.61c-12.67,144.75-131.18,199.94-254.22,199.94Z" />
        <path d="M1128.85,1136.09c-63.33,0-104.04-21.71-141.13-70.57v233.41h-104.94v-506.63c0-39.81-.91-79.61-3.62-121.23h103.13l2.71,72.38c35.28-55.19,85.04-82.33,151.99-82.33,135.7,0,195.41,109.47,195.41,230.7s-64.23,244.27-203.56,244.27ZM1108.95,730.79c-93.18,0-123.04,90.47-123.04,170.08,0,75.09,24.43,166.46,114.9,166.46,94.99,0,123.94-89.56,123.94-170.08,0-75.09-26.24-166.46-115.8-166.46Z" />
    </symbol>
    <symbol id="ld" viewBox="0 0 1600 1600">
        <rect width="1600" height="1600" style="fill: #eee;" />
        <path d="M354.9,1122.98V468.88h112.18v569.96h314.83v84.14h-427.02Z" />
        <path d="M1141.06,1122.98l-3.62-64.23c-38.9,49.76-79.61,72.38-144.75,72.38-143.85,0-201.75-113.09-201.75-237.93s62.42-237.03,200.84-237.03c65.14,0,107.66,21.71,144.75,74.19v-261.46h104.94v525.63c0,42.52,0,84.14,3.62,128.47h-104.04ZM1013.5,726.72c-89.56,0-114.9,89.56-114.9,164.65,0,81.42,28.05,168.27,123.94,168.27,89.56,0,115.8-90.47,115.8-165.56,0-79.61-31.66-167.37-124.85-167.37Z" />
    </symbol>
    <symbol id="tl" viewBox="0 0 1600 1600">
        <rect width="1600" height="1600" style="fill: #eee;" />
        <path d="M788.7,557.09v569.96h-112.18v-569.96h-206.27v-84.14h524.72v84.14h-206.27Z" />
        <path d="M1024.81,1127.05V472.95h104.94v654.09h-104.94Z" />
    </symbol>
    <symbol id="ig" viewBox="0 0 1600 1600">
        <rect width="1600" height="1600" style="fill: #eee;" />
        <path d="M476.12,1127.05V472.95h112.18v654.09h-112.18Z" />
        <path d="M1121.16,833.02v183.65c0,184.56-28.04,291.31-227.98,291.31-94.09,0-201.75-27.14-201.75-144.75h100.42c0,59.71,48.85,78.71,100.42,78.71,117.61,0,123.94-89.56,123.94-183.65v-13.57c-35.28,51.57-85.95,75.99-149.27,75.99-136.61,0-201.75-103.13-201.75-228.89s66.95-229.79,201.75-229.79c66.04,0,117.61,25.33,151.99,80.52l.9-71.47h104.04c-1.81,69.66-2.71,109.47-2.71,161.94ZM896.8,728.98c-91.37,0-121.23,86.85-121.23,164.65s30.76,159.23,120.32,159.23,120.32-86.85,120.32-165.56c0-73.28-34.38-158.32-119.42-158.32Z" />
    </symbol>
    <symbol id="wd" viewBox="0 0 1600 1600">
        <rect width="1600" height="1600" style="fill: #eee;" />
        <path d="M875.55,1115.29h-135.7l-165.56-550.96-162.84,550.96h-138.42L93.89,461.19h118.51l134.8,554.58,162.85-554.58h134.8l162.84,552.77,133.89-552.77h110.37l-176.42,654.09Z" />
        <path d="M1402.07,1115.29l-3.62-64.23c-38.9,49.76-79.61,72.38-144.75,72.38-143.85,0-201.75-113.09-201.75-237.93s62.42-237.03,200.84-237.03c65.14,0,107.66,21.71,144.75,74.19v-261.46h104.94v525.63c0,42.52,0,84.14,3.62,128.47h-104.04ZM1274.51,719.03c-89.57,0-114.9,89.56-114.9,164.65,0,81.42,28.05,168.27,123.94,168.27,89.56,0,115.8-90.47,115.8-165.56,0-79.61-31.67-167.37-124.85-167.37Z" />
    </symbol>
    <symbol id="lp" viewBox="0 0 1600 1600">
        <rect width="1600" height="1600" style="fill: #eee;" />
        <path d="M340.42,1115.29V461.19h112.18v569.96h314.83v84.14h-427.02Z" />
        <path d="M1056.02,1124.33c-63.33,0-104.04-21.71-141.13-70.57v233.41h-104.94v-506.63c0-39.81-.91-79.61-3.62-121.23h103.13l2.71,72.38c35.28-55.19,85.04-82.33,151.99-82.33,135.7,0,195.41,109.47,195.41,230.7s-64.23,244.27-203.56,244.27ZM1036.12,719.03c-93.18,0-123.04,90.47-123.04,170.08,0,75.09,24.43,166.46,114.9,166.46,94.99,0,123.94-89.56,123.94-170.08,0-75.09-26.24-166.46-115.8-166.46Z" />
    </symbol>
    <symbol id="sd" viewBox="0 0 1600 1600">
        <rect width="1600" height="1600" style="fill: #eee;" />
        <path d="M548.05,1136.55c-125.75,0-237.93-50.66-245.17-192.7h112.18c6.33,75.99,65.14,109.47,135.7,109.47,65.14,0,139.32-30.76,139.32-104.94,0-54.28-47.95-79.61-115.8-100.42l-65.14-19.9c-102.23-31.67-189.99-77.8-189.99-180.03,0-136.61,126.66-186.37,244.27-186.37s225.27,41.62,226.17,177.32h-112.18c-6.33-71.47-52.47-97.71-119.42-97.71-60.61,0-124.85,28.95-124.85,96.8,0,52.47,53.38,80.52,123.94,101.33l55.19,16.28c124.85,37.09,193.6,86.85,193.6,182.75,0,142.94-133.89,198.13-257.84,198.13Z" />
        <path d="M1193.08,1126.59l-3.62-64.23c-38.9,49.76-79.61,72.38-144.75,72.38-143.85,0-201.75-113.09-201.75-237.93s62.42-237.03,200.84-237.03c65.14,0,107.66,21.71,144.75,74.18v-261.46h104.94v525.63c0,42.52,0,84.14,3.62,128.47h-104.04ZM1065.52,730.34c-89.57,0-114.9,89.57-114.9,164.65,0,81.42,28.05,168.27,123.94,168.27,89.56,0,115.8-90.47,115.8-165.56,0-79.61-31.67-167.37-124.85-167.37Z" />
    </symbol>
    <symbol id="ed" viewBox="0 0 1600 1600">
        <rect width="1600" height="1600" style="fill: #eee;" />
        <path d="M339.06,1122.98V468.88h423.4v83.23h-313.02v194.51h298.55v82.33h-298.55v210.79h324.78v83.23h-435.16Z" />
        <path d="M1156.9,1122.98l-3.62-64.23c-38.9,49.76-79.61,72.38-144.75,72.38-143.85,0-201.75-113.09-201.75-237.93s62.42-237.03,200.84-237.03c65.14,0,107.66,21.71,144.75,74.19v-261.46h104.94v525.63c0,42.52,0,84.14,3.62,128.47h-104.04ZM1029.33,726.72c-89.57,0-114.9,89.56-114.9,164.65,0,81.42,28.05,168.27,123.94,168.27,89.56,0,115.8-90.47,115.8-165.56,0-79.61-31.67-167.37-124.85-167.37Z" />
    </symbol>
    <symbol id="be" viewBox="0 0 1600 1600">
        <rect width="1600" height="1600" style="fill: #eee;" />
        <path d="M561.62,1115.29h-244.27V461.19h247.88c109.47,0,218.03,33.47,218.03,164.65,0,80.52-47.95,127.56-121.23,148.37,85.95,15.38,145.66,65.14,145.66,158.32,0,144.75-128.47,182.75-246.08,182.75ZM548.05,543.52h-121.23v196.32h112.18c69.66,0,131.18-22.62,131.18-101.33,0-71.47-57.9-94.99-122.13-94.99ZM553.48,817.64h-126.66v215.32h107.66c77.8,0,158.32-12.67,158.32-106.75,0-86.85-62.42-108.56-139.32-108.56Z" />
        <path d="M950.62,908.11v7.24c0,75.99,38.9,143.85,122.13,143.85,58.8,0,98.61-34.38,106.75-94.09h101.32c-17.19,113.09-106.75,160.13-211.7,160.13-145.66,0-221.65-91.37-221.65-230.7s75.09-246.08,227.08-246.08c162.85,0,208.08,117.61,208.08,259.65h-332.02ZM1072.76,715.41c-75.09,0-113.09,59.71-119.42,128.47h227.08c0-67.85-32.57-128.47-107.66-128.47Z" />
    </symbol>
    <symbol id="id" viewBox="0 0 1600 1600">
        <rect width="1600" height="1600" style="fill: #eee;" />
        <path d="M478.38,1115.29V461.19h112.18v654.09h-112.18Z" />
        <path d="M1017.58,1115.29l-3.62-64.23c-38.9,49.76-79.61,72.38-144.75,72.38-143.85,0-201.75-113.09-201.75-237.93s62.42-237.03,200.84-237.03c65.14,0,107.66,21.71,144.75,74.18v-261.46h104.95v525.63c0,42.52,0,84.14,3.62,128.47h-104.04ZM890.02,719.03c-89.57,0-114.9,89.57-114.9,164.65,0,81.42,28.04,168.27,123.94,168.27,89.56,0,115.8-90.47,115.8-165.56,0-79.61-31.67-167.37-124.85-167.37Z" />
    </symbol>
    <symbol id="ad" viewBox="0 0 1600 1600">
        <rect width="1600" height="1600" style="fill: #eee;" />
        <path d="M783.72,1128.41l-62.42-162.85h-303.07l-61.52,162.85h-112.18L511.41,474.31h123.94l274.12,654.09h-125.75ZM567.5,563.88l-118.51,322.07h240.65l-122.13-322.07Z" />
        <path d="M1251.43,1128.41l-3.62-64.23c-38.9,49.76-79.61,72.38-144.75,72.38-143.85,0-201.75-113.09-201.75-237.93s62.42-237.03,200.84-237.03c65.14,0,107.66,21.71,144.75,74.18v-261.46h104.94v525.63c0,42.52,0,84.14,3.62,128.47h-104.04ZM1123.87,732.15c-89.57,0-114.9,89.56-114.9,164.65,0,81.42,28.05,168.27,123.94,168.27,89.56,0,115.8-90.47,115.8-165.56,0-79.61-31.67-167.37-124.85-167.37Z" />
    </symbol>
    <symbol id="vd" viewBox="0 0 1600 1600">
        <rect width="1600" height="1600" style="fill: #eee;" />
        <path d="M641.23,1128.41h-129.37l-245.17-654.09h122.13l192.7,550.05,194.51-550.05h111.28l-246.08,654.09Z" />
        <path d="M1229.27,1128.41l-3.62-64.23c-38.9,49.76-79.61,72.38-144.75,72.38-143.85,0-201.75-113.09-201.75-237.93s62.42-237.03,200.84-237.03c65.14,0,107.66,21.71,144.75,74.18v-261.46h104.94v525.63c0,42.52,0,84.14,3.62,128.47h-104.04ZM1101.71,732.15c-89.57,0-114.9,89.57-114.9,164.65,0,81.42,28.05,168.27,123.94,168.27,89.56,0,115.8-90.47,115.8-165.56,0-79.61-31.67-167.37-124.85-167.37Z" />
    </symbol>
    <symbol id="ss" viewBox="0 0 1600 1600">
        <rect width="1600" height="1600" style="fill: #eee;" />
        <path d="M579.26,1149.21c-125.75,0-237.93-50.66-245.17-192.7h112.18c6.33,75.99,65.14,109.47,135.7,109.47,65.14,0,139.32-30.76,139.32-104.94,0-54.28-47.95-79.61-115.8-100.42l-65.14-19.9c-102.23-31.67-189.99-77.8-189.99-180.04,0-136.61,126.66-186.37,244.27-186.37s225.27,41.62,226.17,177.32h-112.18c-6.33-71.47-52.47-97.71-119.42-97.71-60.61,0-124.85,28.95-124.85,96.8,0,52.47,53.38,80.52,123.94,101.33l55.19,16.28c124.85,37.09,193.6,86.85,193.6,182.75,0,142.94-133.89,198.13-257.84,198.13Z" />
        <path d="M1066.88,1150.12c-100.42,0-187.27-38-190.89-153.8h104.95c2.71,58.8,32.57,88.66,90.47,88.66,42.52,0,89.56-22.62,89.56-69.66,0-38.9-34.38-57-87.75-70.57l-47.04-11.76c-85.04-20.81-138.42-52.47-138.42-127.56,0-100.42,105.85-133.89,189.08-133.89,94.99,0,172.8,37.09,177.32,143.85h-103.13c-1.81-54.28-28.05-78.71-80.52-78.71-37.09,0-82.33,17.19-82.33,58.81,0,34.38,34.38,52.47,83.23,65.14l54.28,13.57c79.61,19.9,140.23,50.66,140.23,129.37,0,111.28-105.85,146.56-199.03,146.56Z" />
    </symbol>
    <symbol id="404" viewBox="0 0 200 93">
        <path d="M0,0h10.133v27.594h33.521V0h10.133v65.277h-10.133v-28.906H10.133v28.906H0V0Z"/>
        <path d="M60.155,41.663v-.045c0-14.883,8.595-24.835,21.94-24.835s21.533,9.59,21.533,23.885v3.302h-33.701c.181,9.002,5.112,14.25,12.893,14.25,5.79,0,9.636-2.986,10.857-6.559l.136-.362h9.274l-.09.498c-1.538,7.555-8.867,14.431-20.402,14.431-13.978,0-22.437-9.545-22.437-24.564ZM70.062,37.049h23.885c-.814-8.233-5.428-12.259-11.807-12.259-6.333,0-11.219,4.298-12.078,12.259Z"/>
        <path d="M111.264,59.894c0-3.302,2.624-5.836,5.926-5.836,3.393,0,5.971,2.533,5.971,5.836s-2.579,5.881-5.971,5.881c-3.302,0-5.926-2.579-5.926-5.881ZM112.168,0h10.088l-.724,43.518h-8.64l-.724-43.518Z"/>
        <path d="M135.321,59.894c0-3.302,2.624-5.836,5.926-5.836,3.393,0,5.971,2.533,5.971,5.836s-2.579,5.881-5.971,5.881c-3.302,0-5.926-2.579-5.926-5.881ZM136.225,0h10.088l-.724,43.518h-8.64l-.724-43.518Z"/>
        <path d="M154.854,41.482v-.091c0-15.2,9.002-24.609,22.528-24.609s22.618,9.364,22.618,24.609v.091c0,15.335-8.957,24.745-22.573,24.745s-22.573-9.455-22.573-24.745ZM190.003,41.482v-.091c0-10.404-4.976-16.421-12.621-16.421-7.509,0-12.531,6.017-12.531,16.421v.091c0,10.54,4.976,16.557,12.621,16.557s12.531-6.062,12.531-16.557Z"/>
      <path d="M103.543,87.343c7.081-5.682,15.418-8.252,25.612-8.252s18.502,2.57,25.583,8.252v5.425c-4.854-4.169-15.961-7.338-25.583-7.338s-20.758,3.169-25.612,7.338v-5.425Z"/>
    </symbol>
</svg>
