<svg xmlns="http://www.w3.org/2000/svg" version="1.1" xmlns:xlink="http://www.w3.org/1999/xlink" width="1000" height="1000"><g clip-path="url(#SvgjsClipPath1059)"><rect width="1000" height="1000" fill="#ffffff"></rect><g transform="matrix(0.23333333333333334,0,0,0.23333333333333334,150,150)"><svg xmlns="http://www.w3.org/2000/svg" version="1.1" xmlns:xlink="http://www.w3.org/1999/xlink" width="3000" height="3000"><svg id="Layer_1" xmlns="http://www.w3.org/2000/svg" version="1.1" viewBox="0 0 3000 3000">
  <!-- Generator: Adobe Illustrator 29.7.0, SVG Export Plug-In . SVG Version: 2.1.1 Build 41)  -->
  <path d="M2171.89,2919.4c12.32-54.35,26.09-107.98,37.68-162.32,7.25-34.78,10.87-70.3,15.95-105.08.72-3.62.72-7.24.72-10.14,0-24.64-2.9-28.99-27.54-29.71-50-1.45-100.73-.72-150.73-.72h-61.59c23.19-30.44,47.11-60.15,68.84-91.31,32.6-46.38,63.77-94.2,94.2-142.03,2.9-5.08,4.35-12.32,2.9-18.12l-130.44-515.23c-8.7-32.61-18.84-64.5-28.26-97.11-18.11-62.32-52.18-113.77-100.73-156.53-84.79-74.64-169.57-149.28-253.63-224.64-17.39-15.22-34.06-31.16-50.73-47.1-25.36-23.91-33.33-53.63-28.98-87.69,3.63-23.91,8.7-47.1,12.32-70.29,17.39,7.25,36.23,15.95,55.07,23.19,22.46,7.97,45.65,12.32,69.57,7.24,4.35-.72,8.7-2.17,12.32-3.62,10.14-4.35,19.57-10.87,31.88-6.52,21.02,6.52,42.76,11.59,57.25,29.71,18.84,24.64,37.68,49.28,45.65,80.44,3.63,15.22,11.6,29.71,18.84,42.76,3.63,6.52,10.87,10.14,17.39,15.22,29.71,22.46,65.22,18.11,99.28,18.11,15.22,0,30.44,2.17,45.65,2.17,21.01.72,27.53-5.07,31.88-25.37,7.25-34.05,22.47-46.38,57.25-47.1h11.6c26.81,0,44.2-11.6,49.27-37.69,4.35-23.18,2.9-47.1,5.08-70.29.72-8.7,2.17-17.39,5.07-24.64,8.7-21.74-1.45-78.26-17.39-92.03-17.39-15.22-36.96-28.26-52.18-44.93-39.85-43.48-78.26-88.4-116.67-133.34-18.84-22.46-25.37-47.83-15.22-76.81,9.42-28.26-1.45-52.18-21.02-71.74-21.02-21.02-43.48-39.86-65.94-58.7-20.29-16.67-39.13-34.78-52.18-58.7-4.35-7.97-11.6-15.22-18.12-22.46,21.74-2.9,39.86-12.32,52.18-31.16,12.32-18.11,14.5-39.85,13.04-60.87-4.35-50.72-10.14-102.18-15.94-152.9-1.45-11.59-5.07-25.37-18.84-26.81-14.49-1.45-17.39,12.32-21.01,23.19-12.32,39.86-39.86,64.5-76.82,81.17-17.39,7.97-34.78,17.39-51.45,26.09.72-4.35,2.17-10.87,2.9-17.39,7.25-61.6-20.29-108.7-78.99-129.72-68.12-24.64-136.96-18.84-205.8-1.45-39.13,10.14-74.64,29.71-109.43,50-15.94,9.42-31.88,17.39-48.55,25.37-30.44,13.77-60.87,13.04-92.03,2.17-30.44-10.87-45.65-31.89-46.38-64.49,0-9.42.73-18.12,1.45-26.82-56.52,32.61-46.38,138.41,20.29,199.28-5.79-.73-9.42-.73-13.77-1.45-66.66-5.8-130.44,4.35-189.14,37.68-78.99,44.93-115.22,115.94-121.01,204.35-.73,10.87,0,22.46,0,36.96,5.07-7.97,8.7-13.77,12.31-19.57,19.57-29.71,42.76-55.07,75.37-71.02,19.57-9.42,39.85-13.77,61.59-8.7,8.7,2.17,18.12,5.08,25.37,9.42,26.81,16.66,26.09,40.58-.72,55.79-7.97,5.08-17.39,7.97-26.82,10.87-50,16.67-95.66,41.31-129.71,83.34-38.41,48.55-48.56,105.8-45.65,165.94.72,21.74,2.9,43.48,5.07,65.22,3.63,48.55-10.87,90.58-44.92,126.09-15.22,16.66-31.16,33.33-44.21,52.17-44.92,65.95-25.36,158.7,42.03,199.28-10.15-31.16-12.32-60.15,6.52-86.96,18.11-26.09,44.2-39.85,74.64-47.1.72,2.17.72,2.9.72,3.63-34.78,36.24-37.68,80.44-27.54,126.09,7.25,31.89,18.84,63.05,27.54,94.2,4.35,16.67,8.7,33.33,9.42,50,1.45,20.29-8.7,32.61-27.53,37.68-34.06,8.7-65.94,2.17-94.2-18.84-21.02-15.22-28.99-38.41-27.54-63.77.72-14.5,3.63-29.71,5.07-44.21-34.78,14.5-76.09,73.19-61.59,144.21,17.39,85.51,80.44,125.37,189.86,118.85-5.79,15.22-15.94,26.09-28.98,34.78-55.8,36.96-135.51,18.11-172.47-43.48-10.87-17.39-18.12-37.68-26.09-55.07-25.37,73.92-10.15,169.56,58.7,228.99,68.84,58.7,188.41,78.26,255.8,17.39-11.59,31.16-22.46,60.87-34.06,89.86-39.13,103.62-78.99,206.53-118.12,310.15-2.17,5.8,0,15.22,2.9,20.29,18.11,28.26,36.23,57.25,55.79,84.06,34.78,47.1,70.29,92.76,105.8,139.13,3.62,5.07,7.24,9.42,12.31,16.67-7.24.72-12.31,1.45-16.66,1.45-55.08,5.08-110.87,10.15-165.94,15.22h-1.45c-26.81,5.08-28.98,7.25-24.64,34.78,13.04,78.99,31.88,156.53,56.52,233.34.72,1.45.72,3.63,2.17,6.52-4.35-1.45-7.25-2.9-10.15-4.35-344.93-194.21-581.17-479-705.81-855.09C6.62,1821.54-11.49,1599.8,19.66,1375.16c44.21-322.47,178.99-602.91,405.08-837.7,220.29-228.99,488.5-373.47,800.75-432.62,64.51-12.22,130-21.37,195.66-23.91,56.2-2.18,150.73,0,156.52,0,154.35,7.97,305.08,37.69,449.28,94.21,375.38,146.38,652.19,401.46,823.94,765.96,160.15,339.86,186.23,694.22,81.16,1054.37-113.05,389.14-350.73,682.62-700.74,886.25-19.57,11.59-39.85,22.46-60.14,34.05,2.17,3.63,1.45,3.63.72,3.63"></path>
</svg></svg></g></g><defs><clipPath id="SvgjsClipPath1059"><rect width="1000" height="1000" x="0" y="0" rx="350" ry="350"></rect></clipPath></defs></svg>