<?xml version="1.0" encoding="UTF-8"?>
<svg id="Layer_1" data-name="Layer 1" xmlns="http://www.w3.org/2000/svg" version="1.1" viewBox="0 0 821.6 447.5">
  <defs>
    <style>
      .cls-1 {
        fill: #fff;
        stroke-width: 0px;
      }
    </style>
  </defs>
  <path class="cls-1" d="M28.4,123.5c11.2,0,21.6-.2,32.1,0,17.1.5,34.2.6,51.1,2.3,12.7,1.2,24.2,6.7,32.9,16.3,18.3,20.1,13.1,50.9-10.5,64.4-5.1,2.9-10.5,5.4-17.2,8.9,4.9,1,8.4,1.3,11.7,2.5,8.1,2.8,16.5,5.2,24.1,9.2,33,17.4,27.7,61.1,6.9,78.6-15,12.5-32.3,17.3-51.4,17.6-24.8.4-49.5.8-74.3,1.1-1.5,0-3.1-.6-4.9-.9.4-1.2.5-2.3.9-2.4,10.5-1.7,11.2-9.4,11.2-17.8,0-53.2,0-106.4,0-159.6,0-7.6.9-16.1-10.5-17.1-.6,0-1.1-1.7-1.9-3.2ZM63.1,219.3v101.2c11.9,0,23.2.6,34.4-.2,8.6-.6,17.1-2.4,25.5-4.3,19.3-4.3,30.2-16.5,33.2-36.1,4.4-27.9-4-44.9-28.9-54-20.6-7.6-42.3-8-64.3-6.6ZM63,214.2c18.3,1.1,36,0,52.3-8.1,15-7.4,23.1-20.1,23.1-37.1,0-16.2-6-29.5-21.6-36-17.2-7.2-35.8-4.2-53.9-6.1v87.4Z"/>
  <path class="cls-1" d="M395.3,290.5c6.1-8,12.2-16,18.4-23.9,6.2-8,8.5-17.1,8.4-27,0-6.5,0-13,0-19.5,0-11.9,0-12-11.1-15.4,7.8-5.6,17.5-4.2,27.1-6.8v24.1c.5.3,1,.5,1.6.8,1.6-1.9,3.1-3.7,4.7-5.6,16.3-19.7,41.5-25.3,62.1-13.6,13.1,7.5,21.7,18.8,22.7,34,1.3,19.4,1,38.9,1.6,58.4.3,9.8-3.8,21.2,8.3,28.1h-32.7c11-7.2,7.1-17.9,7.1-27.2,0-20-.2-40-1.8-59.8-.6-8.1-3.9-16.4-7.8-23.6-5.4-10-16.9-13.8-28-11.3-14.6,3.3-25.5,11.7-33.5,24.2-13.4,21-26.2,42.6-41.1,62.6-11.9,16-26.9,29.9-47.8,33.8-15.3,2.8-30.5,3.3-42.4-9.3-17.3-18.2-10-49.1,13.8-58.6,14.5-5.8,29.8-7.1,45.4-5.8,2.1.2,4.2.4,7.4.6-1.3-11.8-2-23-4-34-1.9-10.6-9.2-15.4-20-13.9-16.4,2.2-28.1,11.5-36.3,25.6-1.4,2.4-2.7,4.8-4.5,8.1-2.5-12.1,2.5-23.9,11.5-28.8,12.4-6.7,25.5-9.6,39.6-7.8,18.4,2.3,29.4,14.3,29.6,32.9.2,17.1,0,34.2,0,51.3,0,2.3,0,4.6,0,6.9.6.2,1.2.3,1.8.5ZM377.6,252.9c-11,0-20.1-.5-29.2.2-8.7.6-15.9,4.9-21.4,11.9-8.9,11.2-10.4,32-3.1,44.3,3.5,5.9,8.6,9.6,15.6,10.2,13,1.2,24.7-2.4,35-10.3,1.5-1.2,3-3.5,3-5.2.2-16.8.1-33.5.1-51Z"/>
  <path class="cls-1" d="M654.2,216.2c0-3.3,0-6.6,0-9.9,0-20.9,0-41.9,0-62.8,0-6.8-.2-12.8-9.4-12.6-.5,0-1.1-1.3-3.1-3.5,10.3-1.7,19.3-3.1,29.2-4.8v179.3q0,13.8,12.4,20.9c-10.3,2.7-19.3.9-29.2,1.4v-17.7c-16.9,14.9-34.9,20.4-55.3,16.7-14-2.6-25.5-9.9-34.4-20.9-19.7-24.7-18.1-62.7,3.3-85.5,11.4-12.2,25.5-18.8,42.2-18.7,16.7,0,30.5,7.2,42.2,19.1.6-.3,1.2-.6,1.8-.9ZM654.2,262h0c0-7.5-.8-15,.2-22.4,1.9-13.6-5-22.1-15.1-28.8-22.4-14.7-60.2-15.6-68.1,25.1-2.5,12.8-3.1,26.3-2.3,39.3.8,13.1,4.4,26.2,14.7,35.9,16.2,15,46.5,11.8,63.9-6.4,4.6-4.8,7.1-9.9,6.8-16.7-.4-8.6,0-17.3,0-26Z"/>
  <path class="cls-1" d="M784.6,234.8c-1.3-2.3-2.7-4.7-3.9-7-11.4-22.7-38.7-32.3-60.6-21.3-2.1,1.1-4.2,2.4-6,3.9-8.2,7-7.9,14.6,1.8,19.3,14,6.8,28.6,12.4,42.8,18.8,7.2,3.3,14.6,6.5,20.8,11.2,18.8,14.1,18.1,40.3-.9,54.1-21.2,15.4-55.9,14.6-76.4-1.9-1.3-1-2.9-2.3-3.2-3.7-1.5-6.7-2.6-13.4-3.8-20.1.6-.2,1.1-.5,1.7-.7,2,3.1,4,6.2,5.9,9.3,15.7,25.2,46.7,31.7,69.2,14.5,6.4-4.9,10.1-11.4,11-19.5.9-8.5-2.8-15.8-11.5-19.7-18.2-8.1-36.7-15.7-55-23.5-12.2-5.2-17.9-12.9-17.3-23.8.6-11.9,7.7-18.6,18.3-22.5,19.5-7.1,38.2-5.1,56.2,4.9,7.1,3.9,10.8,10,11.3,18.1.2,3,.7,6,1,9-.5.2-.9.4-1.4.6Z"/>
  <path class="cls-1" d="M223.9,324h-33.5c2.1-2.3,3.3-3.3,4.1-4.5,1.8-3.1,4.9-6.2,5-9.4.4-31.3.2-62.5.3-93.8,0-7.5-3.8-10.9-11.7-11,8.3-6.8,18.2-4.7,27.9-7.8v24c.5.4.9.9,1.4,1.3,15.1-23.5,34.6-30.8,60.6-19.7,14.7,6.2,16.9,17.7,16.9,31.4-1.3-2.3-2.5-4.7-3.9-7-7.3-12.7-16.2-23.7-31.8-25.7-5.4-.7-12.3-.3-16.7,2.4-14.6,9.3-27.1,20.5-26.6,40.4.5,15.6-.3,31.3.2,46.9.4,11.1-4.7,23.9,7.7,32.4Z"/>
</svg>