<?xml version="1.0" encoding="UTF-8"?>
<svg id="Layer_1" data-name="Layer 1" xmlns="http://www.w3.org/2000/svg" version="1.1" viewBox="0 0 821.6 447.5">
  <defs>
    <style>
      .cls-1 {
        fill: #f04f3a;
      }

      .cls-1, .cls-2 {
        stroke-width: 0px;
      }

      .cls-3 {
        font-family: MyriadPro-Regular, 'Myriad Pro';
        font-size: 15.2px;
        isolation: isolate;
      }

      .cls-3, .cls-2 {
        fill: #424342;
      }
    </style>
  </defs>
  <g>
    <text class="cls-3" transform="translate(442.9 149.2) rotate(-22.4)"><tspan x="0" y="0"> </tspan></text>
    <path class="cls-2" d="M265.3,17.9h14.3l7.4,36.1h.3l8.8-36.1h11.6l8.8,36.1h.3l7.4-36.1h14.3l-14.3,54.6h-13.7l-8.7-32.8h-.3l-8.6,32.8h-13.7l-14.3-54.6Z"/>
    <path class="cls-2" d="M337.4,51.9h0c0-13.3,7.9-21.5,20.5-21.5s20.3,8.1,20.3,20.6v3.9h-27.7c.2,5.6,3.2,8.8,8.1,8.8s6.7-2.5,7.3-4.2v-.2h12.1v.5c-1.4,5.7-6.5,13.4-19.7,13.4s-20.9-8.1-20.9-21.4ZM350.7,47h14.9c-.7-4.6-3.5-7.1-7.4-7.1s-6.8,2.6-7.5,7.1Z"/>
    <path class="cls-2" d="M266.9,108.1h13.4v7.4h.3c1.6-5,6-8.3,11.6-8.3s10.1,3.2,11.2,8.8h.3c1.6-5.3,6.6-8.8,12.7-8.8s13.5,5.7,13.5,14v28h-13.4v-24.6c0-4.3-2-6.5-5.8-6.5s-5.9,2.6-5.9,6.7v24.4h-12.8v-24.7c0-4.2-2-6.4-5.7-6.4s-6,2.7-6,6.8v24.4h-13.4v-41.2Z"/>
    <path class="cls-2" d="M334.7,137.4h0c0-7.8,6-12.1,16.6-12.9l9.4-.6v-2c0-3-1.9-4.8-5.7-4.8s-5.7,1.7-6.2,3.8v.4h-12.1v-.5c.7-8,7.5-13.5,19-13.5s18.4,5.6,18.4,14v28.1h-13.4v-5.8h-.3c-2.3,4-6.4,6.4-11.8,6.4-8.3,0-13.9-5.3-13.9-12.4ZM353.3,140.6c4.3,0,7.4-2.6,7.4-6.1v-2.8l-7.2.5c-3.7.2-5.6,1.8-5.6,4.2h0c0,2.6,2.2,4.1,5.4,4.1Z"/>
    <path class="cls-2" d="M380.8,94.7h13.4v29h.3l11.8-15.6h14.9l-14.5,17.6,15.4,23.6h-15.4l-10-15.6-2.4,2.9v12.7h-13.4v-54.6Z"/>
    <path class="cls-2" d="M421.1,128.7h0c0-13.3,7.9-21.5,20.5-21.5s20.3,8.1,20.3,20.6v3.9h-27.7c.2,5.6,3.2,8.8,8.1,8.8s6.7-2.5,7.3-4.2v-.2h12.1v.5c-1.4,5.7-6.5,13.4-19.7,13.4s-20.9-8.1-20.9-21.4ZM434.4,123.9h14.9c-.7-4.6-3.5-7.1-7.4-7.1s-6.8,2.6-7.5,7.1Z"/>
    <path class="cls-2" d="M266.9,185h13.4v7.3h.3c2.1-5.1,6.5-8.2,12.3-8.2,10.4,0,16.5,7.8,16.5,21.4h0c0,13.6-6,21.5-16.3,21.5s-10.5-3-12.5-7.9h-.3v20.3h-13.4v-54.4ZM295.8,205.6h0c0-6.6-3-10.6-7.8-10.6s-7.8,4-7.8,10.6h0c0,6.5,3.1,10.6,7.8,10.6s7.8-4,7.8-10.6Z"/>
    <path class="cls-2" d="M313.5,205.6h0c0-13.3,7.9-21.5,20.5-21.5s20.3,8.1,20.3,20.6v3.9h-27.7c.2,5.6,3.2,8.8,8.1,8.8s6.7-2.5,7.3-4.2v-.2h12.1v.5c-1.4,5.7-6.5,13.4-19.7,13.4s-20.9-8.1-20.9-21.4ZM326.8,200.8h14.9c-.7-4.6-3.5-7.1-7.4-7.1s-6.8,2.6-7.5,7.1Z"/>
    <path class="cls-2" d="M358.2,205.6h0c0-13.4,8.3-21.5,21.1-21.5s21.1,8,21.1,21.4h0c0,13.7-8.1,21.5-21.1,21.5s-21.1-7.9-21.1-21.4ZM386.7,205.6h0c0-7.2-3-11.3-7.5-11.3s-7.5,4.1-7.5,11.2h0c0,7.3,2.8,11.3,7.5,11.3s7.5-4,7.5-11.3Z"/>
    <path class="cls-2" d="M405.5,185h13.4v7.3h.3c2.1-5.1,6.5-8.2,12.3-8.2,10.4,0,16.5,7.8,16.5,21.4h0c0,13.6-6,21.5-16.3,21.5s-10.5-3-12.5-7.9h-.3v20.3h-13.4v-54.4ZM434.4,205.6h0c0-6.6-3-10.6-7.8-10.6s-7.8,4-7.8,10.6h0c0,6.5,3.1,10.6,7.8,10.6s7.8-4,7.8-10.6Z"/>
    <path class="cls-2" d="M453.5,171.6h13.4v54.6h-13.4v-54.6Z"/>
    <path class="cls-2" d="M472.3,205.6h0c0-13.3,7.9-21.5,20.5-21.5s20.3,8.1,20.3,20.6v3.9h-27.7c.2,5.6,3.2,8.8,8.1,8.8s6.7-2.5,7.3-4.2v-.2h12.1v.5c-1.4,5.7-6.5,13.4-19.7,13.4s-20.9-8.1-20.9-21.4ZM485.6,200.8h14.9c-.7-4.6-3.5-7.1-7.4-7.1s-6.8,2.6-7.5,7.1Z"/>
  </g>
  <g>
    <path class="cls-1" d="M265.7,282.5h0c0-13.3,8-21.4,20.8-21.4s19.3,7,19.4,16.8v.3s-12.3,0-12.3,0v-.4c-.6-3.8-3-6.5-6.9-6.5s-7.5,4.1-7.5,11.3h0c0,7.3,2.7,11.3,7.5,11.3s6.3-2.5,6.8-6.5v-.4h12.4v.3c-.3,9.6-7.5,16.8-19.4,16.8s-21-8.1-21-21.5Z"/>
    <path class="cls-1" d="M310.7,288.4v-26.5h13.4v23.6c0,4.7,2.2,7.5,6.6,7.5s6.9-3.2,6.9-7.8v-23.4h13.4v41.2h-13.4v-7.3h-.3c-2.1,5.2-6.3,8.1-12.5,8.1-9,0-14.2-5.8-14.2-15.5Z"/>
    <path class="cls-1" d="M357.6,261.9h13.4v7.3h.3c1.1-5.2,4.4-8.2,9.2-8.2s2.5.2,3.5.5v11.5c-1.1-.5-2.7-.8-4.3-.8-5.6,0-8.7,3.1-8.7,9v21.9h-13.4v-41.2Z"/>
    <path class="cls-1" d="M388,250.9c0-3.6,3-6.6,6.8-6.6s6.8,3,6.8,6.6-2.9,6.6-6.8,6.6-6.8-3-6.8-6.6ZM388.1,261.9h13.4v41.2h-13.4v-41.2Z"/>
    <path class="cls-1" d="M406.8,282.5h0c0-13.4,8.3-21.5,21.1-21.5s21.1,8,21.1,21.4h0c0,13.7-8.1,21.5-21.1,21.5s-21.1-7.9-21.1-21.4ZM435.3,282.5h0c0-7.2-3-11.3-7.5-11.3s-7.5,4.1-7.5,11.2h0c0,7.3,2.8,11.3,7.5,11.3s7.5-4,7.5-11.3Z"/>
    <path class="cls-1" d="M453.9,288.4v-26.5h13.4v23.6c0,4.7,2.2,7.5,6.6,7.5s6.9-3.2,6.9-7.8v-23.4h13.4v41.2h-13.4v-7.3h-.3c-2.1,5.2-6.3,8.1-12.5,8.1-9,0-14.2-5.8-14.2-15.5Z"/>
    <path class="cls-1" d="M499.1,290.6v-.3s13,0,13,0v.3c.7,2.8,2.8,4.4,6.8,4.4s5.7-1.3,5.7-3.4h0c0-1.9-1.3-2.9-5-3.7l-7.3-1.4c-8.1-1.6-12.3-5.7-12.3-12h0c0-8.2,7-13.4,18.3-13.4s18.2,6.1,18.3,13.5v.3s-12.2,0-12.2,0v-.3c-.3-2.4-2.4-4.4-6.1-4.4s-5.4,1.4-5.4,3.5h0c0,1.8,1.2,2.9,5.1,3.7l7.3,1.4c8.7,1.7,12.5,5.1,12.5,11.3h0c0,8.5-7.7,14-19,14s-18.8-5.4-19.7-13.4Z"/>
    <path class="cls-1" d="M542.1,296.7c0-3.9,3.1-7.1,7.1-7.1s7.1,3.1,7.1,7.1-3.1,7.1-7.1,7.1-7.1-3.1-7.1-7.1Z"/>
  </g>
</svg>