<?xml version="1.0" encoding="UTF-8"?>
<svg id="Layer_1" data-name="Layer 1" xmlns="http://www.w3.org/2000/svg" version="1.1" viewBox="0 0 821.6 447.5">
  <defs>
    <style>
      .cls-1 {
        fill: none;
        stroke: #fff;
        stroke-miterlimit: 10;
        stroke-width: .5px;
      }

      .cls-2 {
        fill: #fff;
      }

      .cls-2, .cls-3 {
        stroke-width: 0px;
      }

      .cls-3 {
        fill: #545454;
        isolation: isolate;
        opacity: .6;
      }
    </style>
  </defs>
  <path class="cls-3" d="M489.6,186c-21.9-6.2-52.6-31.5-72.1-28.7-3.1.5,24.9,20.3,9.5,28.5-34.8,18.3-173.6,75.6-184.4,122.7-11.6-5.6-33.5-4.6-57.7,4.9,17.7,2.7,33.3,10.5,41,19.4,9.9,2,10.4-.3,22.1,25.4,25.5-27.6,4.5-44,4.5-44,88.6-74.1,145.5-59.2,220.6-34.7-22.9-7.5-59.9-23.3-62.7-63.5-2.2-29.6,51.2-31.2,79.2-30Z"/>
  <path class="cls-2" d="M471.8,318.3h7.3l-14.3,70.6-27.8-114c3,1,6.1,1.6,9,1.8l18.7,76.3,7.1-34.7Z"/>
  <path class="cls-2" d="M529.1,58.5l-23,119.2h-7.2l18.3-92.5-53.4,28.6-53.5,28.6,11,40.6c-3,.2-5.9.7-8.7,1.7l-14.3-51.6,65.4-37.3,65.4-37.3Z"/>
  <g>
    <path class="cls-1" d="M526.3,267.6s-.1,0,0,0h-.1c-.1.1-.4-.1-.9-.4s-1.2-.7-1.6-.8c0,0-.1,0-.1.1-.3.2-.7.5-1.1.5h-.2c-.1,0-.3-.1-.5-.2-.1,0-.1-.1-.2-.1h-.1c0-.1-.1-.2-.1-.2h.2c.7,0,.9-.2,1-.3h.1c-.4-.2-.7-.3-1-.4h-.2c-.4-.2-1.1-.5-1.5-1-.1-.2-.2-.3-.3-.5-.1-.3-.1-.5-.1-.6s.1-.3.2-.4.2-.1.3-.2c.3-.1.7-.2,1.2-.2h1.2c.3,0,.5.1.8.2.1,0,.2.1.3.1.4.2.9.5,1.2.9h.1c.1.2.3.4.4.6.2.3.4.6.5.8,0,.1.1.2.1.3v.8c0,.1.1.3.1.4,0,0,0,.1.1.1.2.3.2.4.2.5Z"/>
    <path class="cls-1" d="M528.5,269.1c0,.1-.1.1-.2.1h0c-.2,0-.7-.3-1.6-.8s-2-1.1-2.6-1.3h-.1c-.5.5-1.1.9-1.9,1h-.3c-.2,0-.5-.1-.8-.3-.1,0-.2-.1-.3-.2-.1,0-.2-.1-.2-.1h-.1c0-.1.2-.1.2-.1h.1c1.2,0,1.5-.3,1.7-.5l.2-.2c-.6-.2-1.1-.4-1.7-.5h-.4c-.7-.3-1.8-.8-2.5-1.6-.2-.3-.4-.6-.5-.9-.1-.4-.2-.8-.1-1,0-.2.2-.4.4-.6.1-.1.3-.2.6-.3.5-.2,1.1-.3,1.9-.3h1c.2,0,.3.1.4.1h.6c.4,0,.9.1,1.3.3.1.1.3.1.4.2.7.4,1.4.8,2.1,1.4l.2.2c.2.2.5.5.7.8.4.5.6.9.8,1.4.1.2.1.4.2.5,0,.2.1.4.1.6v.7c0,.2.1.4.2.7,0,.1.1.2.1.2,0,.2.2.4,0,.5Z"/>
    <path class="cls-1" d="M530.8,270.7c0,.1-.1.1-.2.2h0c-.2,0-1-.4-2.2-1.1s-2.8-1.6-3.7-1.8l-.2.2c-.7.5-1.6,1.2-2.6,1.2h-.5c-.3-.1-.7-.2-1.1-.4-.1-.1-.3-.1-.4-.2s-.2-.1-.3-.2h-.2c0-.1.2-.1.2-.1h.1c1.6,0,2.1-.4,2.4-.7.1-.1.2-.2.3-.2-.8-.3-1.6-.5-2.4-.8l-.5-.2c-1-.3-2.5-.9-3.5-2.1-.3-.4-.5-.8-.7-1.3-.2-.6-.2-1.1-.2-1.4.1-.3.2-.6.5-.8.2-.2.5-.3.8-.4.7-.3,1.6-.4,2.7-.5h1.5c.2.1.4.1.6.1h.7c.6,0,1.2.2,1.9.5.2.1.4.2.6.3,1,.5,2,1.2,2.9,2l.3.3c.3.3.7.7,1,1.1.5.7.9,1.3,1.2,2,.1.3.2.5.2.7.1.3.1.5.1.8v1.1c0,.3.1.6.3,1,0,.1.1.2.1.3.2-.1.4.2.3.4Z"/>
    <path class="cls-1" d="M533,272.2c0,.1-.1.2-.3.2h-.1c-.3,0-1.3-.5-2.9-1.4s-3.6-2-4.7-2.4c-.1.1-.2.1-.3.2-.9.7-2,1.5-3.4,1.5h-.6c-.4-.1-.9-.2-1.4-.5-.2-.1-.3-.2-.5-.3-.1-.1-.3-.2-.4-.3l-.3-.2h.5c2.1,0,2.7-.5,3-.9.1-.1.2-.2.4-.3-1.1-.3-2.1-.7-3.1-1l-.6-.2c-1.3-.4-3.3-1.2-4.5-2.8-.4-.5-.7-1-.9-1.6-.2-.8-.3-1.4-.2-1.9.1-.4.3-.8.7-1.1.3-.2.6-.4,1-.6.9-.3,2-.5,3.5-.6h1.9c.3.1.5.1.8.1h1c.8.1,1.6.3,2.4.6.3.1.5.2.8.3,1.3.6,2.6,1.5,3.7,2.6l.3.3c.4.4.9.9,1.2,1.4.7.8,1.2,1.7,1.5,2.5.1.3.2.7.3,1,.1.4.1.7.1,1v.6c0,.3-.1.5,0,.8,0,.4.2.8.4,1.3.1.1.1.3.2.4.5.7.6,1.1.5,1.3Z"/>
    <path class="cls-1" d="M535.3,273.8l-.3.3h-.1c-.4,0-1.6-.7-3.5-1.8-2-1.1-4.4-2.5-5.8-2.9l-.3.3c-1.1.9-2.5,1.8-4.1,1.9h-.7c-.6-.1-1.1-.3-1.8-.6-.2-.1-.4-.2-.7-.4-.2-.1-.3-.2-.5-.3l-.3-.2h.6c2.6,0,3.2-.7,3.7-1.1.1-.1.3-.3.5-.4-1.3-.4-2.5-.8-3.7-1.2l-.8-.3c-1.6-.5-4-1.5-5.5-3.4-.5-.6-.8-1.3-1.1-2-.3-.9-.4-1.7-.3-2.3.1-.5.4-.9.8-1.3s.7-.5,1.2-.7c1.1-.4,2.5-.6,4.3-.7h2.4c.3.1.7.1.9.1h1.3c.9.1,1.9.3,3,.7.3.1.6.3,1,.4,1.6.8,3.2,1.8,4.6,3.2l.4.4c.5.5,1.1,1.1,1.5,1.7.8,1,1.4,2.1,1.8,3.1.2.4.3.8.4,1.2.1.4.1.9.2,1.3,0,.3,0,.5-.1.8,0,.3-.1.6,0,1,.1.5.2,1,.5,1.6.1.2.2.3.2.5.2.4.4.8.3,1.1Z"/>
    <path class="cls-1" d="M537.5,275.3c-.1.1-.2.3-.4.3h-.1c-.4,0-1.9-.8-4.2-2.1-2.3-1.3-5.2-2.9-6.8-3.4-.1.1-.2.2-.4.3-1.3,1-3,2.2-4.8,2.2h-.8c-.7-.1-1.3-.3-2.1-.8-.2-.1-.5-.3-.8-.5-.2-.1-.4-.2-.6-.4l-.4-.2h.8c3.1,0,3.8-.8,4.4-1.4l.5-.5c-1.5-.5-3-1-4.4-1.4l-.9-.3c-1.9-.6-4.7-1.7-6.5-4-.6-.7-1-1.5-1.3-2.4-.4-1.1-.5-2-.3-2.7.1-.6.5-1.1,1-1.6.4-.3.9-.6,1.5-.8,1.2-.5,3-.8,5.1-.8h2.7c.4.1.8.1,1.1.1h1.5c1.1.1,2.3.4,3.5.9.4.1.7.3,1.1.5,1.9.9,3.7,2.2,5.4,3.7l.5.5c.6.6,1.2,1.3,1.8,2,1,1.2,1.7,2.5,2.2,3.6.2.5.3.9.4,1.4s.2,1,.2,1.5,0,.6-.1.9c0,.4-.1.8,0,1.2.1.6.2,1.1.6,1.9s.2.4.3.6c.2.9.5,1.4.3,1.7Z"/>
    <path class="cls-1" d="M539.8,277c-.1.2-.2.3-.5.4h-.1c-.5,0-2.2-.9-4.8-2.4-2.7-1.5-6-3.4-7.9-4-.1.1-.3.2-.4.3-1.5,1.2-3.4,2.5-5.6,2.6h-.1c-.3,0-.5,0-.8-.1-.8-.1-1.5-.4-2.4-.9-.3-.1-.5-.3-.9-.5-.2-.1-.5-.3-.7-.4l-.4-.3h.8c3.5,0,4.4-.9,5.1-1.6s.4-.4.6-.5c-1.8-.5-3.5-1.1-5.1-1.6l-1.1-.3c-2.2-.7-5.5-2-7.5-4.6-.7-.8-1.1-1.7-1.5-2.7-.4-1.3-.5-2.3-.4-3.1.1-.7.5-1.3,1.1-1.8.4-.4,1-.7,1.7-.9,1.4-.6,3.4-.9,5.8-1h3.2c.5.1.9.2,1.3.2h1.7c1.3.1,2.6.4,4.1,1,.4.2.9.4,1.3.6,2.2,1.1,4.3,2.5,6.3,4.3l.6.6c.7.7,1.4,1.5,2,2.3,1.1,1.4,1.9,2.8,2.5,4.2.2.5.4,1.1.5,1.6.1.6.2,1.2.2,1.7s0,.7-.1,1c-.1.5-.1.9-.1,1.3.1.7.3,1.3.6,2.2.1.2.2.5.3.7.6.7.9,1.3.7,1.7Z"/>
    <path class="cls-1" d="M542,278.5c-.1.2-.3.3-.5.4h-.1c-.6,0-2.4-1-5.4-2.7s-6.8-3.8-8.9-4.5c-.2.1-.3.3-.5.4-1.7,1.3-3.9,2.8-6.3,2.9h-.2c-.3,0-.6,0-.9-.1-.9-.1-1.7-.4-2.7-1-.3-.2-.6-.4-1-.6-.3-.2-.5-.3-.8-.5l-.5-.3h.9c4,0,5-1,5.7-1.8.2-.2.4-.4.7-.6-2-.6-3.9-1.2-5.8-1.9l-1.2-.4c-2.5-.8-6.2-2.3-8.5-5.2-.7-.9-1.3-2-1.6-3.1-.5-1.4-.6-2.6-.4-3.5.2-.8.6-1.5,1.3-2,.5-.4,1.1-.8,1.9-1.1,1.6-.6,3.9-1,6.6-1.1h3.6c.5.1,1,.2,1.4.2h1.9c1.5.1,3,.5,4.6,1.1.5.2,1,.4,1.5.6,2.5,1.2,4.9,2.8,7.1,4.9l.6.6c.8.8,1.6,1.7,2.3,2.6,1.3,1.6,2.2,3.2,2.8,4.8.2.6.4,1.2.6,1.8.2.7.2,1.3.2,1.9s0,.8-.1,1.2c-.1.5-.1,1-.1,1.5.1.7.3,1.5.7,2.5.1.3.2.5.4.8.6,1.1.9,1.8.7,2.2Z"/>
    <path class="cls-1" d="M544.3,280c-.1.2-.3.4-.6.4h-.1c-.6,0-2.7-1.2-6.1-3.1s-7.6-4.3-10-5c-.2.1-.4.3-.5.4-1.9,1.5-4.3,3.2-7.1,3.3h-.2c-.3,0-.7,0-1-.1-1-.1-1.9-.5-3-1.1-.3-.2-.7-.4-1.1-.7-.3-.2-.6-.4-.9-.6l-.6-.4h1.1c4.5,0,5.6-1.1,6.4-2,.2-.3.5-.5.8-.7-2.3-.7-4.4-1.4-6.5-2.1l-1.3-.4c-2.8-.9-6.9-2.5-9.5-5.9-.8-1-1.4-2.2-1.8-3.5-.5-1.6-.7-2.9-.5-3.9.2-.9.7-1.6,1.4-2.3.6-.5,1.3-.9,2.1-1.2,1.8-.7,4.3-1.1,7.4-1.2h1.6c.8,0,1.6,0,2.4.1h0c.6.2,1.1.2,1.6.2h2.2c1.6.1,3.4.6,5.1,1.3.5.2,1.1.5,1.6.7,2.8,1.3,5.5,3.2,7.9,5.5l.7.7c.9.9,1.8,1.9,2.6,2.9,1.4,1.8,2.5,3.6,3.2,5.3.3.7.5,1.4.6,2,.2.7.3,1.5.3,2.2s0,.9-.1,1.3c-.1.6-.1,1.1-.1,1.7.1.8.3,1.7.8,2.8.1.3.3.6.4.9.6,1.2,1,2,.8,2.5Z"/>
    <path class="cls-1" d="M546.5,281.5c-.1.2-.3.4-.7.5h-.1c-.7,0-3-1.3-6.7-3.4s-8.4-4.7-11-5.6c-.2.2-.4.3-.6.5-2,1.6-4.8,3.5-7.8,3.6h-.2c-.4,0-.7,0-1.1-.1-1.1-.2-2.1-.6-3.4-1.2-.4-.2-.8-.4-1.3-.7-.3-.2-.6-.4-1-.6l-.6-.4h1.1c5,0,6.2-1.3,7.1-2.2.3-.3.5-.5.9-.7-2.5-.8-4.9-1.5-7.2-2.3l-1.5-.5c-3.1-1-7.7-2.8-10.5-6.5-.9-1.2-1.6-2.4-2-3.8-.6-1.8-.7-3.2-.5-4.4.2-1,.7-1.8,1.6-2.5.6-.5,1.4-1,2.4-1.3,2-.8,4.8-1.2,8.2-1.4h1.8c.9,0,1.7,0,2.6.1h0c.6.2,1.3.2,1.8.2h2.3c1.8.1,3.7.6,5.7,1.4.6.2,1.2.5,1.8.8,3.1,1.5,6.1,3.5,8.8,6.1.3.2.5.5.8.8,1,1,2,2.1,2.9,3.2,1.6,2,2.7,4,3.5,5.9.3.8.5,1.5.7,2.3s.3,1.6.3,2.4-.1,1-.1,1.5c-.1.6-.1,1.2-.1,1.9.1.9.4,1.8.9,3,.1.3.3.7.4,1,.7,1,1.1,1.9.8,2.4Z"/>
    <path class="cls-1" d="M548.8,283.1c-.1.3-.4.4-.7.5h-.1c-.8,0-3.3-1.4-7.4-3.7-4.1-2.3-9.2-5.2-12.1-6.1-.2.2-.4.4-.7.5-2.2,1.8-5.2,3.8-8.6,3.9h-.2c-.4,0-.8,0-1.2-.1-1.2-.2-2.3-.6-3.7-1.4-.4-.2-.8-.5-1.4-.8-.3-.2-.7-.4-1.1-.7l-.7-.4h1.3c5.4,0,6.8-1.4,7.8-2.4s.6-.6.9-.8c-2.7-.8-5.3-1.7-7.8-2.5l-1.6-.5c-3.4-1.1-8.4-3.1-11.5-7.1-1-1.3-1.7-2.7-2.2-4.2-.6-2-.8-3.5-.6-4.8.2-1.1.8-2,1.7-2.8.7-.6,1.5-1.1,2.6-1.5,2.2-.9,5.2-1.4,9-1.5h2c.9,0,1.9,0,2.9.1h0c.7.2,1.4.2,1.9.3h.8c.6,0,1.2,0,1.8.1,2,.2,4.1.7,6.2,1.5.7.3,1.3.5,2,.9,3.4,1.6,6.6,3.9,9.6,6.6.3.3.6.6.9.8,1.1,1.1,2.2,2.3,3.1,3.5,1.7,2.2,3,4.3,3.8,6.5.3.8.6,1.7.8,2.5.2.9.3,1.8.3,2.6s-.1,1.1-.1,1.6c-.1.7-.2,1.4-.1,2,.1,1,.4,2,1,3.3.2.4.3.7.5,1,.7,1.6,1.1,2.5.9,3.1Z"/>
    <path class="cls-1" d="M551,284.6c-.1.3-.4.5-.8.6h-.2c-.8,0-3.6-1.5-8-4-4.5-2.5-10-5.6-13.1-6.6-.2.2-.5.4-.7.6-2.4,1.9-5.7,4.2-9.3,4.3h-.2c-.4,0-.9,0-1.3-.1-1.3-.2-2.5-.7-4-1.5-.4-.2-.9-.5-1.5-.9-.4-.2-.8-.5-1.1-.7l-.7-.5h1.4c5.9,0,7.4-1.5,8.5-2.6s.6-.6,1-.9c-3-.9-5.8-1.8-8.5-2.7l-1.8-.6c-3.7-1.2-9.1-3.4-12.5-7.7-1.1-1.4-1.9-2.9-2.4-4.5-.7-2.1-.9-3.8-.6-5.2.2-1.1.9-2.2,1.9-3,.7-.6,1.7-1.1,2.8-1.6,2.4-.9,5.7-1.5,9.8-1.6h2.2c1,0,2.1,0,3.1.1h0c.8.2,1.5.3,2.1.3h.9c.6,0,1.3,0,1.9.1,2.1.2,4.4.7,6.8,1.6.7.3,1.4.6,2.2.9,3.7,1.8,7.2,4.2,10.4,7.2.3.3.6.6,1,.9,1.2,1.2,2.4,2.5,3.4,3.8,1.8,2.4,3.2,4.7,4.2,7,.4.9.7,1.8.9,2.7.2,1,.3,1.9.4,2.9,0,.6-.1,1.2-.1,1.7-.1.8-.2,1.5-.1,2.2.1,1.1.4,2.2,1.1,3.6.2.4.4.8.5,1.1.3,1.5.7,2.5.4,3.1Z"/>
    <path class="cls-1" d="M553.2,286.2c-.1.3-.4.5-.9.6h-.2c-.9,0-3.9-1.7-8.6-4.3-4.8-2.7-10.8-6.1-14.2-7.2-.3.2-.5.4-.8.6-2.6,2.1-6.2,4.5-10.1,4.6h-.3c-.5,0-.9,0-1.4-.1-1.4-.2-2.7-.7-4.3-1.6-.5-.3-1-.6-1.6-1-.4-.3-.8-.5-1.2-.8l-.8-.5h1.4c6.4,0,8-1.6,9.1-2.8.4-.4.7-.7,1.1-1-3.2-1-6.2-2-9.2-3l-1.9-.6c-4-1.3-9.9-3.6-13.6-8.3-1.2-1.5-2.1-3.1-2.6-4.9-.7-2.3-1-4.1-.6-5.6.3-1.2.9-2.3,2-3.2.8-.7,1.8-1.2,3-1.7,2.6-1,6.1-1.6,10.5-1.7h2.3c1.1,0,2.2,0,3.4.1h0c.8.2,1.6.3,2.3.3h1c.7,0,1.4,0,2.1.1,2.3.2,4.8.8,7.3,1.8.8.3,1.6.6,2.3,1,4,1.9,7.8,4.5,11.3,7.8l1,1c1.3,1.3,2.6,2.7,3.7,4.1,2,2.5,3.5,5.1,4.5,7.6.4,1,.7,2,.9,2.9.2,1.1.4,2.1.4,3.1s-.1,1.3-.1,1.9c-.1.8-.2,1.6-.1,2.4.1,1.2.5,2.4,1.2,3.9.2.4.4.8.6,1.2,1,1.5,1.5,2.6,1.1,3.3Z"/>
    <path class="cls-1" d="M555.5,287.7c-.2.3-.5.6-.9.7h-.2c-1,0-4.2-1.8-9.3-4.7-5.2-2.9-11.6-6.6-15.2-7.7-.3.2-.5.4-.8.7-2.8,2.3-6.6,4.9-10.8,5h-.3c-.5,0-1,0-1.5-.1-1.5-.2-2.9-.8-4.7-1.7-.5-.3-1.1-.6-1.7-1-.4-.3-.9-.6-1.3-.8l-.8-.5h1.6c6.9,0,8.6-1.7,9.8-3,.4-.4.7-.8,1.2-1-3.4-1.1-6.7-2.1-9.9-3.2l-2-.7c-4.3-1.4-10.6-3.9-14.6-8.9-1.3-1.6-2.2-3.4-2.8-5.3-.8-2.5-1-4.4-.7-6,.3-1.3,1-2.5,2.2-3.5.9-.7,2-1.3,3.3-1.8,2.8-1.1,6.6-1.7,11.3-1.9h2.5c1.2,0,2.4,0,3.7.1h0c.9.3,1.7.3,2.4.3h1c.7,0,1.5,0,2.2.1,2.5.2,5.1.8,7.9,1.9.8.3,1.7.7,2.5,1.1,4.3,2.1,8.4,4.9,12.1,8.4.4.3.7.7,1.1,1.1,1.4,1.4,2.8,2.9,4,4.4,2.1,2.7,3.8,5.5,4.8,8.1.4,1.1.8,2.1,1,3.1.3,1.1.4,2.3.4,3.3s-.1,1.4-.1,2c-.1.9-.2,1.7-.1,2.6.1,1.3.5,2.6,1.2,4.2.2.5.4.9.6,1.3.7,1.5,1.3,2.6.9,3.4Z"/>
    <path class="cls-1" d="M557.7,289.3c-.2.4-.5.6-1,.7h-.2c-1,0-4.5-1.9-9.9-5-5.5-3.1-12.4-7-16.3-8.2-.3.2-.6.5-.9.7-3,2.4-7.1,5.2-11.6,5.3h-.3c-.5,0-1.1,0-1.6-.1-1.6-.2-3.1-.8-5-1.8-.5-.3-1.1-.7-1.9-1.1-.5-.3-.9-.6-1.4-.9l-.9-.6h1.7c7.3,0,9.2-1.9,10.5-3.2.4-.4.8-.8,1.3-1.1-3.7-1.1-7.2-2.3-10.6-3.4l-2.2-.7c-4.6-1.5-11.3-4.2-15.6-9.6-1.3-1.7-2.4-3.6-3-5.6-.8-2.6-1.1-4.7-.7-6.4.3-1.4,1.1-2.7,2.3-3.7.9-.8,2.1-1.4,3.5-2,3-1.2,7.1-1.8,12.1-2h2.7c1.3,0,2.6,0,3.9.1h0c1,.3,1.9.3,2.6.3h1.1c.8,0,1.6,0,2.4.1,2.7.2,5.5.9,8.4,2,.9.3,1.8.7,2.7,1.2,4.6,2.2,9,5.2,13,9,.4.4.8.8,1.2,1.1,1.5,1.5,3,3.1,4.2,4.7,2.3,2.9,4,5.9,5.2,8.7.5,1.1.8,2.3,1.1,3.3.3,1.2.4,2.4.4,3.5s-.1,1.5-.2,2.2c-.1.9-.2,1.8-.1,2.8.1,1.3.6,2.7,1.3,4.5.2.5.4,1,.6,1.4,1.1,1.7,1.6,2.9,1.2,3.8Z"/>
    <path class="cls-1" d="M560,290.8c-.2.4-.5.6-1.1.8h-.2c-1.1,0-4.7-2-10.6-5.3s-13.2-7.5-17.3-8.7c-.3.3-.6.5-.9.8-3.2,2.6-7.5,5.5-12.3,5.7h-.3c-.6,0-1.1,0-1.7-.1-1.7-.2-3.3-.9-5.3-1.9-.6-.3-1.2-.7-2-1.2-.5-.3-1-.6-1.5-1l-1-.6h1.8c7.8,0,9.8-2,11.2-3.4.4-.4.8-.9,1.4-1.2-3.9-1.2-7.6-2.4-11.2-3.6l-2.3-.8c-4.9-1.6-12.1-4.4-16.6-10.2-1.4-1.8-2.5-3.8-3.2-6-.9-2.8-1.2-5.1-.8-6.8.3-1.5,1.2-2.8,2.5-3.9,1-.8,2.2-1.5,3.7-2.1,3.2-1.2,7.5-1.9,12.9-2.1h2.9c1.4,0,2.7,0,4.2.1h0c1,.3,2,.3,2.8.4h1.2c.8,0,1.7,0,2.6.1,2.8.2,5.8,1,8.9,2.2.9.4,1.9.8,2.9,1.2,4.9,2.3,9.5,5.5,13.8,9.5.4.4.8.8,1.3,1.2,1.6,1.6,3.2,3.3,4.5,5.1,2.4,3.1,4.3,6.2,5.5,9.3.5,1.2.9,2.4,1.1,3.6.3,1.3.5,2.6.5,3.8s-.1,1.6-.2,2.3c-.1,1-.2,2-.1,2.9.2,1.4.6,2.9,1.4,4.8.2.5.5,1,.7,1.5.6,1.4,1.2,2.7.8,3.6Z"/>
    <path class="cls-1" d="M562.2,292.5c-.2.4-.6.7-1.1.8h-.2c-1.2,0-5-2.1-11.2-5.6s-14-7.9-18.4-9.3c-.3.3-.7.5-1,.8-3.4,2.7-8,5.9-13.1,6h-.3c-.6,0-1.2,0-1.8-.1-1.8-.3-3.5-.9-5.6-2.1-.6-.3-1.3-.7-2.1-1.2-.5-.3-1.1-.7-1.6-1l-1-.7h1.9c8.3,0,10.3-2.1,11.9-3.6.5-.5.9-.9,1.4-1.2-4.2-1.3-8.1-2.6-11.9-3.8l-2.5-.8c-5.2-1.7-12.8-4.7-17.6-10.8-1.5-1.9-2.7-4.1-3.4-6.4-1-3-1.2-5.4-.8-7.3.3-1.6,1.2-3,2.6-4.2,1-.9,2.4-1.6,4-2.2,3.4-1.3,8-2.1,13.7-2.3h3c1.4,0,2.9,0,4.4.1h0c1.1.3,2.1.4,3,.4h1.2c.9,0,1.8,0,2.7.1,3,.2,6.2,1,9.5,2.3,1,.4,2,.8,3,1.3,5.2,2.5,10.1,5.9,14.6,10.1l1.3,1.3c1.7,1.7,3.4,3.5,4.8,5.4,2.6,3.3,4.5,6.6,5.8,9.8.5,1.3.9,2.5,1.2,3.8.3,1.4.5,2.7.5,4s-.1,1.6-.2,2.4c-.1,1.1-.2,2.1-.1,3.1.2,1.5.6,3.1,1.5,5.1.2.6.5,1.1.7,1.6,1,1.9,1.7,3.2,1.2,4.2Z"/>
    <path class="cls-1" d="M564.5,294c-.2.4-.6.7-1.2.9h-.2c-1.3,0-5.3-2.3-11.9-6s-14.8-8.4-19.4-9.8c-.3.3-.7.6-1.1.9-3.6,2.9-8.4,6.2-13.8,6.3h-.4c-.6,0-1.3,0-1.9-.1-1.9-.3-3.7-1-5.9-2.2-.7-.4-1.4-.8-2.2-1.3-.6-.3-1.1-.7-1.7-1.1l-1.1-.7h2c8.8,0,10.9-2.2,12.5-3.9.5-.5.9-1,1.5-1.3-4.4-1.3-8.6-2.7-12.6-4l-2.6-.9c-5.5-1.8-13.5-5-18.6-11.4-1.6-2-2.8-4.3-3.6-6.7-1-3.2-1.3-5.7-.9-7.7.4-1.7,1.3-3.2,2.8-4.4,1.1-.9,2.5-1.7,4.2-2.3,3.6-1.4,8.4-2.2,14.4-2.4,1,0,2.1-.1,3.2-.1s3.1,0,4.7.1h0c1.1.3,2.2.4,3.1.4h1.3c.9,0,1.9,0,2.9.1,3.2.3,6.5,1.1,10,2.4,1.1.4,2.1.9,3.2,1.4,5.5,2.6,10.7,6.2,15.5,10.7.5.4.9.9,1.4,1.4,1.8,1.8,3.5,3.7,5.1,5.7,2.7,3.5,4.8,7,6.2,10.4.5,1.4,1,2.7,1.3,4,.3,1.5.5,2.9.5,4.2s-.1,1.7-.2,2.6c-.1,1.1-.3,2.2-.1,3.3.2,1.6.7,3.3,1.6,5.4.3.6.5,1.2.8,1.7,1,2,1.6,3.4,1.2,4.4Z"/>
    <path class="cls-1" d="M566.7,295.5c-.2.4-.6.8-1.2.9h-.2c-1.3,0-5.6-2.4-12.5-6.3-7-3.9-15.6-8.8-20.5-10.3-.4.3-.7.6-1.1.9-3.8,3-8.9,6.5-14.6,6.7h-.4c-.7,0-1.3,0-2-.1-2-.3-3.9-1-6.3-2.3-.7-.4-1.4-.8-2.3-1.4-.6-.4-1.2-.7-1.8-1.1l-1.1-.7h2.2c9.2,0,11.5-2.3,13.2-4.1.5-.5,1-1,1.6-1.4-4.6-1.4-9-2.9-13.3-4.3l-2.8-.9c-5.8-1.9-14.2-5.2-19.6-12-1.7-2.2-3-4.5-3.8-7.1-1.1-3.3-1.4-6-.9-8.1.4-1.8,1.4-3.4,2.9-4.7,1.1-1,2.6-1.8,4.4-2.5,3.8-1.5,8.9-2.3,15.2-2.5,1.1,0,2.2-.1,3.4-.1s3.2,0,4.9.1h0c1.2.3,2.3.4,3.3.4h1.4c1,0,2,0,3,.1,3.3.3,6.9,1.1,10.6,2.6,1.1.4,2.3.9,3.4,1.5,5.8,2.8,11.3,6.5,16.3,11.3.5.5,1,.9,1.5,1.4,1.9,1.9,3.7,3.9,5.3,6,2.9,3.7,5.1,7.4,6.5,11,.6,1.4,1,2.8,1.3,4.2.4,1.5.5,3,.5,4.4s-.1,1.8-.2,2.7c-.1,1.2-.3,2.3-.1,3.5.2,1.7.7,3.4,1.7,5.7.3.6.5,1.2.8,1.8,1.1,2.1,1.8,3.6,1.3,4.7Z"/>
    <path class="cls-1" d="M569,297c-.2.5-.7.8-1.3,1h-.3c-1.4,0-5.9-2.5-13.1-6.6-7.3-4.1-16.4-9.3-21.5-10.9-.4.3-.8.6-1.2.9-4,3.2-9.4,6.9-15.3,7h-.4c-.7,0-1.4-.1-2.1-.2-2.1-.3-4.2-1.1-6.6-2.4-.7-.4-1.5-.9-2.5-1.5-.6-.4-1.2-.8-1.9-1.2l-1.2-.8h2.2c9.7,0,12.1-2.5,13.9-4.3s1-1.1,1.7-1.5c-4.9-1.5-9.5-3-14-4.5l-2.9-.9c-6.2-2-15-5.5-20.6-12.6-1.8-2.3-3.1-4.8-4-7.5-1.1-3.5-1.4-6.3-1-8.5.4-1.9,1.4-3.5,3.1-4.9,1.2-1,2.8-1.9,4.6-2.6,3.9-1.5,9.3-2.4,16-2.7,1.1,0,2.3-.1,3.6-.1s3.4,0,5.2.1h0c1.3.4,2.5.4,3.5.4h1.4c1,0,2.1,0,3.2.1,3.5.3,7.2,1.2,11.1,2.7,1.2.5,2.4,1,3.6,1.5,6.1,2.9,11.8,6.9,17.1,11.8.5.5,1.1,1,1.6,1.5,2,2,3.9,4.1,5.6,6.3,3,3.9,5.3,7.7,6.8,11.5.6,1.5,1.1,3,1.4,4.4.4,1.6.6,3.2.6,4.7s-.1,1.9-.2,2.9c-.1,1.2-.3,2.4-.2,3.6.2,1.8.7,3.6,1.8,6,.3.7.6,1.3.9,1.9,1.1,2.7,1.9,4.3,1.4,5.4Z"/>
    <path class="cls-1" d="M571.2,298.6c-.2.5-.7.8-1.4,1h-.3c-1.5,0-6.2-2.6-13.8-6.9-7.7-4.3-17.2-9.7-22.6-11.4-.4.3-.8.7-1.2,1-4.2,3.3-9.8,7.2-16.1,7.4h-.4c-.7,0-1.5-.1-2.2-.2-2.2-.3-4.4-1.1-6.9-2.5-.8-.4-1.6-.9-2.6-1.5-.6-.4-1.3-.8-2-1.2l-1.3-.8h2.4c10.2,0,12.7-2.6,14.6-4.5s1.1-1.1,1.8-1.5c-5.1-1.6-10-3.2-14.7-4.7l-3-1c-6.5-2.1-15.7-5.8-21.6-13.3-1.9-2.4-3.3-5-4.2-7.8-1.2-3.7-1.5-6.6-1-8.9.4-2,1.5-3.7,3.2-5.1,1.3-1.1,2.9-2,4.9-2.7,4.1-1.6,9.8-2.5,16.8-2.8,1.2,0,2.5-.1,3.7-.1,1.8,0,3.6,0,5.4.1h.1c1.3.4,2.6.4,3.6.5h1.5c1.1,0,2.2,0,3.3.1,3.7.3,7.6,1.3,11.7,2.8,1.2.5,2.5,1,3.7,1.6,6.4,3,12.4,7.2,18,12.4.5.5,1.1,1,1.6,1.6,2.1,2.1,4.1,4.3,5.9,6.6,3.2,4.1,5.6,8.1,7.2,12.1.6,1.6,1.1,3.1,1.5,4.6.4,1.7.6,3.3.6,4.9s-.1,2-.2,3c-.2,1.3-.3,2.5-.2,3.8.2,1.9.8,3.8,1.8,6.2.3.7.6,1.3.9,2,1.3,2.3,2.1,4,1.5,5.2Z"/>
    <path class="cls-1" d="M573.5,300.1c-.2.5-.7.9-1.4,1.1h-.3c-1.5,0-6.5-2.8-14.4-7.2-8-4.5-18-10.2-23.6-11.9-.4.3-.8.7-1.3,1-4.4,3.5-10.3,7.5-16.8,7.7h-.4c-.8,0-1.6-.1-2.3-.2-2.3-.3-4.6-1.2-7.2-2.6-.8-.4-1.7-.9-2.7-1.6-.7-.4-1.4-.9-2.1-1.3l-1.3-.8h2.5c10.6,0,13.3-2.7,15.2-4.7.6-.6,1.1-1.2,1.9-1.6-5.3-1.6-10.4-3.3-15.3-4.9l-3.2-1c-6.8-2.2-16.4-6-22.6-13.9-2-2.5-3.4-5.2-4.4-8.2-1.2-3.8-1.6-6.9-1.1-9.3.4-2.1,1.6-3.9,3.4-5.4,1.3-1.1,3-2.1,5.1-2.8,4.3-1.7,10.2-2.7,17.6-2.9,1.3,0,2.6-.1,3.9-.1s3.7,0,5.7.1h.1c1.4.4,2.7.5,3.8.5h1.6c1.1,0,2.3,0,3.5.1,3.9.3,8,1.3,12.2,3,1.3.5,2.6,1.1,3.9,1.7,6.7,3.2,13,7.6,18.8,13,.6.5,1.2,1.1,1.7,1.7,2.2,2.2,4.3,4.5,6.2,6.9,3.3,4.2,5.9,8.5,7.5,12.6.7,1.6,1.2,3.3,1.5,4.8.4,1.8.6,3.5.6,5.1s-.1,2.1-.2,3.1c-.2,1.4-.3,2.7-.2,4,.2,2,.8,4,1.9,6.5.3.7.6,1.4.9,2.1,1,2.4,1.8,4.2,1.3,5.4Z"/>
    <path class="cls-1" d="M575.7,301.7c-.3.5-.8.9-1.5,1.1h-.3c-1.6,0-6.8-2.9-15.1-7.6-8.4-4.7-18.8-10.6-24.7-12.5-.4.4-.9.7-1.3,1.1-4.6,3.7-10.7,7.9-17.6,8.1h-.5c-.8,0-1.6-.1-2.4-.2-2.4-.3-4.8-1.2-7.5-2.8-.8-.5-1.7-1-2.8-1.7-.7-.4-1.4-.9-2.1-1.4l-1.4-.9h2.5c11.1,0,13.9-2.8,15.9-4.9.6-.6,1.2-1.2,1.9-1.7-5.6-1.7-10.9-3.5-16-5.1l-3.3-1.1c-7.1-2.3-17.2-6.3-23.6-14.5-2-2.6-3.6-5.5-4.6-8.6-1.3-4-1.7-7.2-1.1-9.8.5-2.2,1.6-4.1,3.5-5.6,1.4-1.1,3.2-2.1,5.3-3,4.5-1.7,10.7-2.8,18.4-3,1.3,0,2.7-.1,4.1-.1s3.9,0,5.9.1h.2c1.4.4,2.8.5,4,.5h1.7c1.2,0,2.4,0,3.6.1,4,.3,8.3,1.4,12.7,3.1,1.3.5,2.7,1.1,4.1,1.8,7,3.3,13.6,7.9,19.7,13.6.6.6,1.2,1.1,1.8,1.7,2.3,2.3,4.5,4.7,6.4,7.2,3.5,4.4,6.1,8.9,7.8,13.2.7,1.7,1.2,3.4,1.6,5.1.4,1.9.6,3.7.7,5.4,0,1.1-.1,2.2-.2,3.3-.2,1.4-.3,2.8-.2,4.2.2,2,.8,4.1,2,6.8.3.8.7,1.5,1,2.1,1.1,2.9,2,4.7,1.4,6Z"/>
    <path class="cls-1" d="M578,303.2c-.3.6-.8,1-1.6,1.2h-.3c-1.7,0-7-3-15.7-7.9s-19.6-11.1-25.7-13c-.5.4-.9.8-1.4,1.1-4.8,3.8-11.2,8.2-18.3,8.4h-.5c-.8,0-1.7-.1-2.5-.2-2.5-.4-5-1.3-7.9-2.9-.9-.5-1.8-1-2.9-1.7-.7-.5-1.5-.9-2.2-1.4l-1.4-.9h2.7c11.6,0,14.5-2.9,16.6-5.1.6-.6,1.3-1.3,2-1.7-5.8-1.8-11.3-3.6-16.7-5.4l-3.5-1.1c-7.4-2.4-17.9-6.6-24.6-15.1-2.1-2.7-3.7-5.7-4.8-8.9-1.3-4.2-1.7-7.5-1.2-10.2.5-2.3,1.7-4.2,3.7-5.9,1.4-1.2,3.3-2.2,5.5-3.1,4.7-1.8,11.2-2.9,19.1-3.2,1.4,0,2.8-.1,4.2-.1,2,0,4.1,0,6.2.1h.2c1.5.4,2.9.5,4.1.5h1.7c1.2,0,2.5,0,3.8.1,4.2.3,8.7,1.4,13.3,3.2,1.4.6,2.8,1.2,4.2,1.8,7.3,3.5,14.2,8.2,20.5,14.2.6.6,1.3,1.2,1.9,1.8,2.4,2.4,4.7,4.9,6.7,7.5,3.6,4.6,6.4,9.3,8.2,13.8.7,1.8,1.3,3.6,1.7,5.3.4,1.9.7,3.8.7,5.6s0,2.3-.2,3.4c-.2,1.5-.3,2.9-.2,4.4.2,2.1.9,4.3,2.1,7.1.3.8.7,1.5,1,2.2,1.2,2.9,2.1,4.8,1.5,6.1Z"/>
    <path class="cls-1" d="M580.2,304.8c-.3.6-.8,1-1.6,1.2h-.3c-1.7,0-7.3-3.1-16.3-8.2-9.1-5.1-20.4-11.5-26.8-13.5-.5.4-1,.8-1.5,1.2-5,4-11.6,8.5-19.1,8.7h-.5c-.9,0-1.8-.1-2.6-.2-2.6-.4-5.2-1.3-8.2-3-.9-.5-1.9-1.1-3.1-1.8-.8-.5-1.5-1-2.3-1.5l-1.5-1h2.8c12.1,0,15.1-3.1,17.3-5.3s1.3-1.3,2.1-1.8c-6.1-1.9-11.8-3.7-17.4-5.6l-3.6-1.2c-7.7-2.5-18.6-6.9-25.6-15.7-2.2-2.8-3.9-5.9-5-9.3-1.4-4.4-1.8-7.8-1.2-10.6.5-2.3,1.8-4.4,3.8-6.1,1.5-1.2,3.4-2.3,5.8-3.2,4.9-1.9,11.6-3,19.9-3.3,1.4,0,2.9-.1,4.4-.1s4.2,0,6.4.1h.2c1.6.4,3.1.5,4.3.6h1.8c1.3,0,2.6,0,4,.1,4.4.4,9,1.5,13.8,3.4,1.5.6,2.9,1.2,4.4,1.9,7.6,3.6,14.7,8.6,21.3,14.7.7.6,1.3,1.2,2,1.9,2.5,2.5,4.9,5.1,7,7.8,3.8,4.8,6.6,9.6,8.5,14.3.7,1.9,1.3,3.7,1.7,5.5.5,2,.7,4,.7,5.8s0,2.4-.3,3.5c-.2,1.6-.3,3-.2,4.5.2,2.2.9,4.5,2.2,7.4.4.8.7,1.6,1.1,2.3,1.3,3.1,2.2,5.1,1.6,6.5Z"/>
    <path class="cls-1" d="M582.4,306.3c-.3.6-.8,1-1.7,1.2h-.3c-1.8,0-7.6-3.2-17-8.5-9.5-5.3-21.2-12-27.8-14.1-.5.4-1,.8-1.5,1.2-5.2,4.1-12.1,8.9-19.8,9.1h-.5c-.9,0-1.8-.1-2.7-.2-2.7-.4-5.4-1.4-8.5-3.1-.9-.5-1.9-1.1-3.2-1.9-.8-.5-1.6-1-2.4-1.5l-1.5-1h2.9c12.5,0,15.7-3.2,18-5.5s1.4-1.4,2.2-1.9c-6.3-1.9-12.3-3.9-18.1-5.8l-3.7-1.2c-8-2.6-19.4-7.1-26.6-16.4-2.3-2.9-4-6.2-5.1-9.7-1.5-4.5-1.9-8.1-1.3-11,.5-2.4,1.9-4.6,4-6.3,1.6-1.3,3.6-2.4,6-3.4,5.1-2,12.1-3.1,20.7-3.4,1.5,0,3-.1,4.6-.1s4.4,0,6.7.1h.2c1.6.5,3.2.6,4.5.6h1.9c1.3,0,2.7,0,4.1.1,4.5.4,9.4,1.5,14.4,3.5,1.5.6,3.1,1.3,4.6,2,7.9,3.8,15.3,8.9,22.2,15.3.7.6,1.4,1.3,2,2,2.6,2.6,5.1,5.3,7.3,8.1,3.9,5,6.9,10,8.8,14.9.8,1.9,1.4,3.9,1.8,5.7.5,2.1.7,4.1.7,6s0,2.5-.3,3.7c-.2,1.6-.4,3.1-.2,4.7.2,2.3,1,4.7,2.3,7.7.4.8.7,1.7,1.1,2.4.9,3.2,1.9,5.3,1.2,6.7Z"/>
    <path class="cls-1" d="M584.7,308c-.3.6-.9,1.1-1.8,1.3h-.3c-1.9,0-7.9-3.4-17.6-8.9-9.8-5.5-22-12.4-28.9-14.6-.5.4-1,.8-1.6,1.3-5.4,4.3-12.6,9.2-20.6,9.4h-.5c-.9,0-1.9-.1-2.8-.2-2.8-.4-5.6-1.4-8.8-3.2-1-.5-2-1.2-3.3-1.9-.8-.5-1.7-1.1-2.5-1.6l-1.6-1h3c13,0,16.3-3.3,18.6-5.7.7-.7,1.4-1.4,2.3-2-6.5-2-12.7-4-18.8-6l-3.9-1.3c-8.3-2.7-20.1-7.4-27.6-17-2.4-3-4.2-6.4-5.3-10-1.5-4.7-1.9-8.4-1.3-11.4.5-2.5,1.9-4.7,4.1-6.6,1.6-1.3,3.7-2.5,6.2-3.5,5.3-2,12.5-3.2,21.5-3.6,1.5,0,3.1-.1,4.8-.1s4.6,0,6.9.2h.2c1.7.5,3.3.6,4.6.6h1.9c1.4,0,2.8,0,4.3.1,4.7.4,9.7,1.6,14.9,3.6,1.6.6,3.2,1.3,4.8,2.1,8.2,3.9,15.9,9.2,23,15.9.7.7,1.4,1.3,2.1,2,2.7,2.7,5.3,5.5,7.5,8.4,4.1,5.2,7.2,10.4,9.2,15.5.8,2,1.4,4,1.9,5.9.5,2.2.8,4.3.8,6.3s0,2.6-.3,3.8c-.2,1.7-.4,3.3-.2,4.9.3,2.4,1,4.8,2.4,8,.4.9.8,1.7,1.1,2.5,1.3,3.1,2.3,5.3,1.6,6.8Z"/>
    <path class="cls-1" d="M586.9,309.5c-.3.7-.9,1.1-1.8,1.3h-.3c-1.9,0-8.2-3.5-18.3-9.2-10.2-5.7-22.8-12.9-30-15.1-.5.4-1.1.9-1.6,1.3-5.6,4.4-13,9.5-21.3,9.8h-.6c-1,0-2-.1-2.9-.2-2.9-.4-5.8-1.5-9.2-3.4-1-.6-2.1-1.2-3.4-2-.9-.5-1.7-1.1-2.6-1.7l-1.7-1.1h3.1c13.5,0,16.9-3.4,19.3-5.9.7-.8,1.5-1.5,2.3-2-6.8-2.1-13.2-4.2-19.4-6.2l-4-1.3c-8.6-2.8-20.8-7.7-28.6-17.6-2.5-3.2-4.3-6.6-5.5-10.4-1.6-4.9-2-8.7-1.4-11.8.5-2.6,2-4.9,4.3-6.8,1.7-1.4,3.8-2.6,6.4-3.6,5.5-2.1,13-3.4,22.3-3.7,1.6-.1,3.3-.1,4.9-.1,2.3,0,4.8.1,7.2.2h.2c1.7.5,3.4.6,4.8.6h2c1.4,0,2.9,0,4.4.1,4.9.4,10.1,1.7,15.5,3.8,1.6.6,3.3,1.4,4.9,2.1,8.5,4,16.5,9.6,23.8,16.5.7.7,1.5,1.4,2.2,2.1,2.8,2.8,5.5,5.7,7.8,8.7,4.2,5.4,7.4,10.8,9.5,16,.8,2.1,1.5,4.2,1.9,6.1.5,2.2.8,4.4.8,6.5s0,2.7-.3,4c-.2,1.7-.4,3.4-.2,5.1.3,2.5,1,5,2.4,8.3.4.9.8,1.8,1.2,2.6,1.6,3.2,2.7,5.5,1.9,7Z"/>
    <path class="cls-1" d="M589.2,311c-.3.7-.9,1.1-1.9,1.4h-.4c-2,0-8.5-3.6-18.9-9.5-10.5-6-23.6-13.3-31-15.6-.5.5-1.1.9-1.7,1.4-5.8,4.6-13.5,9.9-22.1,10.1h-.6c-1,0-2-.1-3-.2-3-.4-6-1.5-9.5-3.5-1-.6-2.2-1.2-3.5-2.1-.9-.6-1.8-1.1-2.7-1.7l-1.7-1.1h3.2c14,0,17.4-3.6,20-6.1.8-.8,1.5-1.5,2.4-2.1-7-2.1-13.7-4.3-20.1-6.5l-4.2-1.4c-8.9-2.9-21.6-7.9-29.6-18.2-2.6-3.3-4.5-6.9-5.7-10.7-1.6-5-2.1-9-1.4-12.2.6-2.7,2.1-5.1,4.4-7.1,1.7-1.4,4-2.7,6.7-3.7,5.7-2.2,13.4-3.5,23-3.8,1.7-.1,3.4-.1,5.1-.1s4.9.1,7.4.2h.2c1.8.5,3.5.6,5,.6h2.1c1.5,0,3,0,4.6.1,5.1.4,10.4,1.7,16,3.9,1.7.7,3.4,1.4,5.1,2.2,8.8,4.2,17.1,9.9,24.7,17,.8.7,1.5,1.4,2.3,2.2,2.9,2.9,5.7,6,8.1,9,4.4,5.6,7.7,11.2,9.8,16.6.9,2.2,1.5,4.3,2,6.4.5,2.3.8,4.6.8,6.7s0,2.8-.3,4.1c-.2,1.8-.4,3.5-.2,5.2.3,2.6,1.1,5.2,2.5,8.6.4.9.8,1.8,1.2,2.7,1.5,3.3,2.6,5.6,1.9,7.2Z"/>
    <path class="cls-1" d="M591.4,312.5c-.3.7-1,1.2-1.9,1.4h-.4c-2.1,0-8.8-3.7-19.6-9.8-10.9-6.2-24.4-13.8-32.1-16.2-.6.5-1.1.9-1.7,1.4-6,4.7-13.9,10.2-22.8,10.5h-.6c-1.1,0-2.1-.1-3.1-.2-3.1-.5-6.2-1.6-9.8-3.6-1.1-.6-2.2-1.3-3.7-2.2-.9-.6-1.8-1.2-2.8-1.8l-1.8-1.1h3.3c14.4,0,18-3.7,20.7-6.4.8-.8,1.6-1.6,2.5-2.2-7.2-2.2-14.1-4.5-20.8-6.7l-4.3-1.4c-9.2-3-22.3-8.2-30.6-18.8-2.7-3.4-4.6-7.1-5.9-11.1-1.7-5.2-2.1-9.4-1.5-12.7.6-2.8,2.1-5.3,4.6-7.3,1.8-1.5,4.1-2.8,6.9-3.9,5.9-2.3,13.9-3.6,23.8-3.9,1.7-.1,3.5-.1,5.3-.1s5.1.1,7.7.2h.2c1.9.5,3.7.6,5.2.7h2.1c1.5,0,3.1,0,4.7.1,5.2.4,10.8,1.8,16.5,4,1.8.7,3.5,1.5,5.3,2.3,9.1,4.3,17.6,10.2,25.5,17.6.8.7,1.6,1.5,2.3,2.3,3,3,5.8,6.2,8.4,9.4,4.5,5.8,7.9,11.5,10.2,17.1.9,2.2,1.6,4.4,2.1,6.6.5,2.4.8,4.7.9,7,0,1.4-.2,2.9-.3,4.2-.2,1.9-.4,3.6-.2,5.4.3,2.7,1.1,5.4,2.6,8.9.4,1,.9,1.9,1.3,2.8,1.5,3.5,2.6,5.9,1.8,7.5Z"/>
    <path class="cls-1" d="M593.7,314.1c-.3.7-1,1.2-2,1.5h-.4c-2.1,0-9.1-3.9-20.2-10.1-11.2-6.4-25.2-14.2-33.1-16.7-.6.5-1.2,1-1.8,1.5-6.1,4.9-14.4,10.5-23.6,10.8h-.6c-1.1,0-2.2-.1-3.2-.2-3.2-.5-6.4-1.7-10.1-3.7-1.1-.6-2.3-1.3-3.8-2.2-.9-.6-1.9-1.2-2.9-1.8l-1.8-1.2h3.5c14.9,0,18.6-3.8,21.3-6.6.8-.8,1.6-1.6,2.6-2.2-7.5-2.3-14.6-4.6-21.5-6.9l-4.4-1.5c-9.5-3.1-23-8.5-31.6-19.4-2.7-3.5-4.8-7.3-6.1-11.5-1.7-5.4-2.2-9.7-1.5-13.1.6-2.9,2.2-5.4,4.7-7.5,1.9-1.5,4.2-2.9,7.1-4,6.1-2.3,14.3-3.7,24.6-4.1,1.8-.1,3.6-.1,5.5-.1s5.3.1,7.9.2h.2c1.9.5,3.8.7,5.3.7h2.2c1.6,0,3.2,0,4.9.1,5.4.4,11.1,1.8,17.1,4.2,1.8.7,3.6,1.5,5.5,2.4,9.3,4.5,18.2,10.6,26.4,18.2.8.7,1.6,1.5,2.4,2.3,3.1,3.1,6,6.4,8.6,9.7,4.7,5.9,8.2,11.9,10.5,17.7.9,2.3,1.6,4.6,2.1,6.8.6,2.5.9,4.9.9,7.2s-.2,3-.3,4.4c-.2,1.9-.4,3.7-.2,5.6.3,2.7,1.1,5.6,2.7,9.1.4,1,.9,2,1.3,2.9,1.4,3.3,2.6,5.8,1.8,7.5Z"/>
    <path class="cls-1" d="M595.9,315.6c-.3.7-1,1.3-2.1,1.5h-.4c-2.2,0-9.3-4-20.8-10.5-11.6-6.6-26-14.7-34.2-17.2-.6.5-1.2,1-1.9,1.5-6.3,5.1-14.8,10.9-24.3,11.2h-.6c-1.1,0-2.2-.1-3.4-.2-3.3-.5-6.6-1.7-10.4-3.8-1.2-.6-2.4-1.4-3.9-2.3-1-.6-2-1.2-3-1.9l-1.9-1.2h3.6c15.4,0,19.2-3.9,22-6.8.8-.9,1.7-1.7,2.7-2.3-7.7-2.4-15.1-4.8-22.2-7.1l-4.6-1.5c-9.8-3.2-23.8-8.7-32.7-20.1-2.8-3.6-4.9-7.6-6.3-11.8-1.8-5.6-2.3-10-1.6-13.5.6-3,2.3-5.6,4.9-7.8,1.9-1.6,4.4-3,7.3-4.1,6.3-2.4,14.8-3.8,25.4-4.2,1.8-.1,3.7-.1,5.6-.1,2.7,0,5.4.1,8.2.2h.2c2,.6,3.9.7,5.5.7h2.3c1.6,0,3.4,0,5,.1,5.6.5,11.5,1.9,17.6,4.3,1.9.7,3.8,1.6,5.6,2.4,9.6,4.6,18.8,10.9,27.2,18.8.8.8,1.7,1.6,2.5,2.4,3.2,3.2,6.2,6.6,8.9,10,4.8,6.1,8.5,12.3,10.8,18.3,1,2.4,1.7,4.7,2.2,7,.6,2.6.9,5.1.9,7.4s-.2,3.1-.3,4.5c-.2,2-.4,3.8-.2,5.8.3,2.8,1.2,5.7,2.8,9.4.5,1,.9,2,1.4,3,1.8,3.6,3,6.2,2.2,7.9Z"/>
    <path class="cls-1" d="M598.2,317.2c-.4.8-1.1,1.3-2.1,1.6h-.4c-2.3,0-9.6-4.1-21.5-10.8-12-6.8-26.8-15.1-35.2-17.8-.6.5-1.3,1-1.9,1.6-6.5,5.2-15.3,11.2-25.1,11.5h-.7c-1.2,0-2.3-.1-3.5-.3-3.4-.5-6.8-1.8-10.8-3.9-1.2-.7-2.5-1.4-4-2.4-1-.6-2-1.3-3.1-1.9l-2-1.3h3.6c15.9,0,19.8-4,22.7-7,.9-.9,1.7-1.7,2.8-2.4-8-2.4-15.5-4.9-22.9-7.3l-4.7-1.6c-10.1-3.3-24.5-9-33.7-20.7-2.9-3.7-5.1-7.8-6.5-12.2-1.8-5.7-2.4-10.3-1.6-13.9.6-3.1,2.3-5.8,5-8,2-1.6,4.5-3.1,7.6-4.2,6.5-2.5,15.3-4,26.2-4.3,1.9-.1,3.8-.1,5.8-.1s5.6.1,8.4.2h.2c2.1.6,4,.7,5.7.7h2.4c1.7,0,3.5,0,5.2.2,5.7.5,11.9,1.9,18.2,4.4,1.9.8,3.9,1.6,5.8,2.5,9.9,4.7,19.4,11.2,28,19.4.9.8,1.7,1.6,2.6,2.5,3.3,3.3,6.4,6.8,9.2,10.3,5,6.3,8.7,12.7,11.2,18.8,1,2.5,1.7,4.9,2.3,7.2.6,2.6.9,5.2.9,7.6s-.2,3.2-.3,4.7c-.2,2-.5,4-.2,6,.3,2.9,1.2,5.9,2.9,9.7.5,1.1.9,2.1,1.4,3.1,1.7,3.6,2.9,6.3,2.1,8.1Z"/>
    <path class="cls-1" d="M600.4,318.7c-.4.8-1.1,1.3-2.2,1.6h-.4c-2.3,0-9.9-4.2-22.1-11.1-12.3-7-27.6-15.6-36.3-18.3-.6.5-1.3,1.1-2,1.6-6.7,5.4-15.8,11.6-25.8,11.8h-.7c-1.2,0-2.4-.1-3.6-.3-3.5-.5-7-1.8-11.1-4.1-1.2-.7-2.5-1.5-4.1-2.4-1-.6-2.1-1.3-3.2-2l-2-1.3h3.8c16.3,0,20.4-4.2,23.4-7.2s1.8-1.8,2.8-2.5c-8.2-2.5-16-5.1-23.5-7.6l-4.9-1.6c-10.4-3.4-25.2-9.3-34.7-21.3-3-3.8-5.3-8-6.7-12.6-1.9-5.9-2.4-10.6-1.7-14.3.7-3.2,2.4-5.9,5.2-8.3,2-1.7,4.7-3.2,7.8-4.4,6.6-2.6,15.7-4.1,27-4.5,1.9-.1,3.9-.1,6-.1s5.8.1,8.7.2h.2c2.1.6,4.1.7,5.8.8h2.4c1.7,0,3.6,0,5.4.2,5.9.5,12.2,2,18.7,4.5,2,.8,4,1.6,6,2.6,10.2,4.9,20,11.6,28.9,19.9.9.8,1.8,1.7,2.6,2.5,3.4,3.4,6.6,7,9.4,10.6,5.1,6.5,9,13,11.5,19.4,1,2.5,1.8,5,2.3,7.4.6,2.7.9,5.4,1,7.9,0,1.6-.2,3.2-.3,4.8-.2,2.1-.5,4.1-.3,6.1.3,3,1.2,6.1,3,10,.5,1.1,1,2.2,1.4,3.1,1.9,4.3,3.2,7.1,2.3,8.9Z"/>
    <path class="cls-1" d="M602.7,320.3c-.4.8-1.1,1.4-2.3,1.7h-.4c-2.4,0-10.2-4.3-22.8-11.4-12.7-7.2-28.4-16.1-37.3-18.8-.7.5-1.3,1.1-2,1.6-6.9,5.5-16.2,11.9-26.6,12.2h-.7c-1.2,0-2.5-.1-3.7-.3-3.6-.5-7.2-1.9-11.4-4.2-1.3-.7-2.6-1.5-4.3-2.5-1.1-.7-2.2-1.4-3.2-2.1l-2.1-1.3h3.9c16.8,0,21-4.3,24.1-7.4s1.8-1.8,2.9-2.5c-8.4-2.6-16.4-5.2-24.2-7.8l-5-1.6c-10.7-3.5-25.9-9.5-35.7-21.9-3.1-3.9-5.4-8.3-6.9-12.9-1.9-6.1-2.5-10.9-1.7-14.7.7-3.3,2.5-6.1,5.3-8.5,2.1-1.7,4.8-3.2,8-4.5,6.8-2.6,16.2-4.2,27.7-4.6,2-.1,4.1-.1,6.2-.1s5.9.1,8.9.2h.2c2.2.6,4.3.7,6,.8h2.5c1.8,0,3.7,0,5.5.2,6.1.5,12.6,2.1,19.3,4.7,2,.8,4.1,1.7,6.2,2.7,10.5,5,20.5,11.9,29.7,20.5.9.8,1.8,1.7,2.7,2.6,3.5,3.5,6.8,7.2,9.7,10.9,5.3,6.7,9.2,13.4,11.8,20,1,2.6,1.8,5.2,2.4,7.6.6,2.8,1,5.5,1,8.1s-.2,3.3-.4,4.9c-.3,2.2-.5,4.2-.3,6.3.3,3.1,1.3,6.3,3,10.3.5,1.1,1,2.2,1.5,3.2,2,3.9,3.4,6.7,2.5,8.6Z"/>
    <path class="cls-1" d="M604.9,321.8c-.4.8-1.2,1.4-2.3,1.7,0,0-.3.1-.4.1-2.5,0-10.5-4.5-23.4-11.8-13-7.4-29.2-16.5-38.4-19.4-.7.6-1.4,1.1-2.1,1.7-7.1,5.7-16.7,12.2-27.3,12.5h-.7c-1.3,0-2.5-.1-3.8-.3-3.7-.5-7.4-1.9-11.7-4.3-1.3-.7-2.7-1.5-4.4-2.6-1.1-.7-2.2-1.4-3.3-2.1l-2.1-1.4h4c17.3,0,21.6-4.4,24.7-7.6,1-1,1.9-1.9,3-2.6-8.7-2.7-16.9-5.4-24.9-8l-5.2-1.7c-11-3.6-26.7-9.8-36.7-22.5-3.2-4-5.6-8.5-7.1-13.3-2-6.2-2.6-11.2-1.7-15.2.7-3.4,2.6-6.3,5.5-8.7,2.1-1.8,4.9-3.3,8.2-4.6,7-2.7,16.6-4.3,28.5-4.7,2-.1,4.2-.1,6.3-.1,3,0,6.1.1,9.2.2h.2c2.2.6,4.4.8,6.2.8h2.6c1.8,0,3.8,0,5.7.2,6.3.5,12.9,2.1,19.8,4.8,2.1.8,4.2,1.7,6.3,2.7,10.8,5.2,21.1,12.3,30.5,21.1.9.9,1.9,1.8,2.8,2.7,3.6,3.6,7,7.4,10,11.2,5.4,6.9,9.5,13.8,12.2,20.5,1.1,2.7,1.9,5.3,2.5,7.9.7,2.9,1,5.7,1,8.3s-.2,3.4-.4,5.1c-.3,2.2-.5,4.3-.3,6.5.3,3.2,1.3,6.4,3.1,10.6.5,1.2,1,2.3,1.5,3.3,2,4.2,3.3,7,2.4,9Z"/>
    <path class="cls-1" d="M607.2,323.5c-.4.9-1.2,1.5-2.4,1.8,0,0-.3.1-.5.1-2.5,0-10.8-4.6-24-12.1-13.4-7.6-30-17-39.4-19.9-.7.6-1.4,1.2-2.1,1.7-7.3,5.8-17.1,12.6-28.1,12.9h-.7c-1.3,0-2.6-.1-3.9-.3-3.8-.6-7.6-2-12-4.4-1.3-.7-2.8-1.6-4.5-2.7-1.1-.7-2.3-1.4-3.4-2.2l-2.2-1.4h4.1c17.8,0,22.2-4.5,25.4-7.8,1-1,1.9-1.9,3.1-2.7-8.9-2.7-17.4-5.5-25.6-8.2l-5.3-1.7c-11.3-3.7-27.4-10.1-37.7-23.1-3.3-4.2-5.7-8.7-7.3-13.7-2.1-6.4-2.6-11.5-1.8-15.6.7-3.4,2.6-6.5,5.7-9,2.2-1.8,5.1-3.4,8.5-4.8,7.2-2.8,17.1-4.4,29.3-4.9,2.1-.1,4.3-.1,6.5-.1s6.3.1,9.5.2h.2c2.3.7,4.5.8,6.3.8h2.6c1.9,0,3.9,0,5.8.2,6.4.5,13.3,2.2,20.3,4.9,2.2.8,4.3,1.8,6.5,2.8,11.1,5.3,21.7,12.6,31.4,21.7,1,.9,1.9,1.8,2.9,2.8,3.7,3.7,7.2,7.6,10.3,11.5,5.5,7.1,9.8,14.2,12.5,21.1,1.1,2.7,2,5.5,2.6,8.1.7,3,1,5.8,1.1,8.6,0,1.8-.2,3.5-.4,5.2-.3,2.3-.5,4.4-.3,6.7.3,3.3,1.3,6.6,3.2,10.9.5,1.2,1.1,2.3,1.6,3.4,1.7,4.2,3.1,7.1,2.2,9.2Z"/>
    <path class="cls-1" d="M609.4,325c-.4.9-1.2,1.5-2.5,1.8,0,0-.3.1-.5.1-2.6,0-11.1-4.7-24.7-12.4-13.8-7.8-30.8-17.4-40.5-20.4-.7.6-1.4,1.2-2.2,1.8-7.5,6-17.6,12.9-28.8,13.2h-.8c-1.3,0-2.7-.1-4-.3-3.9-.6-7.8-2-12.4-4.5-1.4-.8-2.8-1.6-4.6-2.7-1.2-.7-2.3-1.5-3.5-2.2l-2.2-1.4h4.2c18.2,0,22.8-4.6,26.1-8,1-1,2-2,3.2-2.7-9.1-2.8-17.8-5.7-26.3-8.4l-5.4-1.8c-11.6-3.8-28.1-10.4-38.7-23.8-3.3-4.3-5.9-9-7.5-14-2.1-6.6-2.7-11.8-1.8-16,.7-3.5,2.7-6.6,5.8-9.2,2.3-1.9,5.2-3.5,8.7-4.9,7.4-2.9,17.5-4.5,30.1-5,2.2-.1,4.4-.1,6.7-.1s6.4.1,9.7.2h.2c2.4.7,4.6.8,6.5.8h2.7c2,0,4,0,6,.2,6.6.5,13.6,2.2,20.9,5.1,2.2.9,4.5,1.8,6.7,2.9,11.4,5.5,22.3,12.9,32.2,22.3,1,.9,2,1.9,3,2.8,3.8,3.8,7.4,7.8,10.5,11.8,5.7,7.3,10,14.6,12.8,21.6,1.1,2.8,2,5.6,2.6,8.3.7,3,1.1,6,1.1,8.8s-.2,3.6-.4,5.4c-.3,2.3-.5,4.6-.3,6.8.4,3.3,1.4,6.8,3.3,11.2.5,1.2,1.1,2.4,1.6,3.5,2.1,4.1,3.5,7.1,2.5,9.2Z"/>
    <path class="cls-1" d="M611.6,326.5c-.4.9-1.3,1.5-2.5,1.9,0,0-.3.1-.5.1-2.7,0-11.4-4.8-25.3-12.7-14.1-8-31.6-17.9-41.5-21-.7.6-1.5,1.2-2.3,1.8-7.7,6.1-18,13.2-29.5,13.6h-.8c-1.4,0-2.7-.1-4.1-.3-4-.6-8-2.1-12.7-4.7-1.4-.8-2.9-1.7-4.7-2.8-1.2-.7-2.4-1.5-3.6-2.3l-2.3-1.5h4.3c18.7,0,23.4-4.8,26.8-8.2,1-1,2-2,3.3-2.8-9.4-2.9-18.3-5.8-27-8.6l-5.6-1.8c-11.9-3.9-28.9-10.6-39.7-24.4-3.4-4.4-6-9.2-7.7-14.4-2.2-6.7-2.8-12.1-1.9-16.4.8-3.6,2.8-6.8,6-9.5,2.3-1.9,5.3-3.6,8.9-5,7.6-2.9,18-4.7,30.9-5.1,2.2-.1,4.5-.1,6.9-.1s6.6.1,10,.2h.2c2.4.7,4.7.8,6.7.9h2.8c2,0,4.1,0,6.1.2,6.8.5,14,2.3,21.4,5.2,2.3.9,4.6,1.9,6.9,3,11.7,5.6,22.8,13.3,33.1,22.8,1,.9,2,1.9,3,2.9,3.9,3.9,7.6,8,10.8,12.1,5.8,7.5,10.3,14.9,13.2,22.2,1.2,2.9,2.1,5.8,2.7,8.5.7,3.1,1.1,6.1,1.1,9s-.2,3.7-.4,5.5c-.3,2.4-.5,4.7-.3,7,.4,3.4,1.4,7,3.4,11.5.6,1.3,1.1,2.5,1.6,3.6,1.9,4.3,3.3,7.4,2.3,9.6Z"/>
    <path class="cls-1" d="M613.9,328c-.4.9-1.3,1.6-2.6,1.9-.2,0-.3.1-.5.1-2.7,0-11.7-5-26-13-14.5-8.2-32.4-18.3-42.6-21.5-.8.6-1.5,1.3-2.3,1.9-7.9,6.3-18.5,13.6-30.3,13.9h-.8c-1.4,0-2.8-.1-4.2-.3-4.1-.6-8.2-2.1-13-4.8-1.4-.8-3-1.7-4.9-2.9-1.2-.8-2.5-1.5-3.7-2.3l-2.4-1.5h4.4c19.2,0,24-4.9,27.4-8.4,1.1-1.1,2.1-2.1,3.3-2.9-9.6-2.9-18.8-6-27.6-8.9l-5.7-1.9c-12.2-4-29.6-10.9-40.7-25-3.5-4.5-6.2-9.4-7.9-14.8-2.2-6.9-2.9-12.4-1.9-16.8.8-3.7,2.8-7,6.1-9.7,2.4-2,5.5-3.7,9.1-5.1,7.8-3,18.5-4.8,31.7-5.2,2.3-.1,4.6-.1,7-.1s6.8.1,10.2.2h.2c2.5.7,4.9.8,6.8.9h2.9c2.1,0,4.2,0,6.3.2,6.9.6,14.3,2.4,22,5.3,2.3.9,4.7,1.9,7,3,12,5.7,23.4,13.6,33.9,23.4,1,1,2.1,2,3.1,3,4,4,7.8,8.2,11.1,12.4,6,7.7,10.5,15.3,13.5,22.8,1.2,3,2.1,5.9,2.8,8.7.7,3.2,1.1,6.3,1.1,9.2s-.2,3.8-.4,5.6c-.3,2.5-.6,4.8-.3,7.2.4,3.5,1.5,7.1,3.5,11.8.6,1.3,1.1,2.5,1.7,3.7,2.2,4.5,3.7,7.7,2.7,9.9Z"/>
    <path class="cls-1" d="M616.1,329.5c-.4,1-1.3,1.6-2.6,2-.2,0-.3.1-.5.1-2.8,0-11.9-5.1-26.6-13.4-14.8-8.4-33.2-18.8-43.6-22-.8.6-1.6,1.3-2.4,1.9-8.1,6.5-18.9,13.9-31,14.2h-.8c-1.4,0-2.9-.1-4.3-.3-4.2-.6-8.4-2.2-13.3-4.9-1.5-.8-3-1.8-5-2.9-1.2-.8-2.5-1.6-3.8-2.4l-2.4-1.6h4.6c19.6,0,24.6-5,28.1-8.6,1.1-1.1,2.1-2.2,3.4-3-9.9-3-19.2-6.1-28.3-9.1l-5.9-1.9c-12.5-4.1-30.3-11.2-41.7-25.6-3.6-4.6-6.3-9.7-8.1-15.1-2.3-7.1-2.9-12.7-2-17.2.8-3.8,2.9-7.2,6.3-9.9,2.4-2,5.6-3.8,9.4-5.3,8-3.1,18.9-4.9,32.4-5.4,2.3-.1,4.7-.1,7.2-.1s6.9.1,10.5.2h.2c2.5.7,5,.9,7,.9h2.9c2.1,0,4.3,0,6.4.2,7.1.6,14.7,2.4,22.5,5.5,2.4.9,4.8,2,7.2,3.1,12.3,5.9,24,13.9,34.7,24,1.1,1,2.1,2,3.2,3.1,4.1,4.1,8,8.4,11.4,12.7,6.1,7.8,10.8,15.7,13.8,23.3,1.2,3,2.2,6,2.8,8.9.7,3.3,1.1,6.5,1.2,9.5,0,2-.2,3.9-.4,5.8-.3,2.5-.6,4.9-.3,7.4.4,3.6,1.5,7.3,3.6,12.1.6,1.3,1.2,2.6,1.7,3.8,2.1,4.6,3.6,7.8,2.5,10Z"/>
    <path class="cls-1" d="M618.4,331.1c-.5,1-1.4,1.6-2.7,2-.2,0-.3.1-.5.1-2.9,0-12.2-5.2-27.3-13.7-15.2-8.6-34-19.2-44.7-22.5-.8.7-1.6,1.3-2.4,2-8.3,6.6-19.4,14.2-31.8,14.6h-.8c-1.5,0-2.9-.1-4.4-.3-4.3-.6-8.6-2.2-13.6-5-1.5-.8-3.1-1.8-5.1-3-1.3-.8-2.6-1.6-3.9-2.5l-2.5-1.6h4.7c20.1,0,25.1-5.1,28.8-8.9,1.1-1.1,2.2-2.2,3.5-3-10.1-3.1-19.7-6.2-29-9.3l-6-2c-12.8-4.2-31.1-11.4-42.7-26.2-3.7-4.7-6.5-9.9-8.3-15.5-2.3-7.3-3-13-2-17.6.8-3.9,3-7.3,6.4-10.2,2.5-2.1,5.7-3.9,9.6-5.4,8.2-3.2,19.4-5,33.2-5.5,2.4-.1,4.9-.1,7.4-.1s7.1.1,10.7.2h.2c2.6.7,5.1.9,7.2.9h3c2.2,0,4.4,0,6.6.2,7.3.6,15,2.5,23,5.6,2.4,1,4.9,2,7.4,3.2,12.6,6,24.6,14.3,35.6,24.6,1.1,1,2.2,2.1,3.3,3.1,4.2,4.2,8.1,8.6,11.6,13,6.3,8,11.1,16.1,14.2,23.9,1.2,3.1,2.2,6.2,2.9,9.2.8,3.3,1.2,6.6,1.2,9.7s-.2,4-.4,5.9c-.3,2.6-.6,5-.3,7.6.4,3.7,1.5,7.5,3.6,12.3.6,1.4,1.2,2.7,1.8,3.9,2,4.7,3.6,8,2.5,10.3Z"/>
    <path class="cls-1" d="M620.6,332.6c-.5,1-1.4,1.7-2.8,2-.2,0-.3.1-.5.1-2.9,0-12.5-5.3-27.9-14-15.5-8.8-34.8-19.7-45.7-23.1-.8.7-1.6,1.3-2.5,2-8.5,6.8-19.9,14.6-32.5,14.9h-.9c-1.5,0-3-.1-4.5-.3-4.4-.6-8.8-2.3-14-5.1-1.5-.9-3.2-1.8-5.2-3.1-1.3-.8-2.6-1.7-4-2.5l-2.5-1.6h4.7c20.6,0,25.7-5.2,29.5-9.1,1.1-1.2,2.2-2.3,3.6-3.1-10.3-3.2-20.2-6.4-29.7-9.5l-6.1-2c-13.1-4.3-31.8-11.7-43.7-26.8-3.8-4.8-6.6-10.1-8.4-15.8-2.4-7.4-3.1-13.3-2.1-18.1.8-4,3-7.5,6.6-10.4,2.6-2.1,5.9-4,9.8-5.5,8.4-3.2,19.8-5.1,34-5.6,2.4-.1,5-.1,7.5-.1,3.6,0,7.3.1,11,.2h.2c2.7.8,5.2.9,7.3.9h3.1c2.2,0,4.5,0,6.8.2,7.5.6,15.4,2.5,23.6,5.7,2.5,1,5,2.1,7.5,3.3,12.9,6.2,25.2,14.6,36.4,25.1,1.1,1,2.2,2.1,3.3,3.2,4.3,4.3,8.3,8.8,11.9,13.3,6.4,8.2,11.3,16.5,14.5,24.5,1.3,3.2,2.3,6.3,3,9.4.8,3.4,1.2,6.8,1.2,9.9s-.2,4.1-.4,6.1c-.3,2.7-.6,5.2-.3,7.7.4,3.8,1.6,7.7,3.7,12.6.6,1.4,1.2,2.7,1.8,4,2.2,4.9,3.8,8.3,2.7,10.6Z"/>
    <path class="cls-1" d="M622.9,334.2c-.5,1-1.4,1.7-2.8,2.1-.2,0-.3.1-.5.1-3,0-12.8-5.4-28.5-14.3-15.9-9-35.6-20.1-46.8-23.6-.8.7-1.7,1.4-2.5,2.1-8.7,6.9-20.3,14.9-33.3,15.3h-.9c-1.5,0-3.1-.1-4.6-.3-4.5-.7-9-2.3-14.3-5.2-1.6-.9-3.3-1.9-5.3-3.2-1.3-.8-2.7-1.7-4.1-2.6l-2.6-1.7h4.9c21.1,0,26.3-5.4,30.2-9.3,1.2-1.2,2.3-2.3,3.7-3.2-10.6-3.2-20.6-6.5-30.4-9.7l-6.3-2.1c-13.4-4.4-32.5-12-44.7-27.5-3.9-4.9-6.8-10.4-8.6-16.2-2.4-7.6-3.1-13.6-2.1-18.5.9-4.1,3.1-7.7,6.7-10.7,2.6-2.2,6-4.1,10.1-5.6,8.6-3.3,20.3-5.3,34.8-5.8,2.5-.1,5.1-.1,7.7-.1s7.4.1,11.2.2h.2c2.7.8,5.3.9,7.5,1h3.1c2.3,0,4.6,0,6.9.2,7.6.6,15.7,2.6,24.1,5.9,2.6,1,5.1,2.1,7.7,3.3,13.2,6.3,25.7,14.9,37.2,25.7,1.1,1.1,2.3,2.2,3.4,3.3,4.4,4.4,8.5,9,12.2,13.6,6.6,8.4,11.6,16.8,14.8,25,1.3,3.3,2.3,6.5,3,9.6.8,3.5,1.2,6.9,1.3,10.2,0,2.1-.2,4.2-.4,6.2-.3,2.7-.6,5.3-.3,7.9.4,3.9,1.6,7.8,3.8,12.9.6,1.4,1.3,2.8,1.9,4.1,2.1,5,3.7,8.5,2.6,10.9Z"/>
    <path class="cls-1" d="M625.1,335.7c-.5,1-1.5,1.8-2.9,2.1-.2,0-.4.1-.6.1-3.1,0-13.1-5.6-29.2-14.6-16.3-9.2-36.4-20.6-47.8-24.1-.8.7-1.7,1.4-2.6,2.1-8.9,7.1-20.8,15.2-34,15.6h-.9c-1.6,0-3.1-.1-4.7-.3-4.6-.7-9.2-2.4-14.6-5.4-1.6-.9-3.3-1.9-5.5-3.2-1.4-.9-2.8-1.7-4.2-2.6l-2.7-1.7h5c21.5,0,26.9-5.5,30.8-9.5,1.2-1.2,2.3-2.4,3.7-3.2-10.8-3.3-21.1-6.7-31-10l-6.4-2.1c-13.7-4.5-33.3-12.2-45.7-28.1-4-5-6.9-10.6-8.8-16.6-2.5-7.8-3.2-14-2.2-18.9.9-4.2,3.2-7.8,6.9-10.9,2.7-2.2,6.1-4.2,10.3-5.8,8.8-3.4,20.7-5.4,35.6-5.9,2.5-.1,5.2-.1,7.9-.1s7.6.1,11.5.3h.2c2.8.8,5.5.9,7.7,1h3.2c2.3,0,4.7,0,7.1.2,7.8.6,16.1,2.6,24.7,6,2.6,1,5.3,2.2,7.9,3.4,13.5,6.4,26.3,15.3,38.1,26.3,1.2,1.1,2.3,2.2,3.5,3.4,4.5,4.5,8.7,9.2,12.5,14,6.7,8.6,11.8,17.2,15.2,25.6,1.3,3.3,2.4,6.6,3.1,9.8.8,3.6,1.2,7.1,1.3,10.4,0,2.2-.2,4.3-.5,6.3-.3,2.8-.6,5.4-.3,8.1.4,4,1.6,8,3.9,13.2.6,1.5,1.3,2.8,1.9,4.2,2.1,4.9,3.8,8.5,2.6,10.9Z"/>
    <path class="cls-1" d="M627.4,337.3c-.5,1.1-1.5,1.8-3,2.2-.2,0-.4.1-.6.1-3.1,0-13.4-5.7-29.8-15-16.6-9.4-37.2-21-48.9-24.7-.9.7-1.7,1.4-2.7,2.2-9.1,7.2-21.2,15.6-34.8,16h-.9c-1.6,0-3.2-.1-4.8-.3-4.7-.7-9.4-2.4-14.9-5.5-1.6-.9-3.4-2-5.6-3.3-1.4-.9-2.8-1.8-4.3-2.7l-2.7-1.7h5.1c22,0,27.5-5.6,31.5-9.7,1.2-1.2,2.4-2.4,3.8-3.3-11-3.4-21.5-6.8-31.7-10.2l-6.6-2.2c-14-4.6-34-12.5-46.7-28.7-4-5.1-7.1-10.8-9-16.9-2.6-7.9-3.3-14.3-2.2-19.3.9-4.3,3.3-8,7-11.1,2.7-2.3,6.3-4.3,10.5-5.9,9-3.5,21.2-5.5,36.3-6,2.6-.1,5.3-.1,8.1-.1s7.8.1,11.7.3h.2c2.9.8,5.6,1,7.9,1h3.3c2.4,0,4.8,0,7.2.2,8,.6,16.5,2.7,25.2,6.1,2.7,1,5.4,2.2,8.1,3.5,13.8,6.6,26.9,15.6,38.9,26.9,1.2,1.1,2.4,2.3,3.6,3.4,4.6,4.6,8.9,9.4,12.7,14.3,6.9,8.8,12.1,17.6,15.5,26.1,1.4,3.4,2.4,6.8,3.2,10,.8,3.7,1.3,7.2,1.3,10.6s-.2,4.4-.5,6.5c-.3,2.8-.6,5.5-.3,8.3.4,4,1.7,8.2,4,13.5.6,1.5,1.3,2.9,1.9,4.2,2.4,5,4.1,8.7,3,11.2Z"/>
    <path class="cls-1" d="M629.6,338.8c-.5,1.1-1.5,1.8-3,2.2-.2,0-.4.1-.6.1-3.2,0-13.7-5.8-30.5-15.3-17-9.6-38-21.5-49.9-25.2-.9.7-1.8,1.5-2.7,2.2-9.3,7.4-21.7,15.9-35.5,16.3h-.9c-1.6,0-3.3-.1-4.9-.4-4.8-.7-9.6-2.5-15.3-5.6-1.7-.9-3.5-2-5.7-3.4-1.4-.9-2.9-1.8-4.3-2.8l-2.8-1.8h5.2c22.5,0,28.1-5.7,32.2-9.9,1.2-1.3,2.4-2.5,3.9-3.4-11.3-3.5-22-7-32.4-10.4l-6.7-2.2c-14.3-4.7-34.7-12.8-47.7-29.3-4.1-5.3-7.2-11.1-9.2-17.3-2.6-8.1-3.3-14.6-2.3-19.7.9-4.4,3.3-8.2,7.2-11.4,2.8-2.3,6.4-4.3,10.7-6,9.2-3.5,21.6-5.6,37.1-6.2,2.7-.1,5.4-.1,8.2-.1s7.9.1,12,.3h.2c2.9.8,5.7,1,8,1h3.3c2.4,0,4.9,0,7.4.2,8.1.7,16.8,2.8,25.8,6.3,2.7,1.1,5.5,2.3,8.2,3.6,14.1,6.7,27.5,16,39.8,27.5,1.2,1.1,2.4,2.3,3.6,3.5,4.7,4.7,9.1,9.6,13,14.6,7,9,12.4,18,15.8,26.7,1.4,3.5,2.5,6.9,3.2,10.2.9,3.7,1.3,7.4,1.3,10.8s-.2,4.5-.5,6.6c-.3,2.9-.6,5.6-.3,8.4.4,4.1,1.7,8.4,4.1,13.8.7,1.5,1.3,3,2,4.3,2.5,5.6,4.2,9.3,3,11.8Z"/>
    <path class="cls-1" d="M631.9,340.5c-.5,1.1-1.6,1.9-3.1,2.3-.2,0-.4.1-.6.1-3.3,0-14-5.9-31.1-15.6-17.3-9.8-38.8-21.9-51-25.7-.9.7-1.8,1.5-2.8,2.2-9.5,7.5-22.1,16.2-36.3,16.6h-1c-1.7,0-3.4-.1-5-.4-4.9-.7-9.8-2.5-15.6-5.7-1.7-1-3.6-2-5.8-3.4-1.5-.9-2.9-1.9-4.4-2.8l-2.8-1.8h5.3c23,0,28.7-5.8,32.9-10.1,1.3-1.3,2.5-2.5,4-3.5-11.5-3.5-22.5-7.1-33.1-10.6l-6.8-2.2c-14.6-4.8-35.5-13-48.7-29.9-4.2-5.4-7.4-11.3-9.4-17.7-2.7-8.3-3.4-14.9-2.3-20.1.9-4.5,3.4-8.4,7.3-11.6,2.9-2.4,6.5-4.4,11-6.1,9.3-3.6,22.1-5.7,37.9-6.3,2.7-.1,5.6-.1,8.4-.1,4,0,8.1.1,12.2.3h.2c3,.8,5.8,1,8.2,1.1h3.4c2.5,0,5,0,7.5.2,8.3.7,17.2,2.8,26.3,6.4,2.8,1.1,5.6,2.3,8.4,3.6,14.4,6.9,28.1,16.3,40.6,28,1.2,1.2,2.5,2.4,3.7,3.6,4.8,4.8,9.3,9.8,13.3,14.9,7.2,9.2,12.6,18.3,16.2,27.3,1.4,3.6,2.5,7.1,3.3,10.4.9,3.8,1.3,7.5,1.4,11.1,0,2.3-.2,4.6-.5,6.8-.3,3-.7,5.7-.4,8.6.5,4.2,1.7,8.5,4.2,14.1.7,1.6,1.4,3,2,4.4,2.4,5.2,4.2,9,3,11.6Z"/>
    <path class="cls-1" d="M634.1,342c-.5,1.1-1.6,1.9-3.2,2.3-.2,0-.4.1-.6.1-3.4,0-14.2-6.1-31.7-15.9-17.7-10-39.6-22.4-52-26.3-.9.8-1.9,1.5-2.8,2.3-9.7,7.7-22.6,16.6-37,17h-1c-1.7,0-3.4-.1-5.1-.4-5-.7-10-2.6-15.9-5.8-1.8-1-3.6-2.1-5.9-3.5-1.5-.9-3-1.9-4.5-2.9l-2.9-1.9h5.4c23.4,0,29.3-6,33.6-10.3,1.3-1.3,2.5-2.6,4.1-3.5-11.8-3.6-22.9-7.3-33.8-10.8l-7-2.3c-14.9-4.9-36.2-13.3-49.7-30.6-4.3-5.5-7.5-11.5-9.6-18-2.7-8.5-3.5-15.2-2.4-20.6,1-4.5,3.5-8.5,7.5-11.9,2.9-2.4,6.7-4.5,11.2-6.3,9.5-3.7,22.6-5.8,38.7-6.4,2.8-.1,5.7-.1,8.6-.1s8.3.1,12.5.3h.2c3,.9,5.9,1,8.4,1.1h3.5c2.5,0,5.1,0,7.7.2,8.5.7,17.5,2.9,26.8,6.5,2.8,1.1,5.7,2.4,8.6,3.7,14.7,7,28.6,16.6,41.4,28.6,1.3,1.2,2.5,2.4,3.8,3.7,4.9,4.9,9.5,10,13.6,15.2,7.3,9.4,12.9,18.7,16.5,27.8,1.5,3.6,2.6,7.2,3.4,10.7.9,3.9,1.4,7.7,1.4,11.3s-.2,4.7-.5,6.9c-.4,3-.7,5.9-.4,8.8.5,4.3,1.8,8.7,4.2,14.4.7,1.6,1.4,3.1,2.1,4.5,2.2,5.6,4.1,9.5,2.8,12.1Z"/>
    <path class="cls-1" d="M636.4,343.5c-.5,1.2-1.6,2-3.2,2.4-.2,0-.4.1-.6.1-3.4,0-14.5-6.2-32.4-16.3-18-10.2-40.4-22.8-53.1-26.8-.9.8-1.9,1.6-2.9,2.3-9.9,7.9-23.1,16.9-37.8,17.3h-1c-1.7,0-3.5-.1-5.2-.4-5.1-.8-10.2-2.7-16.2-6-1.8-1-3.7-2.1-6.1-3.6-1.5-.9-3.1-1.9-4.6-2.9l-2.9-1.9h5.5c23.9,0,29.9-6.1,34.2-10.5,1.3-1.3,2.6-2.6,4.2-3.6-12-3.7-23.4-7.4-34.5-11.1l-7.1-2.3c-15.2-5-36.9-13.6-50.8-31.2-4.4-5.6-7.7-11.8-9.8-18.4-2.8-8.6-3.6-15.5-2.4-21,1-4.6,3.5-8.7,7.6-12.1,3-2.5,6.8-4.6,11.4-6.4,9.7-3.8,23-6,39.5-6.5,2.8-.1,5.8-.1,8.8-.1s8.4.1,12.7.3h.2c3.1.9,6,1,8.5,1.1h3.6c2.6,0,5.2,0,7.8.2,8.6.7,17.9,2.9,27.4,6.7,2.9,1.1,5.8,2.4,8.8,3.8,15,7.2,29.2,17,42.3,29.2,1.3,1.2,2.6,2.5,3.9,3.7,5,5,9.7,10.2,13.8,15.5,7.5,9.5,13.1,19.1,16.8,28.4,1.5,3.7,2.6,7.4,3.4,10.9.9,4,1.4,7.9,1.4,11.5s-.3,4.8-.5,7c-.4,3.1-.7,6-.4,9,.5,4.4,1.8,8.9,4.3,14.7.7,1.6,1.4,3.2,2.1,4.6,2.7,5.7,4.5,9.7,3.3,12.4Z"/>
  </g>
  <path class="cls-2" d="M610.6,295c-.4-1.2-.2-1.2.7-1,11.9,3.2,4.7,16.2-.7,1Z"/>
</svg>