<?xml version="1.0" encoding="UTF-8"?>
<svg id="Layer_1" data-name="Layer 1" xmlns="http://www.w3.org/2000/svg" version="1.1" viewBox="0 0 821.6 447.5">
  <defs>
    <style>
      .cls-1 {
        fill: #fff;
        stroke-width: 0px;
      }
    </style>
  </defs>
  <path class="cls-1" d="M415,289.7c-24.5-.8-49-1.7-74.3-2.5,3.6-7.9,6.8-15.2,10.2-22.4.3-.7,1.7-1.3,2.6-1.4,21-1.7,42.1-3.3,63.1-5,15.1-1.2,30.2-2.5,45.3-4,2.7-.3,4.3.2,5.6,2.8,2.6,5.7,5.6,11.3,8.7,17.6-27.1.6-53.5,1.3-79.8,1.9v.6c7.8.3,15.7.6,23.5.9,18.9.8,37.8,1.5,56.7,2.3.8,0,2.1.6,2.3,1.3,2.1,5.9,4,11.9,6.2,18.6-30.8,1.1-60.7,2.2-90.6,3.3v.4c30.3.7,60.6,1.4,91.4,2.1v19.8c-6.1-.4-11.7-.6-17.3-1-20.2-1.3-40.3-2.6-60.5-3.9-22.9-1.5-45.9-3-68.8-4.3-2.7-.2-3.8-1-3.3-3.7,1-5.9,1.9-11.9,2.9-17.8.3-1.7,1-2.4,2.9-2.4,21.2-.6,42.4-1.4,63.5-2.1,3.3-.1,6.5-.4,9.8-.6v-.5Z"/>
  <path class="cls-1" d="M336.4,327h148.6c-.6,6-2.9,11.3-5.5,16.5-4.9,9.8-10.8,18.7-20.9,23.9-3.8,2-7.8,3.2-12.2,3.2h-71.9c-6.4,0-11.7-3-16.5-6.7-12.1-9.3-17.6-22.5-21.6-36.9ZM463.4,346.7h-104.4c.6,3.1,2.5,4.2,5.3,4.2h93.9c2.8,0,4.4-1.2,5.2-4.2Z"/>
  <path class="cls-1" d="M411,252.7h-36.8c-1.3,0-2.6,0-3.9-.1-4.8-.5-7.2-3.1-6.8-7.9.2-2.1.6-4.4,1.5-6.3,4-9.1,8.8-17.7,15.2-25.4,3.4-4.1,7.4-6.3,13.1-6.2,11.6.3,23.2.3,34.8,0,5.3-.1,9.4,1.8,13.1,5.2,1.4,1.3,2.8,2.6,3.7,4.2,4.2,7.4,8.8,14.6,12.3,22.3,4.4,9.6,1.2,14.1-9.2,14.1h-37ZM378.8,231.7h64.6c-.2-2.8-1.3-4.1-3.9-4.1h-56.8c-2.6,0-3.7,1.3-3.9,4.1h0Z"/>
  <path class="cls-1" d="M409.3,136.7v19.9c-4.7,0-9.6,0-14.5,0-1,0-2-1.2-2.7-2.1-1-1.2-1.7-2.6-2.5-4-5.4-9.5-10.9-19.1-16.3-28.6-1.3-2.3-3.6-4.7-2.1-7.6,1.6-2.9,4.7-1.9,7.3-1.9h66.6c5.4,0,6.6,1.7,4.4,6.7-1,2.2-2.2,4.2-3.4,6.3-4.7,8.6-9.4,17.1-14,25.8-2,3.9-4.3,6.4-9.2,5.8-2.8-.4-5.7,0-8.6,0v-20c5.5,0,10.5,0,15.5,0,2.6,0,3.8-1,4-3.8h-45.8c.1,2.7,1.3,3.8,3.9,3.8,5.6,0,11.2,0,17.2,0l.2-.3Z"/>
  <path class="cls-1" d="M408.9,180h-18.6v-20.5h41.3c0,3-.4,6,0,8.9,1.3,9.1,3,18.1,4.5,27.1,0,.4.2.8.3,1.1,1.2,6.1.3,7.2-5.9,7.2s-6.3-.2-9.5,0c-4,.3-7.1-.6-8.1-5.9-.5,1.4-.7,1.9-.9,2.4-.7,2.8-2.3,3.9-5.4,3.8-8.2-.2-16.4,0-24.2,0,1.9-5.9,3.9-12.1,5.8-18.3.5-1.8,1.5-2.3,3.2-2.2h14.5c2.5,0,3.5-.7,2.7-3.7h.3ZM414.4,180c-.2.3-.4.5-.6.8.7.9,1.3,2.6,2.1,2.6,4.1.3,8.2.1,12.3.1.2-.3.4-.6.6-.9-.7-.9-1.3-2.5-2.1-2.6-4.1-.3-8.2,0-12.3,0h0Z"/>
  <path class="cls-1" d="M447.3,77c6.4,0,12.6-.1,18.8,0,1.6,0,4.4.8,4.6,1.7.6,2.5,1.4,5.4-1,7.7,1.7,1.7,1.8,2.4,1.3,11.2h-9.6c-.5,0-1.3-1.1-1.4-1.8-.2-1.8,0-3.6,0-5.3s-.2-1.5-.4-2.3h-1v9.3h-11.3v-20.5ZM459.8,78.9c-2.3,2.2-2.1,5.8,0,6.6v-6.6Z"/>
  <path class="cls-1" d="M400.7,77.2v17.6c0,.7-1,1.8-1.8,2-6.8,1.7-13.7,1.7-20.5,0-.8-.2-1.9-1.7-1.9-2.7-.2-5.5,0-11.1,0-16.9h11.1v11.1c0,1.5-.1,3,0,4.4,0,.8.7,1.6,1.1,2.3.4-.8,1-1.6,1-2.4v-15.6h11.1v.2Z"/>
  <path class="cls-1" d="M350.5,89h10.7v5c0,.5.6,1,1,1.5.4-.5,1.1-1,1.2-1.6.5-4,.3-4.4-3.5-5.4-2.2-.6-4.4-1.3-6.5-1.9-3.5-1-2.2-3.9-2.5-6.2-.2-2.2,1.3-2.9,2.9-2.9,6-.1,12-.1,18,0,2,0,3,1.3,2.8,3.4v3.8h-10.7v-4.3c0-.4-.7-.8-1-1.2-.4.4-.9.7-1,1.2-.8,3,0,4.4,3.1,5.1,1.6.4,3.3.8,4.9,1.2,5.4,1.3,5.7,1.7,5.2,7.3-.1,1.1-1.2,2.7-2.1,2.9-6.7,1.7-13.5,1.6-20.3.2-.8-.2-1.8-1.5-2-2.4-.3-1.7,0-3.5,0-5.6h-.2Z"/>
  <path class="cls-1" d="M402.5,77.1c6.6,0,12.6-.1,18.6,0,4.2.1,4.5.6,4.5,4.7,0,6.6-.4,7-7.2,7h-5.5v8.7h-10.5v-20.5h.1ZM413.1,86.4h1.7v-6.2c0-.3-.4-.7-.7-.8-.3,0-.9.3-.9.4v6.6h-.1Z"/>
  <path class="cls-1" d="M438.2,85.4h6c.1,1.3-1.9,2.3-6.1,3.1v6.5h7.3c.2.3.4.6.6.9-.6.6-1.2,1.8-1.8,1.9-5.5,0-11,0-16.7,0v-20.8h16.9c.5,0,1,1.1,1.5,1.7-.1.2-.3.5-.4.7h-7.2v5.9h0Z"/>
</svg>