<?xml version="1.0" encoding="utf-8"?>
<!-- Generator: Adobe Illustrator 23.0.0, SVG Export Plug-In . SVG Version: 6.00 Build 0)  -->
<svg version="1.1" id="message" xmlns="http://www.w3.org/2000/svg" xmlns:xlink="http://www.w3.org/1999/xlink" x="0px" y="0px"
	 viewBox="0 0 240 4140" style="enable-background:new 0 0 240 4140;" xml:space="preserve">
<title>message</title>
<path d="M2.5,187.2v6.5l-2.5,0v-6.5H2.5z"/>
<path d="M2.5,277.2v12.9h0v2.4H0v-15.3H2.5z"/>
<path d="M2.5,367.2v12.9H5v2.4H0v-15.3H2.5z"/>
<path d="M2.5,457.1v12.9H10v2.4H0v-15.3H2.5z"/>
<path d="M2.5,547.1v12.9H10v2.4H0v-15.3H2.5z"/>
<path d="M85.2,547.1v2.4H75v-2.4H85.2z"/>
<path d="M2.5,637.1v12.9H10v2.4H0v-15.3H2.5z"/>
<path d="M85.2,637.1v2.4h-7.7v10.6l-2.5,0v-12.9H85.2z"/>
<path d="M2.5,727.1v12.9H10v2.4H0v-15.3H2.5z"/>
<path d="M85.2,727.1v2.4h-7.7v10.6h8v2.4H75v-15.3H85.2z"/>
<path d="M2.5,817.1V830H10v2.4H0v-15.3H2.5z"/>
<path d="M85.2,817.1v2.4h-7.7v4.1h6.8v2.4h-6.8v4.2h8v2.4H75v-15.3H85.2z"/>
<path d="M2.5,907.1V920H10v2.4H0v-15.3H2.5z"/>
<path d="M85.2,907.1v2.4h-7.7v4.1h6.8v2.4h-6.8v4.2h8v2.4H75v-15.3H85.2z"/>
<path d="M152.6,907.1v2.4h-2.1v-2.4H152.6z"/>
<path d="M2.5,997.1v12.9H10v2.4H0v-15.3H2.5z"/>
<path d="M85.2,997.1v2.4h-7.7v4.1h6.8v2.4h-6.8v4.2h8v2.4H75v-15.3H85.2z"/>
<path d="M155.6,997.1v2.4h-5.1v-2.4H155.6z"/>
<path d="M2.5,1087.1v12.9H10v2.4H0v-15.3H2.5z"/>
<path d="M85.2,1087.1v2.4h-7.7v4.1h6.8v2.4h-6.8v4.2h8v2.4H75v-15.3H85.2z"/>
<path d="M160.7,1087.1v2.4h-10.2v-2.4H160.7z"/>
<path d="M2.5,1177.1v12.9H10v2.4H0v-15.3H2.5z"/>
<path d="M85.2,1177.1v2.4h-7.7v4.1h6.8v2.4h-6.8v4.2h8v2.4H75v-15.3H85.2z"/>
<path d="M160.7,1177.1v2.4h-3.9v6.9h-2.4v-6.9h-3.8v-2.4H160.7z"/>
<path d="M2.5,1267v12.9H10v2.4H0V1267H2.5z"/>
<path d="M85.2,1267v2.4h-7.7v4.1h6.8v2.4h-6.8v4.2h8v2.4H75V1267H85.2z"/>
<path d="M160.7,1267v2.4h-3.9v12.9h-2.4v-12.9h-3.8v-2.4H160.7z"/>
<path d="M2.5,1357v12.9H10v2.4H0V1357H2.5z"/>
<path d="M85.2,1357v2.4h-7.7v4.1h6.8v2.4h-6.8v4.2h8v2.4H75V1357H85.2z"/>
<path d="M160.7,1357v2.4h-3.9v12.9h-2.4v-12.9h-3.8v-2.4H160.7z"/>
<path d="M237.8,1357.3c-0.8-0.2-1.6-0.4-2.6-0.4c-0.1,0-0.2,0-0.3,0v2.2c0.2,0,0.4-0.1,0.6-0.1c1,0,2.2,0.4,3.5,1l0.9-1.9
	C239.3,1357.9,238.6,1357.5,237.8,1357.3z"/>
<path d="M2.5,1447v12.9H10v2.4H0V1447H2.5z"/>
<path d="M85.2,1447v2.4h-7.7v4.1h6.8v2.4h-6.8v4.2h8v2.4H75V1447H85.2z"/>
<path d="M160.7,1447v2.4h-3.9v12.9h-2.4v-12.9h-3.8v-2.4H160.7z"/>
<path d="M237.8,1447.3c-0.8-0.2-1.6-0.3-2.6-0.3c-1.4,0.1-2.5,0.5-3.4,1.2c-0.8,0.8-1.3,1.8-1.3,3c0,0.1,0,0.2,0,0.3h2.6
	c-0.1-0.2-0.1-0.3-0.1-0.5c0-0.6,0.2-1.1,0.7-1.4c0.4-0.3,1-0.5,1.8-0.5c1,0,2.2,0.3,3.5,1l0.9-1.9
	C239.3,1447.8,238.6,1447.5,237.8,1447.3z"/>
<path d="M2.5,1537v12.9H10v2.4H0V1537H2.5z"/>
<path d="M85.2,1537v2.4h-7.7v4.1h6.8v2.4h-6.8v4.2h8v2.4H75V1537H85.2z"/>
<path d="M160.7,1537v2.4h-3.9v12.9h-2.4v-12.9h-3.8v-2.4H160.7z"/>
<path d="M238.1,1544.5c-0.5-0.4-1.2-0.6-1.9-0.9c-1-0.4-1.8-0.8-2.3-1.1c-0.5-0.4-0.8-0.9-0.8-1.4c0-0.6,0.2-1.1,0.7-1.4
	c0.4-0.3,1-0.5,1.8-0.5c1,0,2.2,0.3,3.5,1l0.9-1.9c-0.7-0.4-1.4-0.8-2.1-1c-0.8-0.2-1.6-0.3-2.6-0.3c-1.4,0.1-2.5,0.5-3.4,1.2
	c-0.8,0.8-1.3,1.8-1.3,3c0,0.9,0.2,1.6,0.6,2.1c0.4,0.6,0.9,1,1.5,1.3c0.6,0.3,1.3,0.6,2.2,1c0.2,0.1,0.5,0.2,0.7,0.3h4
	C239.1,1545.3,238.7,1544.8,238.1,1544.5z"/>
<path d="M2.5,1627v12.9H10v2.4H0V1627H2.5z"/>
<path d="M85.2,1627v2.4h-7.7v4.1h6.8v2.4h-6.8v4.2h8v2.4H75V1627H85.2z"/>
<path d="M160.7,1627v2.4h-3.9v12.9h-2.4v-12.9h-3.8v-2.4H160.7z"/>
<path d="M239.5,1635.9c-0.3-0.6-0.8-1-1.3-1.4c-0.5-0.3-1.2-0.6-1.9-0.9c-1-0.4-1.8-0.8-2.3-1.1c-0.5-0.4-0.8-0.9-0.8-1.4
	c0-0.6,0.2-1.1,0.7-1.4c0.4-0.3,1-0.5,1.8-0.5c1,0,2.2,0.3,3.5,1l0.9-1.9c-0.7-0.4-1.4-0.8-2.1-1c-0.8-0.2-1.6-0.4-2.6-0.4
	c-1.4,0.1-2.5,0.5-3.4,1.2c-0.8,0.8-1.3,1.8-1.3,3c0,0.9,0.2,1.6,0.6,2.1c0.4,0.6,0.9,1,1.5,1.3c0.6,0.3,1.3,0.6,2.2,1
	c0.8,0.3,1.5,0.7,2,1.1c0.5,0.4,0.7,0.9,0.7,1.5c0,0.2,0,0.5-0.1,0.6h2.6c0-0.2,0-0.4,0-0.7C240,1637.2,239.8,1636.4,239.5,1635.9z"
	/>
<path d="M2.5,1717v12.9H10v2.4H0V1717H2.5z"/>
<path d="M85.2,1717v2.4h-7.7v4.1h6.8v2.4h-6.8v4.2h8v2.4H75V1717H85.2z"/>
<path d="M160.7,1717v2.4h-3.9v12.9h-2.4v-12.9h-3.8v-2.4H160.7z"/>
<path d="M239.5,1725.9c-0.3-0.6-0.8-1.1-1.3-1.4c-0.5-0.3-1.2-0.6-1.9-0.9c-1-0.4-1.8-0.8-2.3-1.1c-0.5-0.4-0.8-0.9-0.8-1.4
	c0-0.6,0.2-1.1,0.7-1.4c0.4-0.3,1-0.5,1.8-0.5c1,0,2.2,0.3,3.5,1l0.9-1.9c-0.7-0.4-1.4-0.8-2.1-1c-0.8-0.2-1.6-0.4-2.6-0.4
	c-1.4,0.1-2.5,0.5-3.4,1.2c-0.8,0.8-1.3,1.8-1.3,3c0,0.9,0.2,1.6,0.6,2.1c0.4,0.6,0.9,1,1.5,1.3c0.6,0.3,1.3,0.6,2.2,0.9
	c0.8,0.3,1.5,0.7,2,1.1c0.5,0.4,0.7,0.9,0.7,1.5c0,0.7-0.3,1.3-0.8,1.6c-0.6,0.4-1.2,0.5-2,0.5c-0.2,0-0.4,0-0.7-0.1v2.2
	c0.3,0,0.6,0,0.9,0c1,0,2-0.2,2.7-0.6c0.8-0.4,1.3-0.9,1.8-1.6c0.4-0.7,0.6-1.4,0.6-2.2C240,1727.2,239.8,1726.4,239.5,1725.9z"/>
<path d="M2.5,1807v12.9H10v2.4H0V1807H2.5z"/>
<path d="M85.2,1807v2.4h-7.7v4.1h6.8v2.4h-6.8v4.2h8v2.4H75V1807H85.2z"/>
<path d="M160.7,1807v2.4h-3.9v12.9h-2.4v-12.9h-3.8v-2.4H160.7z"/>
<path d="M235.5,1809.1c-0.8,0-1.4,0.2-1.8,0.5c-0.4,0.3-0.7,0.8-0.7,1.4c0,0.6,0.3,1.1,0.8,1.4s1.3,0.8,2.3,1.1
	c0.8,0.3,1.4,0.6,1.9,0.9c0.5,0.3,1,0.8,1.3,1.4c0.3,0.6,0.5,1.3,0.5,2.2c0,0.8-0.2,1.5-0.6,2.2c-0.4,0.7-1,1.2-1.8,1.6
	c-0.8,0.4-1.7,0.6-2.7,0.6c-0.9,0-1.8-0.1-2.7-0.4c-0.9-0.3-1.7-0.7-2.4-1.2l1.1-1.9c0.5,0.4,1.1,0.7,1.8,1c0.7,0.3,1.4,0.4,2,0.4
	c0.7,0,1.4-0.2,2-0.5c0.6-0.4,0.8-0.9,0.8-1.6c0-0.6-0.2-1.1-0.7-1.5s-1.1-0.7-2-1.1c-0.9-0.3-1.6-0.6-2.2-1
	c-0.6-0.3-1.1-0.8-1.5-1.3c-0.4-0.6-0.6-1.3-0.6-2.1c0-1.2,0.4-2.3,1.3-3c0.8-0.8,2-1.2,3.3-1.2c1,0,1.9,0.1,2.7,0.3
	c0.8,0.2,1.5,0.6,2.1,1l-0.9,1.9C237.7,1809.4,236.5,1809.1,235.5,1809.1z"/>
<path d="M2.5,1897v12.9H10v2.4H0V1897H2.5z"/>
<path d="M85.2,1897v2.4h-7.7v4.1h6.8v2.4h-6.8v4.2h8v2.4H75V1897H85.2z"/>
<path d="M160.7,1897v2.4h-3.9v12.9h-2.4v-12.9h-3.8v-2.4H160.7z"/>
<path d="M235.5,1899c-0.8,0-1.4,0.2-1.8,0.5c-0.4,0.3-0.7,0.8-0.7,1.4c0,0.6,0.3,1.1,0.8,1.4s1.3,0.8,2.3,1.1
	c0.8,0.3,1.4,0.6,1.9,0.9c0.5,0.3,1,0.8,1.3,1.4c0.3,0.6,0.5,1.3,0.5,2.2c0,0.8-0.2,1.5-0.6,2.2c-0.4,0.7-1,1.2-1.8,1.6
	c-0.8,0.4-1.7,0.6-2.7,0.6c-0.9,0-1.8-0.1-2.7-0.4c-0.9-0.3-1.7-0.7-2.4-1.2l1.1-1.9c0.5,0.4,1.1,0.7,1.8,1c0.7,0.3,1.4,0.4,2,0.4
	c0.7,0,1.4-0.2,2-0.5c0.6-0.4,0.8-0.9,0.8-1.6c0-0.6-0.2-1.1-0.7-1.5s-1.1-0.7-2-1.1c-0.9-0.3-1.6-0.6-2.2-1
	c-0.6-0.3-1.1-0.8-1.5-1.3c-0.4-0.6-0.6-1.3-0.6-2.1c0-1.2,0.4-2.3,1.3-3c0.8-0.8,2-1.2,3.3-1.2c1,0,1.9,0.1,2.7,0.3
	c0.8,0.2,1.5,0.6,2.1,1l-0.9,1.9C237.7,1899.4,236.5,1899,235.5,1899z"/>
<path d="M0,1957.4v2.3h2.5v-2.3H0z"/>
<path d="M2.5,1987v12.9H10v2.4H0V1987H2.5z"/>
<path d="M85.2,1987v2.4h-7.7v4.1h6.8v2.4h-6.8v4.2h8v2.4H75V1987H85.2z"/>
<path d="M160.7,1987v2.4h-3.9v12.9h-2.4v-12.9h-3.8v-2.4H160.7z"/>
<path d="M235.5,1989c-0.8,0-1.4,0.2-1.8,0.5c-0.4,0.3-0.7,0.8-0.7,1.4c0,0.6,0.3,1.1,0.8,1.4s1.3,0.8,2.3,1.1
	c0.8,0.3,1.4,0.6,1.9,0.9c0.5,0.3,1,0.8,1.3,1.4c0.3,0.6,0.5,1.3,0.5,2.2c0,0.8-0.2,1.5-0.6,2.2c-0.4,0.7-1,1.2-1.8,1.6
	c-0.8,0.4-1.7,0.6-2.7,0.6c-0.9,0-1.8-0.1-2.7-0.4c-0.9-0.3-1.7-0.7-2.4-1.2l1.1-1.9c0.5,0.4,1.1,0.7,1.8,1c0.7,0.3,1.4,0.4,2,0.4
	c0.7,0,1.4-0.2,2-0.5c0.6-0.4,0.8-0.9,0.8-1.6c0-0.6-0.2-1.1-0.7-1.5s-1.1-0.7-2-1.1c-0.9-0.3-1.6-0.6-2.2-1
	c-0.6-0.3-1.1-0.8-1.5-1.3c-0.4-0.6-0.6-1.3-0.6-2.1c0-1.2,0.4-2.3,1.3-3c0.8-0.8,2-1.2,3.3-1.2c1,0,1.9,0.1,2.7,0.3
	c0.8,0.2,1.5,0.6,2.1,1l-0.9,1.9C237.7,1989.4,236.5,1989,235.5,1989z"/>
<path d="M0,2047.4v2.4h3.8l1.3-2.4H0z"/>
<path d="M2.5,2076.9v12.9H10v2.4H0v-15.3H2.5z"/>
<path d="M85.2,2076.9v2.4h-7.7v4.1h6.8v2.4h-6.8v4.2h8v2.4H75v-15.3H85.2z"/>
<path d="M160.7,2076.9v2.4h-3.9v12.9h-2.4v-12.9h-3.8v-2.4H160.7z"/>
<path d="M235.5,2079c-0.8,0-1.4,0.2-1.8,0.5c-0.4,0.3-0.7,0.8-0.7,1.4c0,0.6,0.3,1.1,0.8,1.4s1.3,0.8,2.3,1.1
	c0.8,0.3,1.4,0.6,1.9,0.9c0.5,0.3,1,0.8,1.3,1.4c0.3,0.6,0.5,1.3,0.5,2.2c0,0.8-0.2,1.5-0.6,2.2c-0.4,0.7-1,1.2-1.8,1.6
	c-0.8,0.4-1.7,0.6-2.7,0.6c-0.9,0-1.8-0.1-2.7-0.4c-0.9-0.3-1.7-0.7-2.4-1.2l1.1-1.9c0.5,0.4,1.1,0.7,1.8,1c0.7,0.3,1.4,0.4,2,0.4
	c0.7,0,1.4-0.2,2-0.5c0.6-0.4,0.8-0.9,0.8-1.6c0-0.6-0.2-1.1-0.7-1.5s-1.1-0.7-2-1.1c-0.9-0.3-1.6-0.6-2.2-1
	c-0.6-0.3-1.1-0.8-1.5-1.3c-0.4-0.6-0.6-1.3-0.6-2.1c0-1.2,0.4-2.3,1.3-3c0.8-0.8,2-1.2,3.3-1.2c1,0,1.9,0.1,2.7,0.3
	c0.8,0.2,1.5,0.6,2.1,1l-0.9,1.9C237.7,2079.4,236.5,2079,235.5,2079z"/>
<path d="M10.2,2137.4l-0.2,2.4H3.8H0v-2.4H10.2z"/>
<path d="M2.5,2166.9v12.9H10v2.4H0v-15.3H2.5z"/>
<path d="M85.2,2166.9v2.4h-7.7v4.1h6.8v2.4h-6.8v4.2h8v2.4H75v-15.3H85.2z"/>
<path d="M160.7,2166.9v2.4h-3.9v12.9h-2.4v-12.9h-3.8v-2.4H160.7z"/>
<path d="M235.5,2169c-0.8,0-1.4,0.2-1.8,0.5c-0.4,0.3-0.7,0.8-0.7,1.4c0,0.6,0.3,1.1,0.8,1.4s1.3,0.8,2.3,1.1
	c0.8,0.3,1.4,0.6,1.9,0.9c0.5,0.3,1,0.8,1.3,1.4c0.3,0.6,0.5,1.3,0.5,2.2c0,0.8-0.2,1.5-0.6,2.2c-0.4,0.7-1,1.2-1.8,1.6
	c-0.8,0.4-1.7,0.6-2.7,0.6c-0.9,0-1.8-0.1-2.7-0.4c-0.9-0.3-1.7-0.7-2.4-1.2l1.1-1.9c0.5,0.4,1.1,0.7,1.8,1c0.7,0.3,1.4,0.4,2,0.4
	c0.7,0,1.4-0.2,2-0.5c0.6-0.4,0.8-0.9,0.8-1.6c0-0.6-0.2-1.1-0.7-1.5s-1.1-0.7-2-1.1c-0.9-0.3-1.6-0.6-2.2-1
	c-0.6-0.3-1.1-0.8-1.5-1.3c-0.4-0.6-0.6-1.3-0.6-2.1c0-1.2,0.4-2.3,1.3-3c0.8-0.8,2-1.2,3.3-1.2c1,0,1.9,0.1,2.7,0.3
	c0.8,0.2,1.5,0.6,2.1,1l-0.9,1.9C237.7,2169.4,236.5,2169,235.5,2169z"/>
<path d="M10.2,2227.4v2.4H6.3v2.9H3.8v-2.9H0v-2.4H10.2z"/>
<path d="M2.5,2256.9v12.9H10v2.4H0v-15.3H2.5z"/>
<path d="M85.2,2256.9v2.4h-7.7v4.1h6.8v2.4h-6.8v4.2h8v2.4H75v-15.3H85.2z"/>
<path d="M160.7,2256.9v2.4h-3.9v12.9h-2.4v-12.9h-3.8v-2.4H160.7z"/>
<path d="M235.5,2259c-0.8,0-1.4,0.2-1.8,0.5c-0.4,0.3-0.7,0.8-0.7,1.4c0,0.6,0.3,1.1,0.8,1.4s1.3,0.8,2.3,1.1
	c0.8,0.3,1.4,0.6,1.9,0.9c0.5,0.3,1,0.8,1.3,1.4c0.3,0.6,0.5,1.3,0.5,2.2c0,0.8-0.2,1.5-0.6,2.2c-0.4,0.7-1,1.2-1.8,1.6
	c-0.8,0.4-1.7,0.6-2.7,0.6c-0.9,0-1.8-0.1-2.7-0.4c-0.9-0.3-1.7-0.7-2.4-1.2l1.1-1.9c0.5,0.4,1.1,0.7,1.8,1c0.7,0.3,1.4,0.4,2,0.4
	c0.7,0,1.4-0.2,2-0.5c0.6-0.4,0.8-0.9,0.8-1.6c0-0.6-0.2-1.1-0.7-1.5s-1.1-0.7-2-1.1c-0.9-0.3-1.6-0.6-2.2-1
	c-0.6-0.3-1.1-0.8-1.5-1.3c-0.4-0.6-0.6-1.3-0.6-2.1c0-1.2,0.4-2.3,1.3-3c0.8-0.8,2-1.2,3.3-1.2c1,0,1.9,0.1,2.7,0.3
	c0.8,0.2,1.5,0.6,2.1,1l-0.9,1.9C237.7,2259.3,236.5,2259,235.5,2259z"/>
<path d="M10.2,2317.3v2.4H6.3v8.9H3.8v-8.9H0v-2.4H10.2z"/>
<path d="M2.5,2346.9v12.9H10v2.4H0v-15.3H2.5z"/>
<path d="M85.2,2346.9v2.4h-7.7v4.1h6.8v2.4h-6.8v4.2h8v2.4H75v-15.3H85.2z"/>
<path d="M160.7,2346.9v2.4h-3.9v12.9h-2.4v-12.9h-3.8v-2.4H160.7z"/>
<path d="M235.5,2349c-0.8,0-1.4,0.2-1.8,0.5c-0.4,0.3-0.7,0.8-0.7,1.4c0,0.6,0.3,1.1,0.8,1.4s1.3,0.8,2.3,1.1
	c0.8,0.3,1.4,0.6,1.9,0.9c0.5,0.3,1,0.8,1.3,1.4c0.3,0.6,0.5,1.3,0.5,2.2c0,0.8-0.2,1.5-0.6,2.2c-0.4,0.7-1,1.2-1.8,1.6
	c-0.8,0.4-1.7,0.6-2.7,0.6c-0.9,0-1.8-0.1-2.7-0.4c-0.9-0.3-1.7-0.7-2.4-1.2l1.1-1.9c0.5,0.4,1.1,0.7,1.8,1c0.7,0.3,1.4,0.4,2,0.4
	c0.7,0,1.4-0.2,2-0.5c0.6-0.4,0.8-0.9,0.8-1.6c0-0.6-0.2-1.1-0.7-1.5s-1.1-0.7-2-1.1c-0.9-0.3-1.6-0.6-2.2-1
	c-0.6-0.3-1.1-0.8-1.5-1.3c-0.4-0.6-0.6-1.3-0.6-2.1c0-1.2,0.4-2.3,1.3-3c0.8-0.8,2-1.2,3.3-1.2c1,0,1.9,0.1,2.7,0.3
	c0.8,0.2,1.5,0.6,2.1,1l-0.9,1.9C237.7,2349.3,236.5,2349,235.5,2349z"/>
<path d="M10.2,2407.3v2.4H6.3v12.9H3.8v-12.9H0v-2.4H10.2z"/>
<path d="M2.5,2436.9v12.9H10v2.4H0v-15.3H2.5z"/>
<path d="M85.2,2436.9v2.4h-7.7v4.1h6.8v2.4h-6.8v4.2h8v2.4H75v-15.3H85.2z"/>
<path d="M160.7,2436.9v2.4h-3.9v12.9h-2.4v-12.9h-3.8v-2.4H160.7z"/>
<path d="M235.5,2439c-0.8,0-1.4,0.2-1.8,0.5c-0.4,0.3-0.7,0.8-0.7,1.4c0,0.6,0.3,1.1,0.8,1.4s1.3,0.8,2.3,1.1
	c0.8,0.3,1.4,0.6,1.9,0.9c0.5,0.3,1,0.8,1.3,1.4c0.3,0.6,0.5,1.3,0.5,2.2c0,0.8-0.2,1.5-0.6,2.2c-0.4,0.7-1,1.2-1.8,1.6
	c-0.8,0.4-1.7,0.6-2.7,0.6c-0.9,0-1.8-0.1-2.7-0.4c-0.9-0.3-1.7-0.7-2.4-1.2l1.1-1.9c0.5,0.4,1.1,0.7,1.8,1c0.7,0.3,1.4,0.4,2,0.4
	c0.7,0,1.4-0.2,2-0.5c0.6-0.4,0.8-0.9,0.8-1.6c0-0.6-0.2-1.1-0.7-1.5s-1.1-0.7-2-1.1c-0.9-0.3-1.6-0.6-2.2-1
	c-0.6-0.3-1.1-0.8-1.5-1.3c-0.4-0.6-0.6-1.3-0.6-2.1c0-1.2,0.4-2.3,1.3-3c0.8-0.8,2-1.2,3.3-1.2c1,0,1.9,0.1,2.7,0.3
	c0.8,0.2,1.5,0.6,2.1,1l-0.9,1.9C237.7,2439.3,236.5,2439,235.5,2439z"/>
<path d="M10.2,2497.3v2.4H6.3v12.9H3.8v-12.9H0v-2.4H10.2z"/>
<path d="M81.7,2496.7l-1.3,3.1h2l1.2-3.1H81.7z"/>
<path d="M2.5,2526.9v12.9H10v2.4H0v-15.3H2.5z"/>
<path d="M85.2,2526.9v2.4h-7.7v4.1h6.8v2.4h-6.8v4.2h8v2.4H75v-15.3H85.2z"/>
<path d="M160.7,2526.9v2.4h-3.9v12.9h-2.4v-12.9h-3.8v-2.4H160.7z"/>
<path d="M235.5,2529c-0.8,0-1.4,0.2-1.8,0.5c-0.4,0.3-0.7,0.8-0.7,1.4c0,0.6,0.3,1.1,0.8,1.4s1.3,0.8,2.3,1.1
	c0.8,0.3,1.4,0.6,1.9,0.9c0.5,0.3,1,0.8,1.3,1.4c0.3,0.6,0.5,1.3,0.5,2.2c0,0.8-0.2,1.5-0.6,2.2c-0.4,0.7-1,1.2-1.8,1.6
	c-0.8,0.4-1.7,0.6-2.7,0.6c-0.9,0-1.8-0.1-2.7-0.4c-0.9-0.3-1.7-0.7-2.4-1.2l1.1-1.9c0.5,0.4,1.1,0.7,1.8,1c0.7,0.3,1.4,0.4,2,0.4
	c0.7,0,1.4-0.2,2-0.5c0.6-0.4,0.8-0.9,0.8-1.6c0-0.6-0.2-1.1-0.7-1.5s-1.1-0.7-2-1.1c-0.9-0.3-1.6-0.6-2.2-1
	c-0.6-0.3-1.1-0.8-1.5-1.3c-0.4-0.6-0.6-1.3-0.6-2.1c0-1.2,0.4-2.3,1.3-3c0.8-0.8,2-1.2,3.3-1.2c1,0,1.9,0.1,2.7,0.3
	c0.8,0.2,1.5,0.6,2.1,1l-0.9,1.9C237.7,2529.3,236.5,2529,235.5,2529z"/>
<path d="M10.2,2587.3v2.4H6.3v12.9H3.8v-12.9H0v-2.4H10.2z"/>
<path d="M81.9,2586.7h-0.2l-4.6,10.8h2.4l3.4-8.3L81.9,2586.7z"/>
<path d="M2.5,2616.9v12.9H10v2.4H0v-15.3H2.5z"/>
<path d="M85.2,2616.9v2.4h-7.7v4.1h6.8v2.4h-6.8v4.2h8v2.4H75v-15.3H85.2z"/>
<path d="M160.7,2616.9v2.4h-3.9v12.9h-2.4v-12.9h-3.8v-2.4H160.7z"/>
<path d="M235.5,2618.9c-0.8,0-1.4,0.2-1.8,0.5c-0.4,0.3-0.7,0.8-0.7,1.4c0,0.6,0.3,1.1,0.8,1.4s1.3,0.8,2.3,1.1
	c0.8,0.3,1.4,0.6,1.9,0.9c0.5,0.3,1,0.8,1.3,1.4c0.3,0.6,0.5,1.3,0.5,2.2c0,0.8-0.2,1.5-0.6,2.2c-0.4,0.7-1,1.2-1.8,1.6
	c-0.8,0.4-1.7,0.6-2.7,0.6c-0.9,0-1.8-0.1-2.7-0.4c-0.9-0.3-1.7-0.7-2.4-1.2l1.1-1.9c0.5,0.4,1.1,0.7,1.8,1c0.7,0.3,1.4,0.4,2,0.4
	c0.7,0,1.4-0.2,2-0.5c0.6-0.4,0.8-0.9,0.8-1.6c0-0.6-0.2-1.1-0.7-1.5s-1.1-0.7-2-1.1c-0.9-0.3-1.6-0.6-2.2-1
	c-0.6-0.3-1.1-0.8-1.5-1.3c-0.4-0.6-0.6-1.3-0.6-2.1c0-1.2,0.4-2.3,1.3-3c0.8-0.8,2-1.2,3.3-1.2c1,0,1.9,0.1,2.7,0.3
	c0.8,0.2,1.5,0.6,2.1,1l-0.9,1.9C237.7,2619.3,236.5,2618.9,235.5,2618.9z"/>
<path d="M10.2,2677.3v2.4H6.3v12.9H3.8v-12.9H0v-2.4H10.2z"/>
<path d="M81.9,2676.7h-0.2l-6.8,15.9h2.3l5.5-13.7L81.9,2676.7z"/>
<path d="M2.5,2706.9v12.9H10v2.4H0v-15.3H2.5z"/>
<path d="M85.2,2706.9v2.4h-7.7v4.1h6.8v2.4h-6.8v4.2h8v2.4H75v-15.3H85.2z"/>
<path d="M160.7,2706.9v2.4h-3.9v12.9h-2.4v-12.9h-3.8v-2.4H160.7z"/>
<path d="M235.5,2708.9c-0.8,0-1.4,0.2-1.8,0.5c-0.4,0.3-0.7,0.8-0.7,1.4c0,0.6,0.3,1.1,0.8,1.4s1.3,0.8,2.3,1.1
	c0.8,0.3,1.4,0.6,1.9,0.9c0.5,0.3,1,0.8,1.3,1.4c0.3,0.6,0.5,1.3,0.5,2.2c0,0.8-0.2,1.5-0.6,2.2c-0.4,0.7-1,1.2-1.8,1.6
	c-0.8,0.4-1.7,0.6-2.7,0.6c-0.9,0-1.8-0.1-2.7-0.4c-0.9-0.3-1.7-0.7-2.4-1.2l1.1-1.9c0.5,0.4,1.1,0.7,1.8,1c0.7,0.3,1.4,0.4,2,0.4
	c0.7,0,1.4-0.2,2-0.5c0.6-0.4,0.8-0.9,0.8-1.6c0-0.6-0.2-1.1-0.7-1.5s-1.1-0.7-2-1.1c-0.9-0.3-1.6-0.6-2.2-1
	c-0.6-0.3-1.1-0.8-1.5-1.3c-0.4-0.6-0.6-1.3-0.6-2.1c0-1.2,0.4-2.3,1.3-3c0.8-0.8,2-1.2,3.3-1.2c1,0,1.9,0.1,2.7,0.3
	c0.8,0.2,1.5,0.6,2.1,1l-0.9,1.9C237.7,2709.3,236.5,2708.9,235.5,2708.9z"/>
<path d="M10.2,2767.3v2.4H6.3v12.9H3.8v-12.9H0v-2.4H10.2z"/>
<path d="M81.9,2766.7h-0.2l-6.8,15.9h2.4l4.3-10.5l0.7,1.9l1.7-1.9L81.9,2766.7z"/>
<path d="M2.5,2796.8v12.9H10v2.4H0v-15.3H2.5z"/>
<path d="M85.2,2796.8v2.4h-7.7v4.1h6.8v2.4h-6.8v4.2h8v2.4H75v-15.3H85.2z"/>
<path d="M160.7,2796.8v2.4h-3.9v12.9h-2.4v-12.9h-3.8v-2.4H160.7z"/>
<path d="M235.5,2798.9c-0.8,0-1.4,0.2-1.8,0.5c-0.4,0.3-0.7,0.8-0.7,1.4c0,0.6,0.3,1.1,0.8,1.4s1.3,0.8,2.3,1.1
	c0.8,0.3,1.4,0.6,1.9,0.9c0.5,0.3,1,0.8,1.3,1.4c0.3,0.6,0.5,1.3,0.5,2.2c0,0.8-0.2,1.5-0.6,2.2c-0.4,0.7-1,1.2-1.8,1.6
	c-0.8,0.4-1.7,0.6-2.7,0.6c-0.9,0-1.8-0.1-2.7-0.4c-0.9-0.3-1.7-0.7-2.4-1.2l1.1-1.9c0.5,0.4,1.1,0.7,1.8,1c0.7,0.3,1.4,0.4,2,0.4
	c0.7,0,1.4-0.2,2-0.5c0.6-0.4,0.8-0.9,0.8-1.6c0-0.6-0.2-1.1-0.7-1.5s-1.1-0.7-2-1.1c-0.9-0.3-1.6-0.6-2.2-1
	c-0.6-0.3-1.1-0.8-1.5-1.3c-0.4-0.6-0.6-1.3-0.6-2.1c0-1.2,0.4-2.3,1.3-3c0.8-0.8,2-1.2,3.3-1.2c1,0,1.9,0.1,2.7,0.3
	c0.8,0.2,1.5,0.6,2.1,1l-0.9,1.9C237.7,2799.3,236.5,2798.9,235.5,2798.9z"/>
<path d="M10.2,2857.3v2.4H6.3v12.9H3.8v-12.9H0v-2.4H10.2z"/>
<path d="M81.9,2856.6h-0.2l-6.8,15.9h2.4l4.3-10.5l2.9,7.3l2.6-0.2L81.9,2856.6z"/>
<path d="M2.5,2886.8v12.9H10v2.4H0v-15.3H2.5z"/>
<path d="M85.2,2886.8v2.4h-7.7v4.1h6.8v2.4h-6.8v4.2h8v2.4H75v-15.3H85.2z"/>
<path d="M160.7,2886.8v2.4h-3.9v12.9h-2.4v-12.9h-3.8v-2.4H160.7z"/>
<path d="M235.5,2888.9c-0.8,0-1.4,0.2-1.8,0.5c-0.4,0.3-0.7,0.8-0.7,1.4c0,0.6,0.3,1.1,0.8,1.4s1.3,0.8,2.3,1.1
	c0.8,0.3,1.4,0.6,1.9,0.9c0.5,0.3,1,0.8,1.3,1.4c0.3,0.6,0.5,1.3,0.5,2.2c0,0.8-0.2,1.5-0.6,2.2c-0.4,0.7-1,1.2-1.8,1.6
	c-0.8,0.4-1.7,0.6-2.7,0.6c-0.9,0-1.8-0.1-2.7-0.4c-0.9-0.3-1.7-0.7-2.4-1.2l1.1-1.9c0.5,0.4,1.1,0.7,1.8,1c0.7,0.3,1.4,0.4,2,0.4
	c0.7,0,1.4-0.2,2-0.5c0.6-0.4,0.8-0.9,0.8-1.6c0-0.6-0.2-1.1-0.7-1.5s-1.1-0.7-2-1.1c-0.9-0.3-1.6-0.6-2.2-1
	c-0.6-0.3-1.1-0.8-1.5-1.3c-0.4-0.6-0.6-1.3-0.6-2.1c0-1.2,0.4-2.3,1.3-3c0.8-0.8,2-1.2,3.3-1.2c1,0,1.9,0.1,2.7,0.3
	c0.8,0.2,1.5,0.6,2.1,1l-0.9,1.9C237.7,2889.3,236.5,2888.9,235.5,2888.9z"/>
<path d="M10.2,2947.3v2.4H6.3v12.9H3.8v-12.9H0v-2.4H10.2z"/>
<path d="M81.9,2946.6h-0.2l-6.8,15.9h2.4l4.3-10.5l4.1,10.5h2.8L81.9,2946.6z"/>
<path d="M2.5,2976.8v12.9H10v2.4H0v-15.3H2.5z"/>
<path d="M85.2,2976.8v2.4h-7.7v4.1h6.8v2.4h-6.8v4.2h8v2.4H75v-15.3H85.2z"/>
<path d="M160.7,2976.8v2.4h-3.9v12.9h-2.4v-12.9h-3.8v-2.4H160.7z"/>
<path d="M235.5,2978.9c-0.8,0-1.4,0.2-1.8,0.5c-0.4,0.3-0.7,0.8-0.7,1.4c0,0.6,0.3,1.1,0.8,1.4s1.3,0.8,2.3,1.1
	c0.8,0.3,1.4,0.6,1.9,0.9c0.5,0.3,1,0.8,1.3,1.4c0.3,0.6,0.5,1.3,0.5,2.2c0,0.8-0.2,1.5-0.6,2.2c-0.4,0.7-1,1.2-1.8,1.6
	c-0.8,0.4-1.7,0.6-2.7,0.6c-0.9,0-1.8-0.1-2.7-0.4c-0.9-0.3-1.7-0.7-2.4-1.2l1.1-1.9c0.5,0.4,1.1,0.7,1.8,1c0.7,0.3,1.4,0.4,2,0.4
	c0.7,0,1.4-0.2,2-0.5c0.6-0.4,0.8-0.9,0.8-1.6c0-0.6-0.2-1.1-0.7-1.5s-1.1-0.7-2-1.1c-0.9-0.3-1.6-0.6-2.2-1
	c-0.6-0.3-1.1-0.8-1.5-1.3c-0.4-0.6-0.6-1.3-0.6-2.1c0-1.2,0.4-2.3,1.3-3c0.8-0.8,2-1.2,3.3-1.2c1,0,1.9,0.1,2.7,0.3
	c0.8,0.2,1.5,0.6,2.1,1l-0.9,1.9C237.7,2979.2,236.5,2978.9,235.5,2978.9z"/>
<path d="M10.2,3037.3v2.4H6.3v12.9H3.8v-12.9H0v-2.4H10.2z"/>
<path d="M84.4,3048.9h-5.6l-1.5,3.6H75l6.8-15.9h0.1l6.8,15.9h-2.8L84.4,3048.9z M83.6,3046.8l-1.9-4.8l-2,4.8H83.6z"/>
<path d="M2.5,3066.8v12.9H10v2.4H0v-15.3H2.5z"/>
<path d="M85.2,3066.8v2.4h-7.7v4.1h6.8v2.4h-6.8v4.2h8v2.4H75v-15.3H85.2z"/>
<path d="M160.7,3066.8v2.4h-3.9v12.9h-2.4v-12.9h-3.8v-2.4H160.7z"/>
<path d="M235.5,3068.9c-0.8,0-1.4,0.2-1.8,0.5c-0.4,0.3-0.7,0.8-0.7,1.4c0,0.6,0.3,1.1,0.8,1.4s1.3,0.8,2.3,1.1
	c0.8,0.3,1.4,0.6,1.9,0.9c0.5,0.3,1,0.8,1.3,1.4c0.3,0.6,0.5,1.3,0.5,2.2c0,0.8-0.2,1.5-0.6,2.2c-0.4,0.7-1,1.2-1.8,1.6
	c-0.8,0.4-1.7,0.6-2.7,0.6c-0.9,0-1.8-0.1-2.7-0.4c-0.9-0.3-1.7-0.7-2.4-1.2l1.1-1.9c0.5,0.4,1.1,0.7,1.8,1c0.7,0.3,1.4,0.4,2,0.4
	c0.7,0,1.4-0.2,2-0.5c0.6-0.4,0.8-0.9,0.8-1.6c0-0.6-0.2-1.1-0.7-1.5s-1.1-0.7-2-1.1c-0.9-0.3-1.6-0.6-2.2-1
	c-0.6-0.3-1.1-0.8-1.5-1.3c-0.4-0.6-0.6-1.3-0.6-2.1c0-1.2,0.4-2.3,1.3-3c0.8-0.8,2-1.2,3.3-1.2c1,0,1.9,0.1,2.7,0.3
	c0.8,0.2,1.5,0.6,2.1,1l-0.9,1.9C237.7,3069.2,236.5,3068.9,235.5,3068.9z"/>
<path d="M10.2,3127.2v2.4H6.3v12.9H3.8v-12.9H0v-2.4H10.2z"/>
<path d="M84.4,3138.9h-5.6l-1.5,3.6H75l6.8-15.9h0.1l6.8,15.9h-2.8L84.4,3138.9z M83.6,3136.8l-1.9-4.8l-2,4.8H83.6z"/>
<path d="M153.4,3127.2v4.1h2.5v-4.1H153.4z"/>
<path d="M2.5,3156.8v12.9H10v2.4H0v-15.3H2.5z"/>
<path d="M85.2,3156.8v2.4h-7.7v4.1h6.8v2.4h-6.8v4.2h8v2.4H75v-15.3H85.2z"/>
<path d="M160.7,3156.8v2.4h-3.9v12.9h-2.4v-12.9h-3.8v-2.4H160.7z"/>
<path d="M235.5,3158.9c-0.8,0-1.4,0.2-1.8,0.5c-0.4,0.3-0.7,0.8-0.7,1.4c0,0.6,0.3,1.1,0.8,1.4s1.3,0.8,2.3,1.1
	c0.8,0.3,1.4,0.6,1.9,0.9c0.5,0.3,1,0.8,1.3,1.4c0.3,0.6,0.5,1.3,0.5,2.2c0,0.8-0.2,1.5-0.6,2.2c-0.4,0.7-1,1.2-1.8,1.6
	c-0.8,0.4-1.7,0.6-2.7,0.6c-0.9,0-1.8-0.1-2.7-0.4c-0.9-0.3-1.7-0.7-2.4-1.2l1.1-1.9c0.5,0.4,1.1,0.7,1.8,1c0.7,0.3,1.4,0.4,2,0.4
	c0.7,0,1.4-0.2,2-0.5c0.6-0.4,0.8-0.9,0.8-1.6c0-0.6-0.2-1.1-0.7-1.5s-1.1-0.7-2-1.1c-0.9-0.3-1.6-0.6-2.2-1
	c-0.6-0.3-1.1-0.8-1.5-1.3c-0.4-0.6-0.6-1.3-0.6-2.1c0-1.2,0.4-2.3,1.3-3c0.8-0.8,2-1.2,3.3-1.2c1,0,1.9,0.1,2.7,0.3
	c0.8,0.2,1.5,0.6,2.1,1l-0.9,1.9C237.7,3159.2,236.5,3158.9,235.5,3158.9z"/>
<path d="M10.2,3217.2v2.4H6.3v12.9H3.8v-12.9H0v-2.4H10.2z"/>
<path d="M84.4,3228.9h-5.6l-1.5,3.6H75l6.8-15.9h0.1l6.8,15.9h-2.8L84.4,3228.9z M83.6,3226.8l-1.9-4.8l-2,4.8H83.6z"/>
<path d="M153.4,3217.2v7.6h2.5v-7.6H153.4z"/>
<path d="M2.5,3246.8v12.9H10v2.4H0v-15.3H2.5z"/>
<path d="M85.2,3246.8v2.4h-7.7v4.1h6.8v2.4h-6.8v4.2h8v2.4H75v-15.3H85.2z"/>
<path d="M160.7,3246.8v2.4h-3.9v12.9h-2.4v-12.9h-3.8v-2.4H160.7z"/>
<path d="M235.5,3248.9c-0.8,0-1.4,0.2-1.8,0.5c-0.4,0.3-0.7,0.8-0.7,1.4c0,0.6,0.3,1.1,0.8,1.4s1.3,0.8,2.3,1.1
	c0.8,0.3,1.4,0.6,1.9,0.9c0.5,0.3,1,0.8,1.3,1.4c0.3,0.6,0.5,1.3,0.5,2.2c0,0.8-0.2,1.5-0.6,2.2c-0.4,0.7-1,1.2-1.8,1.6
	c-0.8,0.4-1.7,0.6-2.7,0.6c-0.9,0-1.8-0.1-2.7-0.4c-0.9-0.3-1.7-0.7-2.4-1.2l1.1-1.9c0.5,0.4,1.1,0.7,1.8,1c0.7,0.3,1.4,0.4,2,0.4
	c0.7,0,1.4-0.2,2-0.5c0.6-0.4,0.8-0.9,0.8-1.6c0-0.6-0.2-1.1-0.7-1.5s-1.1-0.7-2-1.1c-0.9-0.3-1.6-0.6-2.2-1
	c-0.6-0.3-1.1-0.8-1.5-1.3c-0.4-0.6-0.6-1.3-0.6-2.1c0-1.2,0.4-2.3,1.3-3c0.8-0.8,2-1.2,3.3-1.2c1,0,1.9,0.1,2.7,0.3
	c0.8,0.2,1.5,0.6,2.1,1l-0.9,1.9C237.7,3249.2,236.5,3248.9,235.5,3248.9z"/>
<path d="M10.2,3307.2v2.4H6.3v12.9H3.8v-12.9H0v-2.4H10.2z"/>
<path d="M84.4,3318.9h-5.6l-1.5,3.6H75l6.8-15.9h0.1l6.8,15.9h-2.8L84.4,3318.9z M83.6,3316.8l-1.9-4.8l-2,4.8H83.6z"/>
<path d="M155.8,3307.2v12.9h0.5v2.4h-2.9v-15.3H155.8z"/>
<path d="M2.5,3336.8v12.9H10v2.4H0v-15.3H2.5z"/>
<path d="M85.2,3336.8v2.4h-7.7v4.1h6.8v2.4h-6.8v4.2h8v2.4H75v-15.3H85.2z"/>
<path d="M160.7,3336.8v2.4h-3.9v12.9h-2.4v-12.9h-3.8v-2.4H160.7z"/>
<path d="M235.5,3338.9c-0.8,0-1.4,0.2-1.8,0.5c-0.4,0.3-0.7,0.8-0.7,1.4c0,0.6,0.3,1.1,0.8,1.4s1.3,0.8,2.3,1.1
	c0.8,0.3,1.4,0.6,1.9,0.9c0.5,0.3,1,0.8,1.3,1.4c0.3,0.6,0.5,1.3,0.5,2.2c0,0.8-0.2,1.5-0.6,2.2c-0.4,0.7-1,1.2-1.8,1.6
	c-0.8,0.4-1.7,0.6-2.7,0.6c-0.9,0-1.8-0.1-2.7-0.4c-0.9-0.3-1.7-0.7-2.4-1.2l1.1-1.9c0.5,0.4,1.1,0.7,1.8,1c0.7,0.3,1.4,0.4,2,0.4
	c0.7,0,1.4-0.2,2-0.5c0.6-0.4,0.8-0.9,0.8-1.6c0-0.6-0.2-1.1-0.7-1.5s-1.1-0.7-2-1.1c-0.9-0.3-1.6-0.6-2.2-1
	c-0.6-0.3-1.1-0.8-1.5-1.3c-0.4-0.6-0.6-1.3-0.6-2.1c0-1.2,0.4-2.3,1.3-3c0.8-0.8,2-1.2,3.3-1.2c1,0,1.9,0.1,2.7,0.3
	c0.8,0.2,1.5,0.6,2.1,1l-0.9,1.9C237.7,3339.2,236.5,3338.9,235.5,3338.9z"/>
<path d="M10.2,3397.2v2.4H6.3v12.9H3.8v-12.9H0v-2.4H10.2z"/>
<path d="M84.4,3408.9h-5.6l-1.5,3.6H75l6.8-15.9h0.1l6.8,15.9h-2.8L84.4,3408.9z M83.6,3406.8l-1.9-4.8l-2,4.8H83.6z"/>
<path d="M155.8,3397.2v12.9h3.5v2.4h-6v-15.3H155.8z"/>
<path d="M2.5,3426.8v12.9H10v2.4H0v-15.3H2.5z"/>
<path d="M85.2,3426.8v2.4h-7.7v4.1h6.8v2.4h-6.8v4.2h8v2.4H75v-15.3H85.2z"/>
<path d="M160.7,3426.8v2.4h-3.9v12.9h-2.4v-12.9h-3.8v-2.4H160.7z"/>
<path d="M235.5,3428.8c-0.8,0-1.4,0.2-1.8,0.5c-0.4,0.3-0.7,0.8-0.7,1.4c0,0.6,0.3,1.1,0.8,1.4s1.3,0.8,2.3,1.1
	c0.8,0.3,1.4,0.6,1.9,0.9c0.5,0.3,1,0.8,1.3,1.4c0.3,0.6,0.5,1.3,0.5,2.2c0,0.8-0.2,1.5-0.6,2.2c-0.4,0.7-1,1.2-1.8,1.6
	c-0.8,0.4-1.7,0.6-2.7,0.6c-0.9,0-1.8-0.1-2.7-0.4c-0.9-0.3-1.7-0.7-2.4-1.2l1.1-1.9c0.5,0.4,1.1,0.7,1.8,1c0.7,0.3,1.4,0.4,2,0.4
	c0.7,0,1.4-0.2,2-0.5c0.6-0.4,0.8-0.9,0.8-1.6c0-0.6-0.2-1.1-0.7-1.5s-1.1-0.7-2-1.1c-0.9-0.3-1.6-0.6-2.2-1
	c-0.6-0.3-1.1-0.8-1.5-1.3c-0.4-0.6-0.6-1.3-0.6-2.1c0-1.2,0.4-2.3,1.3-3c0.8-0.8,2-1.2,3.3-1.2c1,0,1.9,0.1,2.7,0.3
	c0.8,0.2,1.5,0.6,2.1,1l-0.9,1.9C237.7,3429.2,236.5,3428.8,235.5,3428.8z"/>
<path d="M10.2,3487.2v2.4H6.3v12.9H3.8v-12.9H0v-2.4H10.2z"/>
<path d="M84.4,3498.9h-5.6l-1.5,3.6H75l6.8-15.9h0.1l6.8,15.9h-2.8L84.4,3498.9z M83.6,3496.8l-1.9-4.8l-2,4.8H83.6z"/>
<path d="M155.8,3487.2v12.9h5.5v2.4h-8v-15.3H155.8z"/>
<path d="M2.5,3516.8v12.9H10v2.4H0v-15.3H2.5z"/>
<path d="M85.2,3516.8v2.4h-7.7v4.1h6.8v2.4h-6.8v4.2h8v2.4H75v-15.3H85.2z"/>
<path d="M160.7,3516.8v2.4h-3.9v12.9h-2.4v-12.9h-3.8v-2.4H160.7z"/>
<path d="M235.5,3518.8c-0.8,0-1.4,0.2-1.8,0.5c-0.4,0.3-0.7,0.8-0.7,1.4c0,0.6,0.3,1.1,0.8,1.4s1.3,0.8,2.3,1.1
	c0.8,0.3,1.4,0.6,1.9,0.9c0.5,0.3,1,0.8,1.3,1.4c0.3,0.6,0.5,1.3,0.5,2.2c0,0.8-0.2,1.5-0.6,2.2c-0.4,0.7-1,1.2-1.8,1.6
	c-0.8,0.4-1.7,0.6-2.7,0.6c-0.9,0-1.8-0.1-2.7-0.4c-0.9-0.3-1.7-0.7-2.4-1.2l1.1-1.9c0.5,0.4,1.1,0.7,1.8,1c0.7,0.3,1.4,0.4,2,0.4
	c0.7,0,1.4-0.2,2-0.5c0.6-0.4,0.8-0.9,0.8-1.6c0-0.6-0.2-1.1-0.7-1.5s-1.1-0.7-2-1.1c-0.9-0.3-1.6-0.6-2.2-1
	c-0.6-0.3-1.1-0.8-1.5-1.3c-0.4-0.6-0.6-1.3-0.6-2.1c0-1.2,0.4-2.3,1.3-3c0.8-0.8,2-1.2,3.3-1.2c1,0,1.9,0.1,2.7,0.3
	c0.8,0.2,1.5,0.6,2.1,1l-0.9,1.9C237.7,3519.2,236.5,3518.8,235.5,3518.8z"/>
<path d="M10.2,3577.2v2.4H6.3v12.9H3.8v-12.9H0v-2.4H10.2z"/>
<path d="M84.4,3588.9h-5.6l-1.5,3.6H75l6.8-15.9h0.1l6.8,15.9h-2.8L84.4,3588.9z M83.6,3586.8l-1.9-4.8l-2,4.8H83.6z"/>
<path d="M155.8,3577.2v12.9h7.5v2.4h-10v-15.3H155.8z"/>
<path d="M2.5,3606.7v12.9H10v2.4H0v-15.3H2.5z"/>
<path d="M85.2,3606.7v2.4h-7.7v4.1h6.8v2.4h-6.8v4.2h8v2.4H75v-15.3H85.2z"/>
<path d="M160.7,3606.7v2.4h-3.9v12.9h-2.4v-12.9h-3.8v-2.4H160.7z"/>
<path d="M235.5,3608.8c-0.8,0-1.4,0.2-1.8,0.5c-0.4,0.3-0.7,0.8-0.7,1.4c0,0.6,0.3,1.1,0.8,1.4s1.3,0.8,2.3,1.1
	c0.8,0.3,1.4,0.6,1.9,0.9c0.5,0.3,1,0.8,1.3,1.4c0.3,0.6,0.5,1.3,0.5,2.2c0,0.8-0.2,1.5-0.6,2.2c-0.4,0.7-1,1.2-1.8,1.6
	c-0.8,0.4-1.7,0.6-2.7,0.6c-0.9,0-1.8-0.1-2.7-0.4c-0.9-0.3-1.7-0.7-2.4-1.2l1.1-1.9c0.5,0.4,1.1,0.7,1.8,1c0.7,0.3,1.4,0.4,2,0.4
	c0.7,0,1.4-0.2,2-0.5c0.6-0.4,0.8-0.9,0.8-1.6c0-0.6-0.2-1.1-0.7-1.5s-1.1-0.7-2-1.1c-0.9-0.3-1.6-0.6-2.2-1
	c-0.6-0.3-1.1-0.8-1.5-1.3c-0.4-0.6-0.6-1.3-0.6-2.1c0-1.2,0.4-2.3,1.3-3c0.8-0.8,2-1.2,3.3-1.2c1,0,1.9,0.1,2.7,0.3
	c0.8,0.2,1.5,0.6,2.1,1l-0.9,1.9C237.7,3609.2,236.5,3608.8,235.5,3608.8z"/>
<path d="M10.2,3667.2v2.4H6.3v12.9H3.8v-12.9H0v-2.4H10.2z"/>
<path d="M84.4,3678.9h-5.6l-1.5,3.6H75l6.8-15.9h0.1l6.8,15.9h-2.8L84.4,3678.9z M83.6,3676.8l-1.9-4.8l-2,4.8H83.6z"/>
<path d="M155.8,3667.2v12.9h7.5v2.4h-10v-15.3H155.8z"/>
<path d="M228.1,3667.2v2.5h2.4v-2.5H228.1z"/>
<path d="M2.5,3696.7v12.9H10v2.4H0v-15.3H2.5z"/>
<path d="M85.2,3696.7v2.4h-7.7v4.1h6.8v2.4h-6.8v4.2h8v2.4H75v-15.3H85.2z"/>
<path d="M160.7,3696.7v2.4h-3.9v12.9h-2.4v-12.9h-3.8v-2.4H160.7z"/>
<path d="M235.5,3698.8c-0.8,0-1.4,0.2-1.8,0.5c-0.4,0.3-0.7,0.8-0.7,1.4c0,0.6,0.3,1.1,0.8,1.4s1.3,0.8,2.3,1.1
	c0.8,0.3,1.4,0.6,1.9,0.9c0.5,0.3,1,0.8,1.3,1.4c0.3,0.6,0.5,1.3,0.5,2.2c0,0.8-0.2,1.5-0.6,2.2c-0.4,0.7-1,1.2-1.8,1.6
	c-0.8,0.4-1.7,0.6-2.7,0.6c-0.9,0-1.8-0.1-2.7-0.4c-0.9-0.3-1.7-0.7-2.4-1.2l1.1-1.9c0.5,0.4,1.1,0.7,1.8,1c0.7,0.3,1.4,0.4,2,0.4
	c0.7,0,1.4-0.2,2-0.5c0.6-0.4,0.8-0.9,0.8-1.6c0-0.6-0.2-1.1-0.7-1.5s-1.1-0.7-2-1.1c-0.9-0.3-1.6-0.6-2.2-1
	c-0.6-0.3-1.1-0.8-1.5-1.3c-0.4-0.6-0.6-1.3-0.6-2.1c0-1.2,0.4-2.3,1.3-3c0.8-0.8,2-1.2,3.3-1.2c1,0,1.9,0.1,2.7,0.3
	c0.8,0.2,1.5,0.6,2.1,1l-0.9,1.9C237.7,3699.2,236.5,3698.8,235.5,3698.8z"/>
<path d="M10.2,3757.2v2.4H6.3v12.9H3.8v-12.9H0v-2.4H10.2z"/>
<path d="M84.4,3768.9h-5.6l-1.5,3.6H75l6.8-15.9h0.1l6.8,15.9h-2.8L84.4,3768.9z M83.6,3766.8l-1.9-4.8l-2,4.8H83.6z"/>
<path d="M155.8,3757.2v12.9h7.5v2.4h-10v-15.3H155.8z"/>
<path d="M228.1,3757.2v5.6h2.5v-5.6H228.1z"/>
<path d="M2.5,3786.7v12.9H10v2.4H0v-15.3H2.5z"/>
<path d="M85.2,3786.7v2.4h-7.7v4.1h6.8v2.4h-6.8v4.2h8v2.4H75v-15.3H85.2z"/>
<path d="M160.7,3786.7v2.4h-3.9v12.9h-2.4v-12.9h-3.8v-2.4H160.7z"/>
<path d="M235.5,3788.8c-0.8,0-1.4,0.2-1.8,0.5c-0.4,0.3-0.7,0.8-0.7,1.4c0,0.6,0.3,1.1,0.8,1.4s1.3,0.8,2.3,1.1
	c0.8,0.3,1.4,0.6,1.9,0.9c0.5,0.3,1,0.8,1.3,1.4c0.3,0.6,0.5,1.3,0.5,2.2c0,0.8-0.2,1.5-0.6,2.2c-0.4,0.7-1,1.2-1.8,1.6
	c-0.8,0.4-1.7,0.6-2.7,0.6c-0.9,0-1.8-0.1-2.7-0.4c-0.9-0.3-1.7-0.7-2.4-1.2l1.1-1.9c0.5,0.4,1.1,0.7,1.8,1c0.7,0.3,1.4,0.4,2,0.4
	c0.7,0,1.4-0.2,2-0.5c0.6-0.4,0.8-0.9,0.8-1.6c0-0.6-0.2-1.1-0.7-1.5s-1.1-0.7-2-1.1c-0.9-0.3-1.6-0.6-2.2-1
	c-0.6-0.3-1.1-0.8-1.5-1.3c-0.4-0.6-0.6-1.3-0.6-2.1c0-1.2,0.4-2.3,1.3-3c0.8-0.8,2-1.2,3.3-1.2c1,0,1.9,0.1,2.7,0.3
	c0.8,0.2,1.5,0.6,2.1,1l-0.9,1.9C237.7,3789.1,236.5,3788.8,235.5,3788.8z"/>
<path d="M10.2,3847.1v2.4H6.3v12.9H3.8v-12.9H0v-2.4H10.2z"/>
<path d="M84.4,3858.8h-5.6l-1.5,3.6H75l6.8-15.9h0.1l6.8,15.9h-2.8L84.4,3858.8z M83.6,3856.7l-1.9-4.8l-2,4.8H83.6z"/>
<path d="M155.8,3847.1v12.9h7.5v2.4h-10v-15.3H155.8z"/>
<path d="M230.6,3847.1h-2.5v15.3h2.5V3847.1z"/>
<g>
	<path d="M2.5,3876.7v12.9H10v2.4H0v-15.3H2.5z"/>
	<path d="M85.2,3876.7v2.4h-7.7v4.1h6.8v2.4h-6.8v4.2h8v2.4H75v-15.3H85.2z"/>
	<path d="M160.7,3876.7v2.4h-3.9v12.9h-2.4v-12.9h-3.8v-2.4H160.7z"/>
	<path d="M235.5,3878.8c-0.8,0-1.4,0.2-1.8,0.5c-0.4,0.3-0.7,0.8-0.7,1.4c0,0.6,0.3,1.1,0.8,1.4s1.3,0.8,2.3,1.1
		c0.8,0.3,1.4,0.6,1.9,0.9c0.5,0.3,1,0.8,1.3,1.4c0.3,0.6,0.5,1.3,0.5,2.2c0,0.8-0.2,1.5-0.6,2.2c-0.4,0.7-1,1.2-1.8,1.6
		c-0.8,0.4-1.7,0.6-2.7,0.6c-0.9,0-1.8-0.1-2.7-0.4c-0.9-0.3-1.7-0.7-2.4-1.2l1.1-1.9c0.5,0.4,1.1,0.7,1.8,1c0.7,0.3,1.4,0.4,2,0.4
		c0.7,0,1.4-0.2,2-0.5c0.6-0.4,0.8-0.9,0.8-1.6c0-0.6-0.2-1.1-0.7-1.5s-1.1-0.7-2-1.1c-0.9-0.3-1.6-0.6-2.2-1
		c-0.6-0.3-1.1-0.8-1.5-1.3c-0.4-0.6-0.6-1.3-0.6-2.1c0-1.2,0.4-2.3,1.3-3c0.8-0.8,2-1.2,3.3-1.2c1,0,1.9,0.1,2.7,0.3
		c0.8,0.2,1.5,0.6,2.1,1l-0.9,1.9C237.7,3879.1,236.5,3878.8,235.5,3878.8z"/>
	<path d="M10.2,3937.1v2.4H6.3v12.9H3.8v-12.9H0v-2.4H10.2z"/>
	<path d="M84.4,3948.8h-5.6l-1.5,3.6H75l6.8-15.9h0.1l6.8,15.9h-2.8L84.4,3948.8z M83.6,3946.7l-1.9-4.8l-2,4.8H83.6z"/>
	<path d="M155.8,3937.1v12.9h7.5v2.4h-10v-15.3H155.8z"/>
	<path d="M230.5,3943.8l0.3-0.5l3.4-3.9h3.1l-6.8,7v6h-2.5v-15.3h2.5v5.9L230.5,3943.8z"/>
</g>
<g>
	<path d="M2.5,3966.7v12.9H10v2.4H0v-15.3H2.5z"/>
	<path d="M85.2,3966.7v2.4h-7.7v4.1h6.8v2.4h-6.8v4.2h8v2.4H75v-15.3H85.2z"/>
	<path d="M160.7,3966.7v2.4h-3.9v12.9h-2.4V3969h-3.8v-2.4H160.7z"/>
	<path d="M235.5,3968.8c-0.8,0-1.4,0.2-1.8,0.5c-0.4,0.3-0.7,0.8-0.7,1.4c0,0.6,0.3,1.1,0.8,1.4s1.3,0.8,2.3,1.1
		c0.8,0.3,1.4,0.6,1.9,0.9c0.5,0.3,1,0.8,1.3,1.4c0.3,0.6,0.5,1.3,0.5,2.2c0,0.8-0.2,1.5-0.6,2.2c-0.4,0.7-1,1.2-1.8,1.6
		c-0.8,0.4-1.7,0.6-2.7,0.6c-0.9,0-1.8-0.1-2.7-0.4c-0.9-0.3-1.7-0.7-2.4-1.2l1.1-1.9c0.5,0.4,1.1,0.7,1.8,1c0.7,0.3,1.4,0.4,2,0.4
		c0.7,0,1.4-0.2,2-0.5c0.6-0.4,0.8-0.9,0.8-1.6c0-0.6-0.2-1.1-0.7-1.5s-1.1-0.7-2-1.1c-0.9-0.3-1.6-0.6-2.2-1
		c-0.6-0.3-1.1-0.8-1.5-1.3c-0.4-0.6-0.6-1.3-0.6-2.1c0-1.2,0.4-2.3,1.3-3c0.8-0.8,2-1.2,3.3-1.2c1,0,1.9,0.1,2.7,0.3
		c0.8,0.2,1.5,0.6,2.1,1l-0.9,1.9C237.7,3969.1,236.5,3968.8,235.5,3968.8z"/>
	<path d="M10.2,4027.1v2.4H6.3v12.9H3.8v-12.9H0v-2.4H10.2z"/>
	<path d="M84.4,4038.8h-5.6l-1.5,3.6H75l6.8-15.9h0.1l6.8,15.9h-2.8L84.4,4038.8z M83.6,4036.7l-1.9-4.8l-2,4.8H83.6z"/>
	<path d="M155.8,4027.1v12.9h7.5v2.4h-10v-15.3H155.8z"/>
	<path d="M230.5,4033.8l0.3-0.5l5.8-6.2h3.1l-6.3,6.7l2.8,3.5h-3.1l-1.4-2l-1.1,1.1v6h-2.5v-15.3h2.5v5.9L230.5,4033.8z"/>
</g>
<path d="M2.5,4056.7v12.9H10v2.4H0v-15.3H2.5z"/>
<path d="M85.2,4056.7v2.4h-7.7v4.1h6.8v2.4h-6.8v4.2h8v2.4H75v-15.3H85.2z"/>
<path d="M160.7,4056.7v2.4h-3.9v12.9h-2.4V4059h-3.8v-2.4H160.7z"/>
<path d="M235.5,4058.8c-0.8,0-1.4,0.2-1.8,0.5c-0.4,0.3-0.7,0.8-0.7,1.4c0,0.6,0.3,1.1,0.8,1.4s1.3,0.8,2.3,1.1
	c0.8,0.3,1.4,0.6,1.9,0.9c0.5,0.3,1,0.8,1.3,1.4c0.3,0.6,0.5,1.3,0.5,2.2c0,0.8-0.2,1.5-0.6,2.2c-0.4,0.7-1,1.2-1.8,1.6
	c-0.8,0.4-1.7,0.6-2.7,0.6c-0.9,0-1.8-0.1-2.7-0.4c-0.9-0.3-1.7-0.7-2.4-1.2l1.1-1.9c0.5,0.4,1.1,0.7,1.8,1c0.7,0.3,1.4,0.4,2,0.4
	c0.7,0,1.4-0.2,2-0.5c0.6-0.4,0.8-0.9,0.8-1.6c0-0.6-0.2-1.1-0.7-1.5s-1.1-0.7-2-1.1c-0.9-0.3-1.6-0.6-2.2-1
	c-0.6-0.3-1.1-0.8-1.5-1.3c-0.4-0.6-0.6-1.3-0.6-2.1c0-1.2,0.4-2.3,1.3-3c0.8-0.8,2-1.2,3.3-1.2c1,0,1.9,0.1,2.7,0.3
	c0.8,0.2,1.5,0.6,2.1,1l-0.9,1.9C237.7,4059.1,236.5,4058.8,235.5,4058.8z"/>
<path d="M10.2,4117.1v2.4H6.3v12.9H3.8v-12.9H0v-2.4H10.2z"/>
<path d="M84.4,4128.8h-5.6l-1.5,3.6H75l6.8-15.9h0.1l6.8,15.9h-2.8L84.4,4128.8z M83.6,4126.7l-1.9-4.8l-2,4.8H83.6z"/>
<path d="M155.8,4117.1v12.9h7.5v2.4h-10v-15.3H155.8z"/>
<path d="M230.5,4123.7l0.3-0.5l5.8-6.2h3.1l-6.3,6.7l6.6,8.6h-3.1l-5.2-7.1l-1.1,1.1v6h-2.5v-15.3h2.5v5.9L230.5,4123.7z"/>
</svg>
